<svg class="marks" width="615" height="378" xmlns="http://www.w3.org/2000/svg"><g transform="translate(46,6)"><g id="g46" class="type-group"><g transform="translate(0,0)"><rect class="background" width="563" height="324" style="pointer-events: none; fill: none;"></rect><g id="g47" class="type-group"><g transform="translate(0,324)"><rect class="background" width="0" height="0" style="pointer-events: none; fill: none;"></rect><g id="g48" class="type-rule" style="pointer-events: none;"><line x1="39" y1="-324" x2="39" y2="0" style="fill: none; stroke: #d8d8d8; stroke-width: 1px; opacity: 1;"></line><line x1="120" y1="-324" x2="120" y2="0" style="fill: none; stroke: #d8d8d8; stroke-width: 1px; opacity: 1;"></line><line x1="201" y1="-324" x2="201" y2="0" style="fill: none; stroke: #d8d8d8; stroke-width: 1px; opacity: 1;"></line><line x1="282" y1="-324" x2="282" y2="0" style="fill: none; stroke: #d8d8d8; stroke-width: 1px; opacity: 1;"></line><line x1="363" y1="-324" x2="363" y2="0" style="fill: none; stroke: #d8d8d8; stroke-width: 1px; opacity: 1;"></line><line x1="444" y1="-324" x2="444" y2="0" style="fill: none; stroke: #d8d8d8; stroke-width: 1px; opacity: 1;"></line><line x1="525" y1="-324" x2="525" y2="0" style="fill: none; stroke: #d8d8d8; stroke-width: 1px; opacity: 1;"></line></g><g id="g49" class="type-rule" style="pointer-events: none;"><line x1="39" y1="0" x2="39" y2="6" style="fill: none; stroke: #000000; stroke-width: 1px; opacity: 1;"></line><line x1="120" y1="0" x2="120" y2="6" style="fill: none; stroke: #000000; stroke-width: 1px; opacity: 1;"></line><line x1="201" y1="0" x2="201" y2="6" style="fill: none; stroke: #000000; stroke-width: 1px; opacity: 1;"></line><line x1="282" y1="0" x2="282" y2="6" style="fill: none; stroke: #000000; stroke-width: 1px; opacity: 1;"></line><line x1="363" y1="0" x2="363" y2="6" style="fill: none; stroke: #000000; stroke-width: 1px; opacity: 1;"></line><line x1="444" y1="0" x2="444" y2="6" style="fill: none; stroke: #000000; stroke-width: 1px; opacity: 1;"></line><line x1="525" y1="0" x2="525" y2="6" style="fill: none; stroke: #000000; stroke-width: 1px; opacity: 1;"></line></g><g id="g50" class="type-rule" style="pointer-events: none;"></g><g id="g51" class="type-text"><text x="39" y="9" text-anchor="middle" dy=".9em" style="font-style: normal; font-variant: normal; font-weight: normal; font-size: 11px; line-height: normal; font-family: sans-serif; fill: #000000; opacity: 1;">2seater</text><text x="120" y="9" text-anchor="middle" dy=".9em" style="font-style: normal; font-variant: normal; font-weight: normal; font-size: 11px; line-height: normal; font-family: sans-serif; fill: #000000; opacity: 1;">compact</text><text x="201" y="9" text-anchor="middle" dy=".9em" style="font-style: normal; font-variant: normal; font-weight: normal; font-size: 11px; line-height: normal; font-family: sans-serif; fill: #000000; opacity: 1;">midsize</text><text x="282" y="9" text-anchor="middle" dy=".9em" style="font-style: normal; font-variant: normal; font-weight: normal; font-size: 11px; line-height: normal; font-family: sans-serif; fill: #000000; opacity: 1;">minivan</text><text x="363" y="9" text-anchor="middle" dy=".9em" style="font-style: normal; font-variant: normal; font-weight: normal; font-size: 11px; line-height: normal; font-family: sans-serif; fill: #000000; opacity: 1;">pickup</text><text x="444" y="9" text-anchor="middle" dy=".9em" style="font-style: normal; font-variant: normal; font-weight: normal; font-size: 11px; line-height: normal; font-family: sans-serif; fill: #000000; opacity: 1;">subcompact</text><text x="525" y="9" text-anchor="middle" dy=".9em" style="font-style: normal; font-variant: normal; font-weight: normal; font-size: 11px; line-height: normal; font-family: sans-serif; fill: #000000; opacity: 1;">suv</text></g><g id="g52" class="type-path" style="pointer-events: none;"><path transform="translate(0.5,0.5)" d="M0,6V0H563V6" style="fill: none; stroke: #000000; stroke-width: 1px;"></path></g><g id="g53" class="type-text"><text x="281" y="35" text-anchor="middle" dy=".35em" style="font-weight: bold; font-style: normal; font-variant: normal; font-size: 11px; line-height: normal; font-family: sans-serif; fill: #000000;">class</text></g></g></g><g id="g54" class="type-group"><g transform="translate(0,0)"><rect class="background" width="0" height="0" style="pointer-events: none; fill: none;"></rect><g id="g55" class="type-rule" style="pointer-events: none;"><line x1="0" y1="282.15909090909093" x2="563" y2="282.15909090909093" style="fill: none; stroke: #d8d8d8; stroke-width: 1px; opacity: 1;"></line><line x1="0" y1="236.13636363636365" x2="563" y2="236.13636363636365" style="fill: none; stroke: #d8d8d8; stroke-width: 1px; opacity: 1;"></line><line x1="0" y1="190.11363636363635" x2="563" y2="190.11363636363635" style="fill: none; stroke: #d8d8d8; stroke-width: 1px; opacity: 1;"></line><line x1="0" y1="144.0909090909091" x2="563" y2="144.0909090909091" style="fill: none; stroke: #d8d8d8; stroke-width: 1px; opacity: 1;"></line><line x1="0" y1="98.06818181818183" x2="563" y2="98.06818181818183" style="fill: none; stroke: #d8d8d8; stroke-width: 1px; opacity: 1;"></line><line x1="0" y1="52.045454545454575" x2="563" y2="52.045454545454575" style="fill: none; stroke: #d8d8d8; stroke-width: 1px; opacity: 1;"></line><line x1="0" y1="6.022727272727286" x2="563" y2="6.022727272727286" style="fill: none; stroke: #d8d8d8; stroke-width: 1px; opacity: 1;"></line></g><g id="g56" class="type-rule" style="pointer-events: none;"><line x1="-6" y1="282.15909090909093" x2="0" y2="282.15909090909093" style="fill: none; stroke: #000000; stroke-width: 1px; opacity: 1;"></line><line x1="-6" y1="236.13636363636365" x2="0" y2="236.13636363636365" style="fill: none; stroke: #000000; stroke-width: 1px; opacity: 1;"></line><line x1="-6" y1="190.11363636363635" x2="0" y2="190.11363636363635" style="fill: none; stroke: #000000; stroke-width: 1px; opacity: 1;"></line><line x1="-6" y1="144.0909090909091" x2="0" y2="144.0909090909091" style="fill: none; stroke: #000000; stroke-width: 1px; opacity: 1;"></line><line x1="-6" y1="98.06818181818183" x2="0" y2="98.06818181818183" style="fill: none; stroke: #000000; stroke-width: 1px; opacity: 1;"></line><line x1="-6" y1="52.045454545454575" x2="0" y2="52.045454545454575" style="fill: none; stroke: #000000; stroke-width: 1px; opacity: 1;"></line><line x1="-6" y1="6.022727272727286" x2="0" y2="6.022727272727286" style="fill: none; stroke: #000000; stroke-width: 1px; opacity: 1;"></line></g><g id="g57" class="type-rule" style="pointer-events: none;"></g><g id="g58" class="type-text"><text x="-9" y="282.15909090909093" text-anchor="end" dy=".35em" style="font-style: normal; font-variant: normal; font-weight: normal; font-size: 11px; line-height: normal; font-family: sans-serif; fill: #000000; opacity: 1;">15</text><text x="-9" y="236.13636363636365" text-anchor="end" dy=".35em" style="font-style: normal; font-variant: normal; font-weight: normal; font-size: 11px; line-height: normal; font-family: sans-serif; fill: #000000; opacity: 1;">20</text><text x="-9" y="190.11363636363635" text-anchor="end" dy=".35em" style="font-style: normal; font-variant: normal; font-weight: normal; font-size: 11px; line-height: normal; font-family: sans-serif; fill: #000000; opacity: 1;">25</text><text x="-9" y="144.0909090909091" text-anchor="end" dy=".35em" style="font-style: normal; font-variant: normal; font-weight: normal; font-size: 11px; line-height: normal; font-family: sans-serif; fill: #000000; opacity: 1;">30</text><text x="-9" y="98.06818181818183" text-anchor="end" dy=".35em" style="font-style: normal; font-variant: normal; font-weight: normal; font-size: 11px; line-height: normal; font-family: sans-serif; fill: #000000; opacity: 1;">35</text><text x="-9" y="52.045454545454575" text-anchor="end" dy=".35em" style="font-style: normal; font-variant: normal; font-weight: normal; font-size: 11px; line-height: normal; font-family: sans-serif; fill: #000000; opacity: 1;">40</text><text x="-9" y="6.022727272727286" text-anchor="end" dy=".35em" style="font-style: normal; font-variant: normal; font-weight: normal; font-size: 11px; line-height: normal; font-family: sans-serif; fill: #000000; opacity: 1;">45</text></g><g id="g59" class="type-path" style="pointer-events: none;"><path transform="translate(0.5,0.5)" d="M-6,0H0V324H-6" style="fill: none; stroke: #000000; stroke-width: 1px;"></path></g><g id="g60" class="type-text"><text x="-35" y="162" text-anchor="middle" transform="rotate(-90 -35,162)" dy=".35em" style="font-weight: bold; font-style: normal; font-variant: normal; font-size: 11px; line-height: normal; font-family: sans-serif; fill: #000000;">hwy</text></g></g></g><g id="g61" class="type-group"><g transform="translate(0,0)"><rect class="background" width="0" height="0" style="fill: none;"></rect><g id="g62" class="type-rect"><rect x="43.61267605633803" y="180.40909090909093" width="0.5" height="27.613636363636346" style="fill: #ffffff; stroke: #000000;"></rect></g></g><g transform="translate(0,0)"><rect class="background" width="0" height="0" style="fill: none;"></rect><g id="g63" class="type-rect"><rect x="122.90845070422536" y="115.97727272727272" width="0.5" height="92.04545454545456" style="fill: #ffffff; stroke: #000000;"></rect></g></g><g transform="translate(0,0)"><rect class="background" width="0" height="0" style="fill: none;"></rect><g id="g64" class="type-rect"><rect x="202.2042253521127" y="125.18181818181817" width="0.5" height="82.84090909090911" style="fill: #ffffff; stroke: #000000;"></rect></g></g><g transform="translate(0,0)"><rect class="background" width="0" height="0" style="fill: none;"></rect><g id="g65" class="type-rect"><rect x="281.5" y="198.81818181818187" width="0.5" height="27.613636363636346" style="fill: #ffffff; stroke: #000000;"></rect></g></g><g transform="translate(0,0)"><rect class="background" width="0" height="0" style="fill: none;"></rect><g id="g66" class="type-rect"><rect x="360.79577464788736" y="235.63636363636365" width="0.5" height="46.02272727272728" style="fill: #ffffff; stroke: #000000;"></rect></g></g><g transform="translate(0,0)"><rect class="background" width="0" height="0" style="fill: none;"></rect><g id="g67" class="type-rect"><rect x="440.0915492957747" y="88.36363636363636" width="0.5" height="147.2727272727273" style="fill: #ffffff; stroke: #000000;"></rect></g></g><g transform="translate(0,0)"><rect class="background" width="0" height="0" style="fill: none;"></rect><g id="g68" class="type-rect"><rect x="519.387323943662" y="217.22727272727272" width="0.5" height="73.63636363636365" style="fill: #ffffff; stroke: #000000;"></rect></g></g></g><g id="g69" class="type-group"><g transform="translate(0,0)"><rect class="background" width="0" height="0" style="fill: none;"></rect><g id="g70" class="type-rect"><rect x="2" y="180.40909090909093" width="73" height="18.409090909090935" style="fill: #ffffff; stroke: #000000;"></rect></g></g><g transform="translate(0,0)"><rect class="background" width="0" height="0" style="fill: none;"></rect><g id="g71" class="type-rect"><rect x="83" y="152.79545454545453" width="73" height="27.613636363636402" style="fill: #ffffff; stroke: #000000;"></rect></g></g><g transform="translate(0,0)"><rect class="background" width="0" height="0" style="fill: none;"></rect><g id="g72" class="type-rect"><rect x="164" y="152.79545454545453" width="73" height="27.613636363636402" style="fill: #ffffff; stroke: #000000;"></rect></g></g><g transform="translate(0,0)"><rect class="background" width="0" height="0" style="fill: none;"></rect><g id="g73" class="type-rect"><rect x="245" y="198.81818181818187" width="73" height="18.40909090909085" style="fill: #ffffff; stroke: #000000;"></rect></g></g><g transform="translate(0,0)"><rect class="background" width="0" height="0" style="fill: none;"></rect><g id="g74" class="type-rect"><rect x="326" y="254.04545454545456" width="73" height="18.409090909090878" style="fill: #ffffff; stroke: #000000;"></rect></g></g><g transform="translate(0,0)"><rect class="background" width="0" height="0" style="fill: none;"></rect><g id="g75" class="type-rect"><rect x="407" y="138.98863636363635" width="73" height="55.22727272727275" style="fill: #ffffff; stroke: #000000;"></rect></g></g><g transform="translate(0,0)"><rect class="background" width="0" height="0" style="fill: none;"></rect><g id="g76" class="type-rect"><rect x="488" y="244.8409090909091" width="73" height="18.409090909090907" style="fill: #ffffff; stroke: #000000;"></rect></g></g></g><g id="g77" class="type-group"><g transform="translate(0,0)"><rect class="background" width="0" height="0" style="fill: none;"></rect><g id="g78" class="type-rect"><rect x="2" y="189.61363636363635" width="73" height="1" style="fill: #ffffff; stroke: #000000;"></rect></g></g><g transform="translate(0,0)"><rect class="background" width="0" height="0" style="fill: none;"></rect><g id="g79" class="type-rect"><rect x="83" y="171.20454545454544" width="73" height="1" style="fill: #ffffff; stroke: #000000;"></rect></g></g><g transform="translate(0,0)"><rect class="background" width="0" height="0" style="fill: none;"></rect><g id="g80" class="type-rect"><rect x="164" y="171.20454545454544" width="73" height="1" style="fill: #ffffff; stroke: #000000;"></rect></g></g><g transform="translate(0,0)"><rect class="background" width="0" height="0" style="fill: none;"></rect><g id="g81" class="type-rect"><rect x="245" y="208.02272727272728" width="73" height="1" style="fill: #ffffff; stroke: #000000;"></rect></g></g><g transform="translate(0,0)"><rect class="background" width="0" height="0" style="fill: none;"></rect><g id="g82" class="type-rect"><rect x="326" y="263.25" width="73" height="1" style="fill: #ffffff; stroke: #000000;"></rect></g></g><g transform="translate(0,0)"><rect class="background" width="0" height="0" style="fill: none;"></rect><g id="g83" class="type-rect"><rect x="407" y="180.40909090909093" width="73" height="1" style="fill: #ffffff; stroke: #000000;"></rect></g></g><g transform="translate(0,0)"><rect class="background" width="0" height="0" style="fill: none;"></rect><g id="g84" class="type-rect"><rect x="488" y="258.6477272727273" width="73" height="1" style="fill: #ffffff; stroke: #000000;"></rect></g></g></g><g id="g85" class="type-group"><g transform="translate(0,0)"><rect class="background" width="0" height="0" style="fill: none;"></rect><g id="g86" class="type-symbol"><path transform="translate(122.90845070422536,97.56818181818183)" d="M0,3.989422804014327A3.989422804014327,3.989422804014327 0 1,1 0,-3.989422804014327A3.989422804014327,3.989422804014327 0 1,1 0,3.989422804014327Z" style="fill: #000000;"></path><path transform="translate(122.90845070422536,79.15909090909093)" d="M0,3.989422804014327A3.989422804014327,3.989422804014327 0 1,1 0,-3.989422804014327A3.989422804014327,3.989422804014327 0 1,1 0,3.989422804014327Z" style="fill: #000000;"></path><path transform="translate(122.90845070422536,97.56818181818183)" d="M0,3.989422804014327A3.989422804014327,3.989422804014327 0 1,1 0,-3.989422804014327A3.989422804014327,3.989422804014327 0 1,1 0,3.989422804014327Z" style="fill: #000000;"></path><path transform="translate(122.90845070422536,14.72727272727275)" d="M0,3.989422804014327A3.989422804014327,3.989422804014327 0 1,1 0,-3.989422804014327A3.989422804014327,3.989422804014327 0 1,1 0,3.989422804014327Z" style="fill: #000000;"></path></g></g><g transform="translate(0,0)"><rect class="background" width="0" height="0" style="fill: none;"></rect><g id="g87" class="type-symbol"><path transform="translate(281.5,263.25)" d="M0,3.989422804014327A3.989422804014327,3.989422804014327 0 1,1 0,-3.989422804014327A3.989422804014327,3.989422804014327 0 1,1 0,3.989422804014327Z" style="fill: #000000;"></path></g></g><g transform="translate(0,0)"><rect class="background" width="0" height="0" style="fill: none;"></rect><g id="g88" class="type-symbol"><path transform="translate(360.79577464788736,309.2727272727273)" d="M0,3.989422804014327A3.989422804014327,3.989422804014327 0 1,1 0,-3.989422804014327A3.989422804014327,3.989422804014327 0 1,1 0,3.989422804014327Z" style="fill: #000000;"></path><path transform="translate(360.79577464788736,309.2727272727273)" d="M0,3.989422804014327A3.989422804014327,3.989422804014327 0 1,1 0,-3.989422804014327A3.989422804014327,3.989422804014327 0 1,1 0,3.989422804014327Z" style="fill: #000000;"></path><path transform="translate(360.79577464788736,309.2727272727273)" d="M0,3.989422804014327A3.989422804014327,3.989422804014327 0 1,1 0,-3.989422804014327A3.989422804014327,3.989422804014327 0 1,1 0,3.989422804014327Z" style="fill: #000000;"></path><path transform="translate(360.79577464788736,217.22727272727272)" d="M0,3.989422804014327A3.989422804014327,3.989422804014327 0 1,1 0,-3.989422804014327A3.989422804014327,3.989422804014327 0 1,1 0,3.989422804014327Z" style="fill: #000000;"></path></g></g><g transform="translate(0,0)"><rect class="background" width="0" height="0" style="fill: none;"></rect><g id="g89" class="type-symbol"><path transform="translate(440.0915492957747,14.72727272727275)" d="M0,3.989422804014327A3.989422804014327,3.989422804014327 0 1,1 0,-3.989422804014327A3.989422804014327,3.989422804014327 0 1,1 0,3.989422804014327Z" style="fill: #000000;"></path><path transform="translate(440.0915492957747,42.34090909090911)" d="M0,3.989422804014327A3.989422804014327,3.989422804014327 0 1,1 0,-3.989422804014327A3.989422804014327,3.989422804014327 0 1,1 0,3.989422804014327Z" style="fill: #000000;"></path></g></g><g transform="translate(0,0)"><rect class="background" width="0" height="0" style="fill: none;"></rect><g id="g90" class="type-symbol"><path transform="translate(519.387323943662,309.2727272727273)" d="M0,3.989422804014327A3.989422804014327,3.989422804014327 0 1,1 0,-3.989422804014327A3.989422804014327,3.989422804014327 0 1,1 0,3.989422804014327Z" style="fill: #000000;"></path><path transform="translate(519.387323943662,309.2727272727273)" d="M0,3.989422804014327A3.989422804014327,3.989422804014327 0 1,1 0,-3.989422804014327A3.989422804014327,3.989422804014327 0 1,1 0,3.989422804014327Z" style="fill: #000000;"></path><path transform="translate(519.387323943662,189.61363636363635)" d="M0,3.989422804014327A3.989422804014327,3.989422804014327 0 1,1 0,-3.989422804014327A3.989422804014327,3.989422804014327 0 1,1 0,3.989422804014327Z" style="fill: #000000;"></path><path transform="translate(519.387323943662,198.81818181818187)" d="M0,3.989422804014327A3.989422804014327,3.989422804014327 0 1,1 0,-3.989422804014327A3.989422804014327,3.989422804014327 0 1,1 0,3.989422804014327Z" style="fill: #000000;"></path><path transform="translate(519.387323943662,171.20454545454544)" d="M0,3.989422804014327A3.989422804014327,3.989422804014327 0 1,1 0,-3.989422804014327A3.989422804014327,3.989422804014327 0 1,1 0,3.989422804014327Z" style="fill: #000000;"></path><path transform="translate(519.387323943662,189.61363636363635)" d="M0,3.989422804014327A3.989422804014327,3.989422804014327 0 1,1 0,-3.989422804014327A3.989422804014327,3.989422804014327 0 1,1 0,3.989422804014327Z" style="fill: #000000;"></path><path transform="translate(519.387323943662,180.40909090909093)" d="M0,3.989422804014327A3.989422804014327,3.989422804014327 0 1,1 0,-3.989422804014327A3.989422804014327,3.989422804014327 0 1,1 0,3.989422804014327Z" style="fill: #000000;"></path><path transform="translate(519.387323943662,208.02272727272728)" d="M0,3.989422804014327A3.989422804014327,3.989422804014327 0 1,1 0,-3.989422804014327A3.989422804014327,3.989422804014327 0 1,1 0,3.989422804014327Z" style="fill: #000000;"></path></g></g></g></g></g></g></svg>