<svg class="marks" width="615" height="378" xmlns="http://www.w3.org/2000/svg"><g transform="translate(46,6)"><g id="g32" class="type-group"><g transform="translate(0,0)"><rect class="background" width="489" height="324" style="pointer-events: none; fill: none;"></rect><g id="g33" class="type-group"><g transform="translate(0,324)"><rect class="background" width="0" height="0" style="pointer-events: none; fill: none;"></rect><g id="g34" class="type-rule" style="pointer-events: none;"><line x1="21.249622277492385" y1="-324" x2="21.249622277492385" y2="0" style="fill: none; stroke: #d8d8d8; stroke-width: 1px; opacity: 1;"></line><line x1="78.08233188442853" y1="-324" x2="78.08233188442853" y2="0" style="fill: none; stroke: #d8d8d8; stroke-width: 1px; opacity: 1;"></line><line x1="134.9150414913647" y1="-324" x2="134.9150414913647" y2="0" style="fill: none; stroke: #d8d8d8; stroke-width: 1px; opacity: 1;"></line><line x1="191.74775109830082" y1="-324" x2="191.74775109830082" y2="0" style="fill: none; stroke: #d8d8d8; stroke-width: 1px; opacity: 1;"></line><line x1="248.58046070523693" y1="-324" x2="248.58046070523693" y2="0" style="fill: none; stroke: #d8d8d8; stroke-width: 1px; opacity: 1;"></line><line x1="305.4131703121731" y1="-324" x2="305.4131703121731" y2="0" style="fill: none; stroke: #d8d8d8; stroke-width: 1px; opacity: 1;"></line><line x1="362.24587991910926" y1="-324" x2="362.24587991910926" y2="0" style="fill: none; stroke: #d8d8d8; stroke-width: 1px; opacity: 1;"></line><line x1="419.0785895260454" y1="-324" x2="419.0785895260454" y2="0" style="fill: none; stroke: #d8d8d8; stroke-width: 1px; opacity: 1;"></line><line x1="475.9112991329816" y1="-324" x2="475.9112991329816" y2="0" style="fill: none; stroke: #d8d8d8; stroke-width: 1px; opacity: 1;"></line></g><g id="g35" class="type-rule" style="pointer-events: none;"><line x1="21.249622277492385" y1="0" x2="21.249622277492385" y2="6" style="fill: none; stroke: #000000; stroke-width: 1px; opacity: 1;"></line><line x1="78.08233188442853" y1="0" x2="78.08233188442853" y2="6" style="fill: none; stroke: #000000; stroke-width: 1px; opacity: 1;"></line><line x1="134.9150414913647" y1="0" x2="134.9150414913647" y2="6" style="fill: none; stroke: #000000; stroke-width: 1px; opacity: 1;"></line><line x1="191.74775109830082" y1="0" x2="191.74775109830082" y2="6" style="fill: none; stroke: #000000; stroke-width: 1px; opacity: 1;"></line><line x1="248.58046070523693" y1="0" x2="248.58046070523693" y2="6" style="fill: none; stroke: #000000; stroke-width: 1px; opacity: 1;"></line><line x1="305.4131703121731" y1="0" x2="305.4131703121731" y2="6" style="fill: none; stroke: #000000; stroke-width: 1px; opacity: 1;"></line><line x1="362.24587991910926" y1="0" x2="362.24587991910926" y2="6" style="fill: none; stroke: #000000; stroke-width: 1px; opacity: 1;"></line><line x1="419.0785895260454" y1="0" x2="419.0785895260454" y2="6" style="fill: none; stroke: #000000; stroke-width: 1px; opacity: 1;"></line><line x1="475.9112991329816" y1="0" x2="475.9112991329816" y2="6" style="fill: none; stroke: #000000; stroke-width: 1px; opacity: 1;"></line></g><g id="g36" class="type-rule" style="pointer-events: none;"></g><g id="g37" class="type-text"><text x="21.249622277492385" y="9" text-anchor="middle" dy=".9em" style="font-style: normal; font-variant: normal; font-weight: normal; font-size: 11px; line-height: normal; font-family: sans-serif; fill: #000000; opacity: 1;">1.5</text><text x="78.08233188442853" y="9" text-anchor="middle" dy=".9em" style="font-style: normal; font-variant: normal; font-weight: normal; font-size: 11px; line-height: normal; font-family: sans-serif; fill: #000000; opacity: 1;">2.0</text><text x="134.9150414913647" y="9" text-anchor="middle" dy=".9em" style="font-style: normal; font-variant: normal; font-weight: normal; font-size: 11px; line-height: normal; font-family: sans-serif; fill: #000000; opacity: 1;">2.5</text><text x="191.74775109830082" y="9" text-anchor="middle" dy=".9em" style="font-style: normal; font-variant: normal; font-weight: normal; font-size: 11px; line-height: normal; font-family: sans-serif; fill: #000000; opacity: 1;">3.0</text><text x="248.58046070523693" y="9" text-anchor="middle" dy=".9em" style="font-style: normal; font-variant: normal; font-weight: normal; font-size: 11px; line-height: normal; font-family: sans-serif; fill: #000000; opacity: 1;">3.5</text><text x="305.4131703121731" y="9" text-anchor="middle" dy=".9em" style="font-style: normal; font-variant: normal; font-weight: normal; font-size: 11px; line-height: normal; font-family: sans-serif; fill: #000000; opacity: 1;">4.0</text><text x="362.24587991910926" y="9" text-anchor="middle" dy=".9em" style="font-style: normal; font-variant: normal; font-weight: normal; font-size: 11px; line-height: normal; font-family: sans-serif; fill: #000000; opacity: 1;">4.5</text><text x="419.0785895260454" y="9" text-anchor="middle" dy=".9em" style="font-style: normal; font-variant: normal; font-weight: normal; font-size: 11px; line-height: normal; font-family: sans-serif; fill: #000000; opacity: 1;">5.0</text><text x="475.9112991329816" y="9" text-anchor="middle" dy=".9em" style="font-style: normal; font-variant: normal; font-weight: normal; font-size: 11px; line-height: normal; font-family: sans-serif; fill: #000000; opacity: 1;">5.5</text></g><g id="g38" class="type-path" style="pointer-events: none;"><path transform="translate(0.5,0.5)" d="M0,6V0H489V6" style="fill: none; stroke: #000000; stroke-width: 1px;"></path></g><g id="g39" class="type-text"><text x="244" y="35" text-anchor="middle" dy=".35em" style="font-weight: bold; font-style: normal; font-variant: normal; font-size: 11px; line-height: normal; font-family: sans-serif; fill: #000000;">wt</text></g></g></g><g id="g40" class="type-group"><g transform="translate(0,0)"><rect class="background" width="0" height="0" style="pointer-events: none; fill: none;"></rect><g id="g41" class="type-rule" style="pointer-events: none;"><line x1="0" y1="302.82355473956835" x2="489" y2="302.82355473956835" style="fill: none; stroke: #d8d8d8; stroke-width: 1px; opacity: 1;"></line><line x1="0" y1="279.7975126745717" x2="489" y2="279.7975126745717" style="fill: none; stroke: #d8d8d8; stroke-width: 1px; opacity: 1;"></line><line x1="0" y1="256.771470609575" x2="489" y2="256.771470609575" style="fill: none; stroke: #d8d8d8; stroke-width: 1px; opacity: 1;"></line><line x1="0" y1="233.74542854457832" x2="489" y2="233.74542854457832" style="fill: none; stroke: #d8d8d8; stroke-width: 1px; opacity: 1;"></line><line x1="0" y1="210.7193864795816" x2="489" y2="210.7193864795816" style="fill: none; stroke: #d8d8d8; stroke-width: 1px; opacity: 1;"></line><line x1="0" y1="187.6933444145849" x2="489" y2="187.6933444145849" style="fill: none; stroke: #d8d8d8; stroke-width: 1px; opacity: 1;"></line><line x1="0" y1="164.6673023495882" x2="489" y2="164.6673023495882" style="fill: none; stroke: #d8d8d8; stroke-width: 1px; opacity: 1;"></line><line x1="0" y1="141.64126028459154" x2="489" y2="141.64126028459154" style="fill: none; stroke: #d8d8d8; stroke-width: 1px; opacity: 1;"></line><line x1="0" y1="118.61521821959484" x2="489" y2="118.61521821959484" style="fill: none; stroke: #d8d8d8; stroke-width: 1px; opacity: 1;"></line><line x1="0" y1="95.58917615459814" x2="489" y2="95.58917615459814" style="fill: none; stroke: #d8d8d8; stroke-width: 1px; opacity: 1;"></line><line x1="0" y1="72.56313408960146" x2="489" y2="72.56313408960146" style="fill: none; stroke: #d8d8d8; stroke-width: 1px; opacity: 1;"></line><line x1="0" y1="49.53709202460477" x2="489" y2="49.53709202460477" style="fill: none; stroke: #d8d8d8; stroke-width: 1px; opacity: 1;"></line><line x1="0" y1="26.511049959608062" x2="489" y2="26.511049959608062" style="fill: none; stroke: #d8d8d8; stroke-width: 1px; opacity: 1;"></line><line x1="0" y1="3.4850078946113956" x2="489" y2="3.4850078946113956" style="fill: none; stroke: #d8d8d8; stroke-width: 1px; opacity: 1;"></line></g><g id="g42" class="type-rule" style="pointer-events: none;"><line x1="-6" y1="302.82355473956835" x2="0" y2="302.82355473956835" style="fill: none; stroke: #000000; stroke-width: 1px; opacity: 1;"></line><line x1="-6" y1="279.7975126745717" x2="0" y2="279.7975126745717" style="fill: none; stroke: #000000; stroke-width: 1px; opacity: 1;"></line><line x1="-6" y1="256.771470609575" x2="0" y2="256.771470609575" style="fill: none; stroke: #000000; stroke-width: 1px; opacity: 1;"></line><line x1="-6" y1="233.74542854457832" x2="0" y2="233.74542854457832" style="fill: none; stroke: #000000; stroke-width: 1px; opacity: 1;"></line><line x1="-6" y1="210.7193864795816" x2="0" y2="210.7193864795816" style="fill: none; stroke: #000000; stroke-width: 1px; opacity: 1;"></line><line x1="-6" y1="187.6933444145849" x2="0" y2="187.6933444145849" style="fill: none; stroke: #000000; stroke-width: 1px; opacity: 1;"></line><line x1="-6" y1="164.6673023495882" x2="0" y2="164.6673023495882" style="fill: none; stroke: #000000; stroke-width: 1px; opacity: 1;"></line><line x1="-6" y1="141.64126028459154" x2="0" y2="141.64126028459154" style="fill: none; stroke: #000000; stroke-width: 1px; opacity: 1;"></line><line x1="-6" y1="118.61521821959484" x2="0" y2="118.61521821959484" style="fill: none; stroke: #000000; stroke-width: 1px; opacity: 1;"></line><line x1="-6" y1="95.58917615459814" x2="0" y2="95.58917615459814" style="fill: none; stroke: #000000; stroke-width: 1px; opacity: 1;"></line><line x1="-6" y1="72.56313408960146" x2="0" y2="72.56313408960146" style="fill: none; stroke: #000000; stroke-width: 1px; opacity: 1;"></line><line x1="-6" y1="49.53709202460477" x2="0" y2="49.53709202460477" style="fill: none; stroke: #000000; stroke-width: 1px; opacity: 1;"></line><line x1="-6" y1="26.511049959608062" x2="0" y2="26.511049959608062" style="fill: none; stroke: #000000; stroke-width: 1px; opacity: 1;"></line><line x1="-6" y1="3.4850078946113956" x2="0" y2="3.4850078946113956" style="fill: none; stroke: #000000; stroke-width: 1px; opacity: 1;"></line></g><g id="g43" class="type-rule" style="pointer-events: none;"></g><g id="g44" class="type-text"><text x="-9" y="302.82355473956835" text-anchor="end" dy=".35em" style="font-style: normal; font-variant: normal; font-weight: normal; font-size: 11px; line-height: normal; font-family: sans-serif; fill: #000000; opacity: 1;">10</text><text x="-9" y="279.7975126745717" text-anchor="end" dy=".35em" style="font-style: normal; font-variant: normal; font-weight: normal; font-size: 11px; line-height: normal; font-family: sans-serif; fill: #000000; opacity: 1;">12</text><text x="-9" y="256.771470609575" text-anchor="end" dy=".35em" style="font-style: normal; font-variant: normal; font-weight: normal; font-size: 11px; line-height: normal; font-family: sans-serif; fill: #000000; opacity: 1;">14</text><text x="-9" y="233.74542854457832" text-anchor="end" dy=".35em" style="font-style: normal; font-variant: normal; font-weight: normal; font-size: 11px; line-height: normal; font-family: sans-serif; fill: #000000; opacity: 1;">16</text><text x="-9" y="210.7193864795816" text-anchor="end" dy=".35em" style="font-style: normal; font-variant: normal; font-weight: normal; font-size: 11px; line-height: normal; font-family: sans-serif; fill: #000000; opacity: 1;">18</text><text x="-9" y="187.6933444145849" text-anchor="end" dy=".35em" style="font-style: normal; font-variant: normal; font-weight: normal; font-size: 11px; line-height: normal; font-family: sans-serif; fill: #000000; opacity: 1;">20</text><text x="-9" y="164.6673023495882" text-anchor="end" dy=".35em" style="font-style: normal; font-variant: normal; font-weight: normal; font-size: 11px; line-height: normal; font-family: sans-serif; fill: #000000; opacity: 1;">22</text><text x="-9" y="141.64126028459154" text-anchor="end" dy=".35em" style="font-style: normal; font-variant: normal; font-weight: normal; font-size: 11px; line-height: normal; font-family: sans-serif; fill: #000000; opacity: 1;">24</text><text x="-9" y="118.61521821959484" text-anchor="end" dy=".35em" style="font-style: normal; font-variant: normal; font-weight: normal; font-size: 11px; line-height: normal; font-family: sans-serif; fill: #000000; opacity: 1;">26</text><text x="-9" y="95.58917615459814" text-anchor="end" dy=".35em" style="font-style: normal; font-variant: normal; font-weight: normal; font-size: 11px; line-height: normal; font-family: sans-serif; fill: #000000; opacity: 1;">28</text><text x="-9" y="72.56313408960146" text-anchor="end" dy=".35em" style="font-style: normal; font-variant: normal; font-weight: normal; font-size: 11px; line-height: normal; font-family: sans-serif; fill: #000000; opacity: 1;">30</text><text x="-9" y="49.53709202460477" text-anchor="end" dy=".35em" style="font-style: normal; font-variant: normal; font-weight: normal; font-size: 11px; line-height: normal; font-family: sans-serif; fill: #000000; opacity: 1;">32</text><text x="-9" y="26.511049959608062" text-anchor="end" dy=".35em" style="font-style: normal; font-variant: normal; font-weight: normal; font-size: 11px; line-height: normal; font-family: sans-serif; fill: #000000; opacity: 1;">34</text><text x="-9" y="3.4850078946113956" text-anchor="end" dy=".35em" style="font-style: normal; font-variant: normal; font-weight: normal; font-size: 11px; line-height: normal; font-family: sans-serif; fill: #000000; opacity: 1;">36</text></g><g id="g45" class="type-path" style="pointer-events: none;"><path transform="translate(0.5,0.5)" d="M-6,0H0V324H-6" style="fill: none; stroke: #000000; stroke-width: 1px;"></path></g><g id="g46" class="type-text"><text x="-35" y="162" text-anchor="middle" transform="rotate(-90 -35,162)" dy=".35em" style="font-weight: bold; font-style: normal; font-variant: normal; font-size: 11px; line-height: normal; font-family: sans-serif; fill: #000000;">mpg</text></g></g></g><g id="g47" class="type-group"><g transform="translate(0,0)"><rect class="background" width="0" height="0" style="fill: none;"></rect><g id="g48" class="type-area"><path d="M22.227272727272716,14.727272727273325L24.640144980711995,16.940383082794078L27.053017234150115,19.145457193802027L29.465889487589372,21.342032902230414L31.87876174102749,23.529617256856223L34.29163399446675,25.70768452138685L36.70450624790487,27.87567411681296L39.11737850134413,30.032988514393463L41.53025075478338,32.178991101388526L43.9431230082215,34.3130040485375L46.35599526166075,36.434306216512695L48.768867515098876,38.54213114811525L51.18173976853813,40.63566520412243L53.59461202197738,42.71404591326582L56.00748427541551,44.77636062081875L58.42035652885476,46.821645535518996L60.83322878229288,48.84888529056517L63.24610103573213,50.85701315063164L65.65897328917026,52.844912012326866L68.07184554260952,54.81141635891795L70.48471779604877,56.75531533985287L72.8975900494869,58.6753571495806L75.31046230292617,60.570254875889155L77.72333455636426,62.43869397279603L80.13620680980355,64.2793414843153L82.54907906324277,66.09085710049234L84.9619513166809,67.87190606443647L87.37482357012018,69.62117386791293L89.7876958235583,71.33738257482737L92.20056807699753,73.01930850003878L94.61344033043565,74.66580085177455L97.02631258387493,76.27580082836758L99.43918483731416,77.84836055525979L101.85205709075233,79.38266116895119L104.26492934419156,80.87802931279062L106.67780159762968,82.33395131566299L109.09067385106896,83.7500843846179L111.50354610450819,85.1262642567299L113.91641835794631,86.46250891784753L116.32929061138559,87.75901819376423L118.74216286482371,89.01616923530828L121.15503511826294,90.2345081328057L123.56790737170107,91.41473808750182L125.98077962514034,92.5577047212287L128.39365187857956,93.66437920945995L130.8065241320177,94.73583997203085L133.21939638545697,95.77325365193003L135.63226863889508,96.77785606247411L138.04514089233433,97.75093369790864L140.4580131457736,98.69380629419611L142.87088539921172,99.60781080810092L145.28375765265096,100.49428706425995L147.69662990608907,101.35456521037888L150.10950215952835,102.18995502556139L152.52237441296649,103.00173704927914L154.93524666640576,103.79115543934472L157.348118919845,104.55941242574221L159.7609911732831,105.30766420128316L162.1738634267224,106.03701807724232L164.5867356801605,106.7485307297126L166.99960793359975,107.44320736765701L169.41248018703786,108.1220016642321L171.82535244047716,108.78581630690363L174.23822469391638,109.43550403756576L176.65109694735452,110.07186907011761L179.0639692007938,110.69566878885163L181.4768414542319,111.30761564603534L183.88971370767115,111.9083791907911L186.30258596111042,112.49858817370067L188.71545821454853,113.07883268232433L191.12833046798778,113.64966627216549L193.5412027214259,114.2116080655199L195.95407497486516,114.7651447973161L198.3669472283033,115.31073279257745L200.77981948174252,115.8487998646472L203.1926917351818,116.37974712700658L205.60556398861993,116.90395071442765L208.0184362420592,117.4217634115489L210.43130849549732,117.93351618872246L212.84418074893654,118.43951964639784L212.84418074893654,220.0913519760789L210.43130849549732,217.83712718938847L208.0184362420592,215.5886517221964L205.60556398861993,213.34623617495075L203.1926917351818,211.11021151800605L200.77981948174252,208.88093053599852L198.3669472283033,206.65876936370364L195.95407497486516,204.44412911459924L193.5412027214259,202.23743760202973L191.12833046798778,200.03915115101717L188.71545821454853,197.84975649649263L186.30258596111042,195.6697727607505L183.88971370767115,193.49975349929315L181.4768414542319,191.3402887996832L179.0639692007938,189.19200741249998L176.65109694735452,187.05557888686937L174.23822469391638,184.93171567505547L171.82535244047716,182.82117516135068L169.41248018703786,180.72476155965646L166.99960793359975,178.64332761186586L164.5867356801605,176.57777600544446L162.1738634267224,174.52906041354902L159.7609911732831,172.49818604514127L157.348118919845,170.48620957631647L154.93524666640576,168.49423831834824L152.52237441296649,166.52342846404804L150.10950215952835,164.57498224339878L147.69662990608907,162.65014381421562L145.28375765265096,160.75019371596878L142.87088539921172,158.87644172776203L140.4580131457736,157.03021799729993L138.04514089233433,155.2128623492217L135.63226863889508,153.42571174029044L133.21939638545697,151.67008590646876L130.8065241320177,149.94727134200105L128.39365187857956,148.25850386020622L125.98077962514034,146.60495010407053L123.56790737170107,144.98768849343284L121.15503511826294,143.40769020376203L118.74216286482371,141.86580085689369L116.32929061138559,140.36272365407197L113.91641835794631,138.89900468562175L111.50354610450819,137.47502110237366L109.09067385106896,136.0909727301199L106.67780159762968,134.7468775547079L104.26492934419156,133.4425713132157L101.85205709075233,132.1777112126882L99.43918483731416,130.95178358201383L97.02631258387493,129.7641150645403L94.61344033043565,128.61388679676645L92.20056807699753,127.50015090413763L89.7876958235583,126.42184858498206L87.37482357012018,125.3778290475308L84.9619513166809,124.36686860664148L82.54907906324277,123.38768932621875L80.13620680980355,122.43897669803005L77.72333455636426,121.51939596518353L75.31046230292617,120.62760681772349L72.8975900494869,119.7622762996663L70.48471779604877,118.92208986502939L68.07184554260952,118.10576060159745L65.65897328917026,117.3120367038216L63.24610103573213,116.53970732115226L60.83322878229288,115.78760693685177L58.42035652885476,115.05461844753222L56.00748427541551,114.33967511786668L53.59461202197738,113.6417615810539L51.18173976853813,112.95991404583036L48.768867515098876,112.29321985747183L46.35599526166075,111.64081654470861L43.9431230082215,111.00189046831801L41.53025075478338,110.37567517110125L39.11737850134413,109.76144951372943L36.70450624790487,109.15853566694415L34.29163399446675,108.56629701800455L31.87876174102749,107.98413603816822L29.465889487589372,107.41149214842824L27.053017234150115,106.84783961249092L24.640144980711995,106.29268547913196L22.227272727272716,105.74556759028813Z" style="fill: #333333; fill-opacity: 0.2; stroke: rgba(0, 0, 0, 0);"></path></g></g><g transform="translate(0,0)"><rect class="background" width="0" height="0" style="fill: none;"></rect><g id="g49" class="type-area"><path d="M148.05489179702934,150.6696140843561L149.26348612791045,151.35880045193485L150.47208045879268,152.04559281063783L151.68067478967492,152.7298807301012L152.88926912055604,153.4115477570337L154.09786345143831,154.09047107793677L155.3064577823194,154.76652116792275L156.5150521132016,155.43956142628087L157.7236464440827,156.10944779985732L158.93224077496498,156.77602839566157L160.14083510584607,157.43914308462774L161.34942943672834,158.09862309898995L162.55802376760943,158.75429062642792L163.76661809849165,159.40595840489263L164.97521242937273,160.05342932289133L166.183806760255,160.69649603104426L167.39240109113612,161.33494057185436L168.60099542201837,161.96853403588614L169.80958975289946,162.59703625399237L171.01818408378168,163.2201955366954L172.2267784146628,163.83774847351944L173.43537274554504,164.44941980671825L174.64396707642615,165.05492239561806L175.85256140730843,165.65395728949852L177.0611557381895,166.24621392851094L178.2697500690717,166.8313704935787L179.47834439995282,167.4090944272267L180.6869387308351,167.97904314791577L181.89553306171618,168.54086498035966L183.10412739259846,169.0942003233618L184.31272172347954,169.6386830747727L185.52131605436176,170.1739423299279L186.72991038524285,170.6996043652998L187.93850471612512,171.2152949128952L189.14709904700624,171.720641723103L190.35569337788849,172.215277404251L191.56428770876957,172.69884251627886L192.7728820396518,173.17098888384476L193.9814763705329,173.63138308148388L195.19007070141515,174.07971003065262L196.39866503229626,174.51567663636388L197.60725936317854,174.9390153807195L198.81585369405963,175.34948778262316L200.02444802494182,175.7468876285098L201.23304235582293,176.1310438785235L202.4416366867052,176.50182315694977L203.6502310175863,176.8591317449468L204.85882534846857,177.20291700749453L206.06741967934965,177.53316820452397L207.27601401023188,177.8499166572883L208.48460834111296,178.15323526399155L209.69320267199524,178.4432373820519L210.90179700287635,178.72007511657338L212.1103913337586,178.98393707437535L213.31898566463968,179.235045658998L214.5275799955219,179.4736539937795L215.73617432640302,179.70004256695708L216.94476865728527,179.91451569470001L218.15336298816638,180.11739789555685L219.3619573190486,180.30903026348173L220.57055164992974,180.48976691727896L221.77914598081193,180.65997159298556L222.98774031169305,180.8200144331201L224.19633464257532,180.97026901391266L225.4049289734564,181.11110963916076L226.61352330433863,181.24290891781882L227.82211763521977,181.3660356322455L229.030711966102,181.48085289536107L230.23930629698307,181.5877165879489L231.44790062786535,181.68697406190725L232.65649495874646,181.7789630913486L233.86508928962868,181.86401105084283L235.0736836205098,181.94243429868752L236.28227795139202,182.01453774259784L237.49087228227313,182.0806145654675L238.69946661315538,182.1409460896913L239.9080609440365,182.1958017597952L241.1166552749187,182.2454392246051L242.32524960579983,182.29010450187351L243.53384393668205,182.33003221001965L243.53384393668205,219.9255827387685L242.32524960579983,219.28484636473567L241.1166552749187,218.64884755982513L239.9080609440365,218.01782094245607L238.69946661315538,217.39201253038098L237.49087228227313,216.77167997242694L236.28227795139202,216.15709271311763L235.0736836205098,215.54853207484905L233.86508928962868,214.94629124051474L232.65649495874646,214.35067511782998L231.44790062786535,213.76200006509356L230.23930629698307,213.18059345687294L229.030711966102,212.6067930672818L227.82211763521977,212.04094624821957L226.61352330433863,211.48340888046735L225.4049289734564,210.93454407694753L224.19633464257532,210.39472062001673L222.98774031169305,209.86431111863024L221.77914598081193,209.34368987658476L220.57055164992974,208.8332304701135L219.3619573190486,208.33330304173174L218.15336298816638,207.84427132747768L216.94476865728527,207.3664894461567L215.73617432640302,206.90029849172063L214.5275799955219,206.44602298271934L213.31898566463968,206.00396723532302L212.1103913337586,205.57441173776672L210.90179700287635,205.15760961338967L209.69320267199524,204.75378326573215L208.48460834111296,204.36312130161355L207.27601401023188,203.98577582613902L206.06741967934965,203.62186019672438L204.85882534846857,203.27144731157594L203.6502310175863,202.93456849194476L202.4416366867052,202.6112129977628L201.23304235582293,202.30132819401132L200.02444802494182,202.00482036184485L198.81585369405963,201.7215561255537L197.60725936317854,201.45136444527955L196.39866503229626,201.19403910745513L195.19007070141515,200.94934163098847L193.9814763705329,200.71700449797825L192.7728820396518,200.4967346134385L191.56428770876957,200.2882168988254L190.35569337788849,200.0911179286754L189.14709904700624,199.90508952764444L187.93850471612512,199.7297722556733L186.72991038524285,199.56479872109088L185.52131605436176,199.40979667428383L184.31272172347954,199.26439184726007L183.10412739259846,199.128210516492L181.89553306171618,199.00088177731513L180.6869387308351,198.8820395275812L179.47834439995282,198.77132416609138L178.2697500690717,198.66838401756038L177.0611557381895,198.57287650044915L175.85256140730843,198.4844690572838L174.64396707642615,198.40283986898413L173.43537274554504,198.32767837570609L172.2267784146628,198.2586856267259L171.01818408378168,198.1955744813722L169.80958975289946,198.1380696818963L168.60099542201837,198.0859078178236L167.39240109113612,198.03883719967752L166.183806760255,197.99661765830749L164.97521242937273,197.9590202842826L163.76661809849165,197.92582712010235L162.55802376760943,197.89683081638924L161.34942943672834,197.87183426164827L160.14083510584607,197.8506501938315L158.93224077496498,197.8331008006187L157.7236464440827,197.81901731424514L156.5150521132016,197.80823960564146L155.3064577823194,197.80061578182182L154.09786345143831,197.79600178962883L152.88926912055604,197.79426102835407L151.68067478967492,197.79526397310644L150.47208045879268,197.79888781039202L149.26348612791045,197.80501608691597L148.05489179702934,197.81353837231578Z" style="fill: #333333; fill-opacity: 0.2; stroke: rgba(0, 0, 0, 0);"></path></g></g><g transform="translate(0,0)"><rect class="background" width="0" height="0" style="fill: none;"></rect><g id="g50" class="type-area"><path d="M210.5708723646591,202.1683780841717L213.8139338191916,203.2822105227326L217.05699527372408,204.38970720493103L220.30005672825655,205.4904876061836L223.54311818278904,206.58414753956436L226.78617963732148,207.6702582412081L230.02924109185398,208.74836558163858L233.27230254638647,209.81798944913083L236.51536400091894,210.87862335913113L239.75842545545143,211.92973435199812L243.0014869099839,212.97076324948415L246.24454836451633,214.00112534789184L249.48760981904886,215.0202116320389L252.7306712735813,216.027390598113L255.97373272811382,217.0220107740084L259.2167941826463,218.0034040216387L262.4598556371788,218.9708896955155L265.7029170917113,219.92377971431262L268.9459785462437,220.86138457598113L272.1890400007762,221.7830203116275L275.4321014553087,222.68801632875957L278.6751629098423,223.57572404173806L281.91822436437474,224.44552612865564L285.1612858189073,225.2968461929775L288.4043472734397,226.12915855021177L291.6474087279722,226.9419978105396L294.8904701825047,227.7349678941625L298.1335316370372,228.5077501030238L301.37659309156965,229.26010988506778L304.61965454610214,229.9919019674407L307.86271600063463,230.70307360212914L311.1057774551671,231.39366575702692L314.34883890969957,232.0638121902857L317.5919003642321,232.71373645628267L320.83496181876455,233.34374699766337L324.07802327329705,233.9542305698201L327.32108472782954,234.5456443143603L330.56414618236204,235.1185068418798L333.8072076368944,235.67338870028024L337.0502690914269,236.21090259480755L340.2933305459594,236.73169369414094L343.53639200049184,237.2364303090877L346.77945345502434,237.72579517314338L350.02251490955683,238.20047749331292L353.2655763640893,238.6611658805052L356.5086378186218,239.10854221508598L359.7516992731543,239.54327645753915L362.9947607276868,239.96602237757313L366.23782218221925,240.37741414778213L369.4808836367518,240.77806372933222L372.72394509128424,241.1685589661136L375.9670065458166,241.54946229898897L379.21006800034917,241.92131001178757L382.4531294548816,242.2846119242681L385.6961909094141,242.63985145323744L388.93925236394654,242.98748597041475L392.1823138184791,243.32794739375066L395.4253752730116,243.66164295712198L398.668436727544,243.9889561113572L401.91149818207765,244.3102475169451L405.15455963661014,244.62585609564496L408.3976210911426,244.9361001141816L411.64068254567513,245.24127827856145L414.8837440002076,245.54167082204054L418.12680545474007,245.8375405736526L421.36986690927256,246.12913399741785L424.61292836380505,246.41668219504106L427.85598981833743,246.70040186706785L431.09905127286993,246.98049622925342L434.3421127274024,247.2571558822997L437.5851741819349,247.53055963421335L440.82823563646735,247.8008752754164L444.0712970909999,248.0682603073741L447.31435854553234,248.3328626260093L450.55742000006484,248.59482116151185L453.8004814545974,248.8542664763931L457.0435429091298,249.11132132377958L460.2866043636623,249.3661011680551L463.52966581819476,249.61871466996195L466.7727272727273,249.86926413826782L466.7727272727273,309.27272727272737L463.52966581819476,308.0829088867277L460.2866043636623,306.8951545343279L457.0435429091298,305.7095665242982L453.8004814545974,304.52625351737873L450.55742000006484,303.34533097795395L447.31435854553234,302.1669216591519L444.0712970909999,300.99115612348027L440.82823563646735,299.81817330113233L437.5851741819349,298.6481210880297L434.3421127274024,297.48115698563765L431.09905127286993,296.3174487843783L427.85598981833743,295.15717529225816L424.61292836380505,294.0005271099782L421.36986690927256,292.84770745329575L418.12680545474007,291.6989330227564L414.8837440002076,290.5544349200617L411.64068254567513,289.41445960923517L408.3976210911426,288.27926991930934L405.15455963661014,287.1491460835391L401.91149818207765,286.0243868079333L398.668436727544,284.90531035921674L395.4253752730116,283.7922556591451L392.1823138184791,282.68558336821076L388.93925236394654,281.58567693724103L385.6961909094141,280.4929436001127L382.4531294548816,279.40781527477634L379.21006800034917,278.3307493329512L375.9670065458166,277.2622291914442L372.72394509128424,276.2027646700127L369.4808836367518,275.1528920524884L366.23782218221925,274.1131737797329L362.9947607276868,273.0841976956362L359.7516992731543,272.0665757613645L356.5086378186218,271.060942149512L353.2655763640893,270.0679506297871L350.02251490955683,269.0882711626725L346.77945345502434,268.1225856285376L343.53639200049184,267.1715826382865L340.2933305459594,266.23595139892757L337.0502690914269,265.3163746439542L333.8072076368944,264.41352068417694L330.56414618236204,263.52803468827176L327.32108472782954,262.6605293614856L324.07802327329705,261.81157525172006L320.83496181876455,260.98169096957L317.5919003642321,260.171333656645L314.34883890969957,259.3808900683363L311.1057774551671,258.6106686472883L307.86271600063463,257.86089294788155L304.61965454610214,257.1316967282632L301.37659309156965,256.4231209563316L298.1335316370372,255.73511288406874L294.8904701825047,255.06752723862556L291.6474087279722,254.42012946794284L288.4043472734397,253.79260087396383L285.1612858189073,253.18454537689243L281.91822436437474,252.59549758690864L278.6751629098423,252.0249318195194L275.4321014553087,251.47227167819221L272.1890400007762,250.9368998410186L268.9459785462437,250.41816772236047L265.7029170917113,249.91540472972218L262.4598556371788,249.4279268942136L259.2167941826463,248.95504471378473L255.97373272811382,248.49607010710935L252.7306712735813,248.05032242869916L249.48760981904886,247.61713354046756L246.24454836451633,247.19585197030784L243.0014869099839,246.78584621440984L239.75842545545143,246.3865072575902L236.51536400091894,245.99725039615151L233.27230254638647,245.617516451845L230.02924109185398,245.24677246503276L226.78617963732148,244.88451195115755L223.54311818278904,244.5302547984945L220.30005672825655,244.18354687756957L217.05699527372408,243.8439594245165L213.8139338191916,243.51108825240925L210.5708723646591,243.1845528366633Z" style="fill: #333333; fill-opacity: 0.2; stroke: rgba(0, 0, 0, 0);"></path></g></g></g><g id="g51" class="type-group"><g transform="translate(0,0)"><rect class="background" width="0" height="0" style="fill: none;"></rect><g id="g52" class="type-line"><path d="M22.227272727272716,60.23642015878071L24.640144980711995,61.616534280963045L27.053017234150115,62.99664840314646L29.465889487589372,64.37676252532991L31.87876174102749,65.75687664751223L34.29163399446675,67.13699076969569L36.70450624790487,68.51710489187802L39.11737850134413,69.89721901406142L41.53025075478338,71.27733313624488L43.9431230082215,72.65744725842721L46.35599526166075,74.03756138061061L48.768867515098876,75.4176755027941L51.18173976853813,76.7977896249764L53.59461202197738,78.17790374715985L56.00748427541551,79.55801786934218L58.42035652885476,80.93813199152558L60.83322878229288,82.31824611370907L63.24610103573213,83.69836023589137L65.65897328917026,85.07847435807477L68.07184554260952,86.45858848025826L70.48471779604877,87.83870260244056L72.8975900494869,89.21881672462403L75.31046230292617,90.59893084680634L77.72333455636426,91.97904496898974L80.13620680980355,93.35915909117323L82.54907906324277,94.73927321335553L84.9619513166809,96.11938733553902L87.37482357012018,97.49950145772127L89.7876958235583,98.87961557990472L92.20056807699753,100.2597297020882L94.61344033043565,101.6398438242705L97.02631258387493,103.01995794645394L99.43918483731416,104.40007206863739L101.85205709075233,105.78018619081969L104.26492934419156,107.16030031300318L106.67780159762968,108.54041443518543L109.09067385106896,109.92052855736891L111.50354610450819,111.30064267955235L113.91641835794631,112.68075680173466L116.32929061138559,114.0608709239181L118.74216286482371,115.4409850461004L121.15503511826294,116.82109916828388L123.56790737170107,118.20121329046734L125.98077962514034,119.58132741264963L128.39365187857956,120.96144153483307L130.8065241320177,122.34155565701653L133.21939638545697,123.72166977919885L135.63226863889508,125.1017839013823L138.04514089233433,126.48189802356455L140.4580131457736,127.86201214574804L142.87088539921172,129.2421262679315L145.28375765265096,130.62224039011383L147.69662990608907,132.00235451229725L150.10950215952835,133.3824686344807L152.52237441296649,134.76258275666302L154.93524666640576,136.14269687884646L157.348118919845,137.5228110010288L159.7609911732831,138.9029251232122L162.1738634267224,140.28303924539566L164.5867356801605,141.663153367578L166.99960793359975,143.0432674897614L169.41248018703786,144.42338161194368L171.82535244047716,145.80349573412718L174.23822469391638,147.18360985631062L176.65109694735452,148.56372397849296L179.0639692007938,149.94383810067637L181.4768414542319,151.32395222285984L183.88971370767115,152.70406634504215L186.30258596111042,154.08418046722556L188.71545821454853,155.4642945894079L191.12833046798778,156.84440871159134L193.5412027214259,158.2245228337748L195.95407497486516,159.60463695595712L198.3669472283033,160.98475107814053L200.77981948174252,162.36486520032287L203.1926917351818,163.7449793225063L205.60556398861993,165.12509344468978L208.0184362420592,166.5052075668721L210.43130849549732,167.8853216890555L212.84418074893654,169.26543581123897" style="fill: rgba(0, 0, 0, 0); stroke: #000000; stroke-width: 2px;"></path></g></g><g transform="translate(0,0)"><rect class="background" width="0" height="0" style="fill: none;"></rect><g id="g53" class="type-line"><path d="M148.05489179702934,174.24157622833653L149.26348612791045,174.5819082694254L150.47208045879268,174.92224031051546L151.68067478967492,175.26257235160438L152.88926912055604,175.6029043926933L154.09786345143831,175.94323643378334L155.3064577823194,176.28356847487225L156.5150521132016,176.62390051596117L157.7236464440827,176.96423255705122L158.93224077496498,177.30456459814013L160.14083510584607,177.64489663922905L161.34942943672834,177.9852286803191L162.55802376760943,178.325560721408L163.76661809849165,178.6658927624981L164.97521242937273,179.00622480358695L166.183806760255,179.3465568446759L167.39240109113612,179.6868888857659L168.60099542201837,180.02722092685488L169.80958975289946,180.36755296794374L171.01818408378168,180.7078850090338L172.2267784146628,181.04821705012267L173.43537274554504,181.38854909121278L174.64396707642615,181.72888113230172L175.85256140730843,182.06921317339055L177.0611557381895,182.40954521448066L178.2697500690717,182.74987725556952L179.47834439995282,183.09020929665846L180.6869387308351,183.43054133774848L181.89553306171618,183.7708733788374L183.10412739259846,184.11120541992747L184.31272172347954,184.45153746101636L185.52131605436176,184.79186950210527L186.72991038524285,185.13220154319535L187.93850471612512,185.47253358428424L189.14709904700624,185.81286562537315L190.35569337788849,186.15319766646323L191.56428770876957,186.49352970755214L192.7728820396518,186.8338617486422L193.9814763705329,187.17419378973105L195.19007070141515,187.51452583082002L196.39866503229626,187.85485787191004L197.60725936317854,188.19518991299898L198.81585369405963,188.5355219540878L200.02444802494182,188.87585399517792L201.23304235582293,189.21618603626678L202.4416366867052,189.55651807735572L203.6502310175863,189.89685011844583L204.85882534846857,190.23718215953465L206.06741967934965,190.57751420062476L207.27601401023188,190.91784624171362L208.48460834111296,191.2581782828026L209.69320267199524,191.5985103238926L210.90179700287635,191.9388423649815L212.1103913337586,192.2791744060704L213.31898566463968,192.6195064471605L214.5275799955219,192.9598384882494L215.73617432640302,193.30017052933945L216.94476865728527,193.64050257042837L218.15336298816638,193.98083461151728L219.3619573190486,194.32116665260733L220.57055164992974,194.66149869369625L221.77914598081193,195.00183073478516L222.98774031169305,195.34216277587518L224.19633464257532,195.68249481696412L225.4049289734564,196.02282685805415L226.61352330433863,196.3631588991431L227.82211763521977,196.70349094023192L229.030711966102,197.04382298132202L230.23930629698307,197.38415502241088L231.44790062786535,197.72448706349985L232.65649495874646,198.0648191045899L233.86508928962868,198.40515114567876L235.0736836205098,198.74548318676887L236.28227795139202,199.08581522785775L237.49087228227313,199.4261472689467L238.69946661315538,199.76647931003671L239.9080609440365,200.10681135112563L241.1166552749187,200.44714339221454L242.32524960579983,200.7874754333046L243.53384393668205,201.1278074743935" style="fill: rgba(0, 0, 0, 0); stroke: #000000; stroke-width: 2px;"></path></g></g><g transform="translate(0,0)"><rect class="background" width="0" height="0" style="fill: none;"></rect><g id="g54" class="type-line"><path d="M210.5708723646591,222.6764654604181L213.8139338191916,223.39664938757033L217.05699527372408,224.1168333147238L220.30005672825655,224.83701724187716L223.54311818278904,225.5572011690294L226.78617963732148,226.27738509618285L230.02924109185398,226.99756902333507L233.27230254638647,227.71775295048852L236.51536400091894,228.43793687764074L239.75842545545143,229.15812080479418L243.0014869099839,229.8783047319476L246.24454836451633,230.59848865909984L249.48760981904886,231.31867258625323L252.7306712735813,232.03885651340545L255.97373272811382,232.75904044055892L259.2167941826463,233.47922436771114L262.4598556371788,234.19940829486458L265.7029170917113,234.91959222201686L268.9459785462437,235.63977614917025L272.1890400007762,236.35996007632363L275.4321014553087,237.08014400347588L278.6751629098423,237.80032793062932L281.91822436437474,238.52051185778157L285.1612858189073,239.24069578493496L288.4043472734397,239.96087971208723L291.6474087279722,240.68106363924062L294.8904701825047,241.40124756639403L298.1335316370372,242.12143149354628L301.37659309156965,242.8416154206997L304.61965454610214,243.56179934785195L307.86271600063463,244.28198327500536L311.1057774551671,245.00216720215764L314.34883890969957,245.72235112931102L317.5919003642321,246.44253505646444L320.83496181876455,247.16271898361668L324.07802327329705,247.8829029107701L327.32108472782954,248.60308683792238L330.56414618236204,249.32327076507576L333.8072076368944,250.043454692228L337.0502690914269,250.7636386193814L340.2933305459594,251.48382254653367L343.53639200049184,252.2040064736871L346.77945345502434,252.92419040084047L350.02251490955683,253.64437432799275L353.2655763640893,254.36455825514616L356.5086378186218,255.0847421822984L359.7516992731543,255.8049261094518L362.9947607276868,256.5251100366041L366.23782218221925,257.2452939637575L369.4808836367518,257.9654778909109L372.72394509128424,258.6856618180632L375.9670065458166,259.40584574521654L379.21006800034917,260.1260296723688L382.4531294548816,260.84621359952223L385.6961909094141,261.56639752667445L388.93925236394654,262.2865814538279L392.1823138184791,263.0067653809813L395.4253752730116,263.72694930813356L398.668436727544,264.44713323528697L401.91149818207765,265.16731716243925L405.15455963661014,265.8875010895926L408.3976210911426,266.6076850167449L411.64068254567513,267.3278689438983L414.8837440002076,268.0480528710506L418.12680545474007,268.76823679820393L421.36986690927256,269.48842072535734L424.61292836380505,270.2086046525096L427.85598981833743,270.92878857966303L431.09905127286993,271.64897250681526L434.3421127274024,272.36915643396867L437.5851741819349,273.08934036112095L440.82823563646735,273.80952428827436L444.0712970909999,274.5297082154278L447.31435854553234,275.24989214258L450.55742000006484,275.97007606973347L453.8004814545974,276.6902599968857L457.0435429091298,277.41044392403904L460.2866043636623,278.1306278511913L463.52966581819476,278.85081177834473L466.7727272727273,279.57099570549815" style="fill: rgba(0, 0, 0, 0); stroke: #000000; stroke-width: 2px;"></path></g></g></g><g id="g55" class="type-group"><g transform="translate(0,0)"><rect class="background" width="0" height="0" style="fill: none;"></rect><g id="g56" class="type-symbol"><path transform="translate(113.95526603286764,154.95688552358953)" d="M0,5.440847306724618A5.440847306724618,5.440847306724618 0 1,1 0,-5.440847306724618A5.440847306724618,5.440847306724618 0 1,1 0,5.440847306724618Z" style="fill: #1f77b4; stroke: #000000; opacity: 0.7;"></path><path transform="translate(212.84418074893654,136.5360518715922)" d="M0,4.442433223290478A4.442433223290478,4.442433223290478 0 1,1 0,-4.442433223290478A4.442433223290478,4.442433223290478 0 1,1 0,4.442433223290478Z" style="fill: #1f77b4; stroke: #000000; opacity: 0.7;"></path><path transform="translate(208.29756398038165,154.95688552358953)" d="M0,5.499039842323396A5.499039842323396,5.499039842323396 0 1,1 0,-5.499039842323396A5.499039842323396,5.499039842323396 0 1,1 0,5.499039842323396Z" style="fill: #1f77b4; stroke: #000000; opacity: 0.7;"></path><path transform="translate(100.315415727203,44.43188361160544)" d="M0,4.583497844237541A4.583497844237541,4.583497844237541 0 1,1 0,-4.583497844237541A4.583497844237541,4.583497844237541 0 1,1 0,4.583497844237541Z" style="fill: #1f77b4; stroke: #000000; opacity: 0.7;"></path><path transform="translate(33.8211454870877,67.45792567660212)" d="M0,4.068428945128219A4.068428945128219,4.068428945128219 0 1,1 0,-4.068428945128219A4.068428945128219,4.068428945128219 0 1,1 0,4.068428945128219Z" style="fill: #1f77b4; stroke: #000000; opacity: 0.7;"></path><path transform="translate(58.8275377141396,27.162352062857938)" d="M0,4.54864184146723A4.54864184146723,4.54864184146723 0 1,1 0,-4.54864184146723A4.54864184146723,4.54864184146723 0 1,1 0,4.54864184146723Z" style="fill: #1f77b4; stroke: #000000; opacity: 0.7;"></path><path transform="translate(130.43675181887912,169.92381286583736)" d="M0,5.556622981616415A5.556622981616415,5.556622981616415 0 1,1 0,-5.556622981616415A5.556622981616415,5.556622981616415 0 1,1 0,5.556622981616415Z" style="fill: #1f77b4; stroke: #000000; opacity: 0.7;"></path><path transform="translate(70.19407963552683,103.14829087734697)" d="M0,4.583497844237541A4.583497844237541,4.583497844237541 0 1,1 0,-4.583497844237541A4.583497844237541,4.583497844237541 0 1,1 0,4.583497844237541Z" style="fill: #1f77b4; stroke: #000000; opacity: 0.7;"></path><path transform="translate(93.49549057437066,118.11521821959484)" d="M0,5.382025607773058A5.382025607773058,5.382025607773058 0 1,1 0,-5.382025607773058A5.382025607773058,5.382025607773058 0 1,1 0,5.382025607773058Z" style="fill: #1f77b4; stroke: #000000; opacity: 0.7;"></path><path transform="translate(22.227272727272716,67.45792567660212)" d="M0,5.997417539138688A5.997417539138688,5.997417539138688 0 1,1 0,-5.997417539138688A5.997417539138688,5.997417539138688 0 1,1 0,5.997417539138688Z" style="fill: #1f77b4; stroke: #000000; opacity: 0.7;"></path><path transform="translate(166.24135887124888,171.07511496908722)" d="M0,5.890312181373172A5.890312181373172,5.890312181373172 0 1,1 0,-5.890312181373172A5.890312181373172,5.890312181373172 0 1,1 0,5.890312181373172Z" style="fill: #1f77b4; stroke: #000000; opacity: 0.7;"></path></g></g><g transform="translate(0,0)"><rect class="background" width="0" height="0" style="fill: none;"></rect><g id="g57" class="type-symbol"><path transform="translate(148.05489179702934,175.68032338208656)" d="M0,5.917270272703197A5.917270272703197,5.917270272703197 0 1,1 0,-5.917270272703197A5.917270272703197,5.917270272703197 0 1,1 0,5.917270272703197Z" style="fill: #ff7f0e; stroke: #000000; opacity: 0.7;"></path><path transform="translate(177.03957369656678,175.68032338208656)" d="M0,5.917270272703197A5.917270272703197,5.917270272703197 0 1,1 0,-5.917270272703197A5.917270272703197,5.917270272703197 0 1,1 0,5.917270272703197Z" style="fill: #ff7f0e; stroke: #000000; opacity: 0.7;"></path><path transform="translate(215.68581622928332,171.07511496908722)" d="M0,5.917270272703197A5.917270272703197,5.917270272703197 0 1,1 0,-5.917270272703197A5.917270272703197,5.917270272703197 0 1,1 0,5.917270272703197Z" style="fill: #ff7f0e; stroke: #000000; opacity: 0.7;"></path><path transform="translate(243.53384393668205,209.06808437633174)" d="M0,5.781222885281108A5.781222885281108,5.781222885281108 0 1,1 0,-5.781222885281108A5.781222885281108,5.781222885281108 0 1,1 0,5.781222885281108Z" style="fill: #ff7f0e; stroke: #000000; opacity: 0.7;"></path><path transform="translate(241.26053555240463,196.4037612405836)" d="M0,6.257165172872317A6.257165172872317,6.257165172872317 0 1,1 0,-6.257165172872317A6.257165172872317,6.257165172872317 0 1,1 0,6.257165172872317Z" style="fill: #ff7f0e; stroke: #000000; opacity: 0.7;"></path><path transform="translate(241.26053555240463,212.52199068608124)" d="M0,6.257165172872317A6.257165172872317,6.257165172872317 0 1,1 0,-6.257165172872317A6.257165172872317,6.257165172872317 0 1,1 0,6.257165172872317Z" style="fill: #ff7f0e; stroke: #000000; opacity: 0.7;"></path><path transform="translate(165.1047046791102,190.6472507243344)" d="M0,7.463526651802308A7.463526651802308,7.463526651802308 0 1,1 0,-7.463526651802308A7.463526651802308,7.463526651802308 0 1,1 0,7.463526651802308Z" style="fill: #ff7f0e; stroke: #000000; opacity: 0.7;"></path></g></g><g transform="translate(0,0)"><rect class="background" width="0" height="0" style="fill: none;"></rect><g id="g58" class="type-symbol"><path transform="translate(241.26053555240463,202.16027175683277)" d="M0,7.463526651802308A7.463526651802308,7.463526651802308 0 1,1 0,-7.463526651802308A7.463526651802308,7.463526651802308 0 1,1 0,7.463526651802308Z" style="fill: #2ca02c; stroke: #000000; opacity: 0.7;"></path><path transform="translate(256.037040050208,252.81756429982548)" d="M0,8.83096382707056A8.83096382707056,8.83096382707056 0 1,1 0,-8.83096382707056A8.83096382707056,8.83096382707056 0 1,1 0,8.83096382707056Z" style="fill: #2ca02c; stroke: #000000; opacity: 0.7;"></path><path transform="translate(312.8697496571442,228.64022013157896)" d="M0,7.569397566060481A7.569397566060481,7.569397566060481 0 1,1 0,-7.569397566060481A7.569397566060481,7.569397566060481 0 1,1 0,7.569397566060481Z" style="fill: #2ca02c; stroke: #000000; opacity: 0.7;"></path><path transform="translate(274.22350712442756,218.27850120233046)" d="M0,7.569397566060481A7.569397566060481,7.569397566060481 0 1,1 0,-7.569397566060481A7.569397566060481,7.569397566060481 0 1,1 0,7.569397566060481Z" style="fill: #2ca02c; stroke: #000000; opacity: 0.7;"></path><path transform="translate(279.9067780851212,242.45584537057695)" d="M0,7.569397566060481A7.569397566060481,7.569397566060481 0 1,1 0,-7.569397566060481A7.569397566060481,7.569397566060481 0 1,1 0,7.569397566060481Z" style="fill: #2ca02c; stroke: #000000; opacity: 0.7;"></path><path transform="translate(446.9949443295135,297.718346326569)" d="M0,8.07796550300118A8.07796550300118,8.07796550300118 0 1,1 0,-8.07796550300118A8.07796550300118,8.07796550300118 0 1,1 0,8.07796550300118Z" style="fill: #2ca02c; stroke: #000000; opacity: 0.7;"></path><path transform="translate(466.7727272727273,297.718346326569)" d="M0,8.272643200907131A8.272643200907131,8.272643200907131 0 1,1 0,-8.272643200907131A8.272643200907131,8.272643200907131 0 1,1 0,8.272643200907131Z" style="fill: #2ca02c; stroke: #000000; opacity: 0.7;"></path><path transform="translate(457.7931591548313,248.21235588682615)" d="M0,8.556358677747903A8.556358677747903,8.556358677747903 0 1,1 0,-8.556358677747903A8.556358677747903,8.556358677747903 0 1,1 0,8.556358677747903Z" style="fill: #2ca02c; stroke: #000000; opacity: 0.7;"></path><path transform="translate(250.35376908951443,239.00193906082748)" d="M0,6.90988298942671A6.90988298942671,6.90988298942671 0 1,1 0,-6.90988298942671A6.90988298942671,6.90988298942671 0 1,1 0,6.90988298942671Z" style="fill: #2ca02c; stroke: #000000; opacity: 0.7;"></path><path transform="translate(240.69220845633527,242.45584537057695)" d="M0,6.90988298942671A6.90988298942671,6.90988298942671 0 1,1 0,-6.90988298942671A6.90988298942671,6.90988298942671 0 1,1 0,6.90988298942671Z" style="fill: #2ca02c; stroke: #000000; opacity: 0.7;"></path><path transform="translate(286.72670323795353,264.33058533232384)" d="M0,8.83096382707056A8.83096382707056,8.83096382707056 0 1,1 0,-8.83096382707056A8.83096382707056,8.83096382707056 0 1,1 0,8.83096382707056Z" style="fill: #2ca02c; stroke: #000000; opacity: 0.7;"></path><path transform="translate(287.2950303340229,196.4037612405836)" d="M0,7.463526651802308A7.463526651802308,7.463526651802308 0 1,1 0,-7.463526651802308A7.463526651802308,7.463526651802308 0 1,1 0,7.463526651802308Z" style="fill: #2ca02c; stroke: #000000; opacity: 0.7;"></path><path transform="translate(210.5708723646591,235.54803275107795)" d="M0,9.166995688475081A9.166995688475081,9.166995688475081 0 1,1 0,-9.166995688475081A9.166995688475081,9.166995688475081 0 1,1 0,9.166995688475081Z" style="fill: #2ca02c; stroke: #000000; opacity: 0.7;"></path><path transform="translate(256.037040050208,244.75844957707662)" d="M0,10.32636489145962A10.32636489145962,10.32636489145962 0 1,1 0,-10.32636489145962A10.32636489145962,10.32636489145962 0 1,1 0,10.32636489145962Z" style="fill: #2ca02c; stroke: #000000; opacity: 0.7;"></path></g></g></g><g id="g59" class="type-group"><g transform="translate(500.5,0.5)"><rect class="background" width="63" height="61" style="pointer-events: none; fill: none;"></rect><g id="g60" class="type-text" style="pointer-events: none;"><text x="3" y="3" text-anchor="start" dy=".9em" style="font-weight: bold; font-style: normal; font-variant: normal; font-size: 11px; line-height: normal; font-family: sans-serif; fill: #000000; opacity: 1;">factor(cyl)</text></g><g id="g61" class="type-symbol" style="pointer-events: none;"><path transform="translate(7.5,23)" d="M0,3.989422804014327A3.989422804014327,3.989422804014327 0 1,1 0,-3.989422804014327A3.989422804014327,3.989422804014327 0 1,1 0,3.989422804014327Z" style="fill: #1f77b4; stroke: #888888; stroke-width: 1px; opacity: 1;"></path><path transform="translate(7.5,38)" d="M0,3.989422804014327A3.989422804014327,3.989422804014327 0 1,1 0,-3.989422804014327A3.989422804014327,3.989422804014327 0 1,1 0,3.989422804014327Z" style="fill: #ff7f0e; stroke: #888888; stroke-width: 1px; opacity: 1;"></path><path transform="translate(7.5,53)" d="M0,3.989422804014327A3.989422804014327,3.989422804014327 0 1,1 0,-3.989422804014327A3.989422804014327,3.989422804014327 0 1,1 0,3.989422804014327Z" style="fill: #2ca02c; stroke: #888888; stroke-width: 1px; opacity: 1;"></path></g><g id="g62" class="type-text" style="pointer-events: none;"><text x="16" y="23" text-anchor="start" dy=".35em" style="font-style: normal; font-variant: normal; font-weight: normal; font-size: 10px; line-height: normal; font-family: sans-serif; fill: #000000; opacity: 1;">4</text><text x="16" y="38" text-anchor="start" dy=".35em" style="font-style: normal; font-variant: normal; font-weight: normal; font-size: 10px; line-height: normal; font-family: sans-serif; fill: #000000; opacity: 1;">6</text><text x="16" y="53" text-anchor="start" dy=".35em" style="font-style: normal; font-variant: normal; font-weight: normal; font-size: 10px; line-height: normal; font-family: sans-serif; fill: #000000; opacity: 1;">8</text></g></g></g></g></g></g></svg>