<svg class="marks" width="654" height="402" xmlns="http://www.w3.org/2000/svg"><g transform="translate(46,6)"><g id="g17" class="type-group"><g transform="translate(0,0)"><rect class="background" width="602" height="348" style="pointer-events: none; fill: none;"></rect><g id="g18" class="type-group"><g transform="translate(0,348)"><rect class="background" width="0" height="0" style="pointer-events: none; fill: none;"></rect><g id="g19" class="type-rule" style="pointer-events: none;"><line x1="17.728956228956225" y1="-348" x2="17.728956228956225" y2="0" style="fill: none; stroke: #d8d8d8; stroke-width: 1px; opacity: 1;"></line><line x1="68.4023569023569" y1="-348" x2="68.4023569023569" y2="0" style="fill: none; stroke: #d8d8d8; stroke-width: 1px; opacity: 1;"></line><line x1="119.07575757575756" y1="-348" x2="119.07575757575756" y2="0" style="fill: none; stroke: #d8d8d8; stroke-width: 1px; opacity: 1;"></line><line x1="169.74915824915826" y1="-348" x2="169.74915824915826" y2="0" style="fill: none; stroke: #d8d8d8; stroke-width: 1px; opacity: 1;"></line><line x1="220.42255892255892" y1="-348" x2="220.42255892255892" y2="0" style="fill: none; stroke: #d8d8d8; stroke-width: 1px; opacity: 1;"></line><line x1="271.0959595959596" y1="-348" x2="271.0959595959596" y2="0" style="fill: none; stroke: #d8d8d8; stroke-width: 1px; opacity: 1;"></line><line x1="321.76936026936033" y1="-348" x2="321.76936026936033" y2="0" style="fill: none; stroke: #d8d8d8; stroke-width: 1px; opacity: 1;"></line><line x1="372.44276094276097" y1="-348" x2="372.44276094276097" y2="0" style="fill: none; stroke: #d8d8d8; stroke-width: 1px; opacity: 1;"></line><line x1="423.11616161616166" y1="-348" x2="423.11616161616166" y2="0" style="fill: none; stroke: #d8d8d8; stroke-width: 1px; opacity: 1;"></line><line x1="473.7895622895623" y1="-348" x2="473.7895622895623" y2="0" style="fill: none; stroke: #d8d8d8; stroke-width: 1px; opacity: 1;"></line><line x1="524.462962962963" y1="-348" x2="524.462962962963" y2="0" style="fill: none; stroke: #d8d8d8; stroke-width: 1px; opacity: 1;"></line><line x1="575.1363636363636" y1="-348" x2="575.1363636363636" y2="0" style="fill: none; stroke: #d8d8d8; stroke-width: 1px; opacity: 1;"></line></g><g id="g20" class="type-rule" style="pointer-events: none;"><line x1="17.728956228956225" y1="0" x2="17.728956228956225" y2="6" style="fill: none; stroke: #000000; stroke-width: 1px; opacity: 1;"></line><line x1="68.4023569023569" y1="0" x2="68.4023569023569" y2="6" style="fill: none; stroke: #000000; stroke-width: 1px; opacity: 1;"></line><line x1="119.07575757575756" y1="0" x2="119.07575757575756" y2="6" style="fill: none; stroke: #000000; stroke-width: 1px; opacity: 1;"></line><line x1="169.74915824915826" y1="0" x2="169.74915824915826" y2="6" style="fill: none; stroke: #000000; stroke-width: 1px; opacity: 1;"></line><line x1="220.42255892255892" y1="0" x2="220.42255892255892" y2="6" style="fill: none; stroke: #000000; stroke-width: 1px; opacity: 1;"></line><line x1="271.0959595959596" y1="0" x2="271.0959595959596" y2="6" style="fill: none; stroke: #000000; stroke-width: 1px; opacity: 1;"></line><line x1="321.76936026936033" y1="0" x2="321.76936026936033" y2="6" style="fill: none; stroke: #000000; stroke-width: 1px; opacity: 1;"></line><line x1="372.44276094276097" y1="0" x2="372.44276094276097" y2="6" style="fill: none; stroke: #000000; stroke-width: 1px; opacity: 1;"></line><line x1="423.11616161616166" y1="0" x2="423.11616161616166" y2="6" style="fill: none; stroke: #000000; stroke-width: 1px; opacity: 1;"></line><line x1="473.7895622895623" y1="0" x2="473.7895622895623" y2="6" style="fill: none; stroke: #000000; stroke-width: 1px; opacity: 1;"></line><line x1="524.462962962963" y1="0" x2="524.462962962963" y2="6" style="fill: none; stroke: #000000; stroke-width: 1px; opacity: 1;"></line><line x1="575.1363636363636" y1="0" x2="575.1363636363636" y2="6" style="fill: none; stroke: #000000; stroke-width: 1px; opacity: 1;"></line></g><g id="g21" class="type-rule" style="pointer-events: none;"></g><g id="g22" class="type-text"><text x="17.728956228956225" y="9" text-anchor="middle" dy=".9em" style="font-style: normal; font-variant: normal; font-weight: normal; font-size: 11px; line-height: normal; font-family: sans-serif; fill: #000000; opacity: 1;">1.5</text><text x="68.4023569023569" y="9" text-anchor="middle" dy=".9em" style="font-style: normal; font-variant: normal; font-weight: normal; font-size: 11px; line-height: normal; font-family: sans-serif; fill: #000000; opacity: 1;">2.0</text><text x="119.07575757575756" y="9" text-anchor="middle" dy=".9em" style="font-style: normal; font-variant: normal; font-weight: normal; font-size: 11px; line-height: normal; font-family: sans-serif; fill: #000000; opacity: 1;">2.5</text><text x="169.74915824915826" y="9" text-anchor="middle" dy=".9em" style="font-style: normal; font-variant: normal; font-weight: normal; font-size: 11px; line-height: normal; font-family: sans-serif; fill: #000000; opacity: 1;">3.0</text><text x="220.42255892255892" y="9" text-anchor="middle" dy=".9em" style="font-style: normal; font-variant: normal; font-weight: normal; font-size: 11px; line-height: normal; font-family: sans-serif; fill: #000000; opacity: 1;">3.5</text><text x="271.0959595959596" y="9" text-anchor="middle" dy=".9em" style="font-style: normal; font-variant: normal; font-weight: normal; font-size: 11px; line-height: normal; font-family: sans-serif; fill: #000000; opacity: 1;">4.0</text><text x="321.76936026936033" y="9" text-anchor="middle" dy=".9em" style="font-style: normal; font-variant: normal; font-weight: normal; font-size: 11px; line-height: normal; font-family: sans-serif; fill: #000000; opacity: 1;">4.5</text><text x="372.44276094276097" y="9" text-anchor="middle" dy=".9em" style="font-style: normal; font-variant: normal; font-weight: normal; font-size: 11px; line-height: normal; font-family: sans-serif; fill: #000000; opacity: 1;">5.0</text><text x="423.11616161616166" y="9" text-anchor="middle" dy=".9em" style="font-style: normal; font-variant: normal; font-weight: normal; font-size: 11px; line-height: normal; font-family: sans-serif; fill: #000000; opacity: 1;">5.5</text><text x="473.7895622895623" y="9" text-anchor="middle" dy=".9em" style="font-style: normal; font-variant: normal; font-weight: normal; font-size: 11px; line-height: normal; font-family: sans-serif; fill: #000000; opacity: 1;">6.0</text><text x="524.462962962963" y="9" text-anchor="middle" dy=".9em" style="font-style: normal; font-variant: normal; font-weight: normal; font-size: 11px; line-height: normal; font-family: sans-serif; fill: #000000; opacity: 1;">6.5</text><text x="575.1363636363636" y="9" text-anchor="middle" dy=".9em" style="font-style: normal; font-variant: normal; font-weight: normal; font-size: 11px; line-height: normal; font-family: sans-serif; fill: #000000; opacity: 1;">7.0</text></g><g id="g23" class="type-path" style="pointer-events: none;"><path transform="translate(0.5,0.5)" d="M0,6V0H602V6" style="fill: none; stroke: #000000; stroke-width: 1px;"></path></g><g id="g24" class="type-text"><text x="301" y="35" text-anchor="middle" dy=".35em" style="font-weight: bold; font-style: normal; font-variant: normal; font-size: 11px; line-height: normal; font-family: sans-serif; fill: #000000;">displ</text></g></g></g><g id="g25" class="type-group"><g transform="translate(0,0)"><rect class="background" width="0" height="0" style="pointer-events: none; fill: none;"></rect><g id="g26" class="type-rule" style="pointer-events: none;"><line x1="0" y1="303.0227272727273" x2="602" y2="303.0227272727273" style="fill: none; stroke: #d8d8d8; stroke-width: 1px; opacity: 1;"></line><line x1="0" y1="253.5909090909091" x2="602" y2="253.5909090909091" style="fill: none; stroke: #d8d8d8; stroke-width: 1px; opacity: 1;"></line><line x1="0" y1="204.1590909090909" x2="602" y2="204.1590909090909" style="fill: none; stroke: #d8d8d8; stroke-width: 1px; opacity: 1;"></line><line x1="0" y1="154.72727272727275" x2="602" y2="154.72727272727275" style="fill: none; stroke: #d8d8d8; stroke-width: 1px; opacity: 1;"></line><line x1="0" y1="105.29545454545455" x2="602" y2="105.29545454545455" style="fill: none; stroke: #d8d8d8; stroke-width: 1px; opacity: 1;"></line><line x1="0" y1="55.86363636363639" x2="602" y2="55.86363636363639" style="fill: none; stroke: #d8d8d8; stroke-width: 1px; opacity: 1;"></line><line x1="0" y1="6.431818181818196" x2="602" y2="6.431818181818196" style="fill: none; stroke: #d8d8d8; stroke-width: 1px; opacity: 1;"></line></g><g id="g27" class="type-rule" style="pointer-events: none;"><line x1="-6" y1="303.0227272727273" x2="0" y2="303.0227272727273" style="fill: none; stroke: #000000; stroke-width: 1px; opacity: 1;"></line><line x1="-6" y1="253.5909090909091" x2="0" y2="253.5909090909091" style="fill: none; stroke: #000000; stroke-width: 1px; opacity: 1;"></line><line x1="-6" y1="204.1590909090909" x2="0" y2="204.1590909090909" style="fill: none; stroke: #000000; stroke-width: 1px; opacity: 1;"></line><line x1="-6" y1="154.72727272727275" x2="0" y2="154.72727272727275" style="fill: none; stroke: #000000; stroke-width: 1px; opacity: 1;"></line><line x1="-6" y1="105.29545454545455" x2="0" y2="105.29545454545455" style="fill: none; stroke: #000000; stroke-width: 1px; opacity: 1;"></line><line x1="-6" y1="55.86363636363639" x2="0" y2="55.86363636363639" style="fill: none; stroke: #000000; stroke-width: 1px; opacity: 1;"></line><line x1="-6" y1="6.431818181818196" x2="0" y2="6.431818181818196" style="fill: none; stroke: #000000; stroke-width: 1px; opacity: 1;"></line></g><g id="g28" class="type-rule" style="pointer-events: none;"></g><g id="g29" class="type-text"><text x="-9" y="303.0227272727273" text-anchor="end" dy=".35em" style="font-style: normal; font-variant: normal; font-weight: normal; font-size: 11px; line-height: normal; font-family: sans-serif; fill: #000000; opacity: 1;">15</text><text x="-9" y="253.5909090909091" text-anchor="end" dy=".35em" style="font-style: normal; font-variant: normal; font-weight: normal; font-size: 11px; line-height: normal; font-family: sans-serif; fill: #000000; opacity: 1;">20</text><text x="-9" y="204.1590909090909" text-anchor="end" dy=".35em" style="font-style: normal; font-variant: normal; font-weight: normal; font-size: 11px; line-height: normal; font-family: sans-serif; fill: #000000; opacity: 1;">25</text><text x="-9" y="154.72727272727275" text-anchor="end" dy=".35em" style="font-style: normal; font-variant: normal; font-weight: normal; font-size: 11px; line-height: normal; font-family: sans-serif; fill: #000000; opacity: 1;">30</text><text x="-9" y="105.29545454545455" text-anchor="end" dy=".35em" style="font-style: normal; font-variant: normal; font-weight: normal; font-size: 11px; line-height: normal; font-family: sans-serif; fill: #000000; opacity: 1;">35</text><text x="-9" y="55.86363636363639" text-anchor="end" dy=".35em" style="font-style: normal; font-variant: normal; font-weight: normal; font-size: 11px; line-height: normal; font-family: sans-serif; fill: #000000; opacity: 1;">40</text><text x="-9" y="6.431818181818196" text-anchor="end" dy=".35em" style="font-style: normal; font-variant: normal; font-weight: normal; font-size: 11px; line-height: normal; font-family: sans-serif; fill: #000000; opacity: 1;">45</text></g><g id="g30" class="type-path" style="pointer-events: none;"><path transform="translate(0.5,0.5)" d="M-6,0H0V348H-6" style="fill: none; stroke: #000000; stroke-width: 1px;"></path></g><g id="g31" class="type-text"><text x="-35" y="174" text-anchor="middle" transform="rotate(-90 -35,174)" dy=".35em" style="font-weight: bold; font-style: normal; font-variant: normal; font-size: 11px; line-height: normal; font-family: sans-serif; fill: #000000;">hwy</text></g></g></g><g id="g32" class="type-symbol"><path transform="translate(47.63299663299664,164.11363636363635)" d="M0,3.989422804014327A3.989422804014327,3.989422804014327 0 1,1 0,-3.989422804014327A3.989422804014327,3.989422804014327 0 1,1 0,3.989422804014327Z" style="fill: #000000;"></path><path transform="translate(47.63299663299664,164.11363636363635)" d="M0,3.989422804014327A3.989422804014327,3.989422804014327 0 1,1 0,-3.989422804014327A3.989422804014327,3.989422804014327 0 1,1 0,3.989422804014327Z" style="fill: #000000;"></path><path transform="translate(67.9023569023569,144.3409090909091)" d="M0,3.989422804014327A3.989422804014327,3.989422804014327 0 1,1 0,-3.989422804014327A3.989422804014327,3.989422804014327 0 1,1 0,3.989422804014327Z" style="fill: #000000;"></path><path transform="translate(67.9023569023569,154.22727272727275)" d="M0,3.989422804014327A3.989422804014327,3.989422804014327 0 1,1 0,-3.989422804014327A3.989422804014327,3.989422804014327 0 1,1 0,3.989422804014327Z" style="fill: #000000;"></path><path transform="translate(148.97979797979798,193.77272727272728)" d="M0,3.989422804014327A3.989422804014327,3.989422804014327 0 1,1 0,-3.989422804014327A3.989422804014327,3.989422804014327 0 1,1 0,3.989422804014327Z" style="fill: #000000;"></path><path transform="translate(148.97979797979798,193.77272727272728)" d="M0,3.989422804014327A3.989422804014327,3.989422804014327 0 1,1 0,-3.989422804014327A3.989422804014327,3.989422804014327 0 1,1 0,3.989422804014327Z" style="fill: #000000;"></path><path transform="translate(179.3838383838384,183.8863636363636)" d="M0,3.989422804014327A3.989422804014327,3.989422804014327 0 1,1 0,-3.989422804014327A3.989422804014327,3.989422804014327 0 1,1 0,3.989422804014327Z" style="fill: #000000;"></path><path transform="translate(47.63299663299664,193.77272727272728)" d="M0,3.989422804014327A3.989422804014327,3.989422804014327 0 1,1 0,-3.989422804014327A3.989422804014327,3.989422804014327 0 1,1 0,3.989422804014327Z" style="fill: #000000;"></path><path transform="translate(47.63299663299664,203.6590909090909)" d="M0,3.989422804014327A3.989422804014327,3.989422804014327 0 1,1 0,-3.989422804014327A3.989422804014327,3.989422804014327 0 1,1 0,3.989422804014327Z" style="fill: #000000;"></path><path transform="translate(67.9023569023569,174)" d="M0,3.989422804014327A3.989422804014327,3.989422804014327 0 1,1 0,-3.989422804014327A3.989422804014327,3.989422804014327 0 1,1 0,3.989422804014327Z" style="fill: #000000;"></path><path transform="translate(67.9023569023569,183.8863636363636)" d="M0,3.989422804014327A3.989422804014327,3.989422804014327 0 1,1 0,-3.989422804014327A3.989422804014327,3.989422804014327 0 1,1 0,3.989422804014327Z" style="fill: #000000;"></path><path transform="translate(148.97979797979798,203.6590909090909)" d="M0,3.989422804014327A3.989422804014327,3.989422804014327 0 1,1 0,-3.989422804014327A3.989422804014327,3.989422804014327 0 1,1 0,3.989422804014327Z" style="fill: #000000;"></path><path transform="translate(148.97979797979798,203.6590909090909)" d="M0,3.989422804014327A3.989422804014327,3.989422804014327 0 1,1 0,-3.989422804014327A3.989422804014327,3.989422804014327 0 1,1 0,3.989422804014327Z" style="fill: #000000;"></path><path transform="translate(179.3838383838384,203.6590909090909)" d="M0,3.989422804014327A3.989422804014327,3.989422804014327 0 1,1 0,-3.989422804014327A3.989422804014327,3.989422804014327 0 1,1 0,3.989422804014327Z" style="fill: #000000;"></path><path transform="translate(179.3838383838384,203.6590909090909)" d="M0,3.989422804014327A3.989422804014327,3.989422804014327 0 1,1 0,-3.989422804014327A3.989422804014327,3.989422804014327 0 1,1 0,3.989422804014327Z" style="fill: #000000;"></path><path transform="translate(148.97979797979798,213.5454545454546)" d="M0,3.989422804014327A3.989422804014327,3.989422804014327 0 1,1 0,-3.989422804014327A3.989422804014327,3.989422804014327 0 1,1 0,3.989422804014327Z" style="fill: #000000;"></path><path transform="translate(179.3838383838384,203.6590909090909)" d="M0,3.989422804014327A3.989422804014327,3.989422804014327 0 1,1 0,-3.989422804014327A3.989422804014327,3.989422804014327 0 1,1 0,3.989422804014327Z" style="fill: #000000;"></path><path transform="translate(290.8653198653199,223.4318181818182)" d="M0,3.989422804014327A3.989422804014327,3.989422804014327 0 1,1 0,-3.989422804014327A3.989422804014327,3.989422804014327 0 1,1 0,3.989422804014327Z" style="fill: #000000;"></path><path transform="translate(402.3468013468013,253.0909090909091)" d="M0,3.989422804014327A3.989422804014327,3.989422804014327 0 1,1 0,-3.989422804014327A3.989422804014327,3.989422804014327 0 1,1 0,3.989422804014327Z" style="fill: #000000;"></path><path transform="translate(402.3468013468013,302.5227272727273)" d="M0,3.989422804014327A3.989422804014327,3.989422804014327 0 1,1 0,-3.989422804014327A3.989422804014327,3.989422804014327 0 1,1 0,3.989422804014327Z" style="fill: #000000;"></path><path transform="translate(402.3468013468013,253.0909090909091)" d="M0,3.989422804014327A3.989422804014327,3.989422804014327 0 1,1 0,-3.989422804014327A3.989422804014327,3.989422804014327 0 1,1 0,3.989422804014327Z" style="fill: #000000;"></path><path transform="translate(442.8855218855219,282.75)" d="M0,3.989422804014327A3.989422804014327,3.989422804014327 0 1,1 0,-3.989422804014327A3.989422804014327,3.989422804014327 0 1,1 0,3.989422804014327Z" style="fill: #000000;"></path><path transform="translate(473.2895622895623,282.75)" d="M0,3.989422804014327A3.989422804014327,3.989422804014327 0 1,1 0,-3.989422804014327A3.989422804014327,3.989422804014327 0 1,1 0,3.989422804014327Z" style="fill: #000000;"></path><path transform="translate(442.8855218855219,193.77272727272728)" d="M0,3.989422804014327A3.989422804014327,3.989422804014327 0 1,1 0,-3.989422804014327A3.989422804014327,3.989422804014327 0 1,1 0,3.989422804014327Z" style="fill: #000000;"></path><path transform="translate(442.8855218855219,223.4318181818182)" d="M0,3.989422804014327A3.989422804014327,3.989422804014327 0 1,1 0,-3.989422804014327A3.989422804014327,3.989422804014327 0 1,1 0,3.989422804014327Z" style="fill: #000000;"></path><path transform="translate(493.55892255892263,193.77272727272728)" d="M0,3.989422804014327A3.989422804014327,3.989422804014327 0 1,1 0,-3.989422804014327A3.989422804014327,3.989422804014327 0 1,1 0,3.989422804014327Z" style="fill: #000000;"></path><path transform="translate(493.55892255892263,203.6590909090909)" d="M0,3.989422804014327A3.989422804014327,3.989422804014327 0 1,1 0,-3.989422804014327A3.989422804014327,3.989422804014327 0 1,1 0,3.989422804014327Z" style="fill: #000000;"></path><path transform="translate(574.6363636363636,213.5454545454546)" d="M0,3.989422804014327A3.989422804014327,3.989422804014327 0 1,1 0,-3.989422804014327A3.989422804014327,3.989422804014327 0 1,1 0,3.989422804014327Z" style="fill: #000000;"></path><path transform="translate(402.3468013468013,262.97727272727275)" d="M0,3.989422804014327A3.989422804014327,3.989422804014327 0 1,1 0,-3.989422804014327A3.989422804014327,3.989422804014327 0 1,1 0,3.989422804014327Z" style="fill: #000000;"></path><path transform="translate(402.3468013468013,312.4090909090909)" d="M0,3.989422804014327A3.989422804014327,3.989422804014327 0 1,1 0,-3.989422804014327A3.989422804014327,3.989422804014327 0 1,1 0,3.989422804014327Z" style="fill: #000000;"></path><path transform="translate(442.8855218855219,302.5227272727273)" d="M0,3.989422804014327A3.989422804014327,3.989422804014327 0 1,1 0,-3.989422804014327A3.989422804014327,3.989422804014327 0 1,1 0,3.989422804014327Z" style="fill: #000000;"></path><path transform="translate(523.962962962963,282.75)" d="M0,3.989422804014327A3.989422804014327,3.989422804014327 0 1,1 0,-3.989422804014327A3.989422804014327,3.989422804014327 0 1,1 0,3.989422804014327Z" style="fill: #000000;"></path><path transform="translate(108.44107744107743,183.8863636363636)" d="M0,3.989422804014327A3.989422804014327,3.989422804014327 0 1,1 0,-3.989422804014327A3.989422804014327,3.989422804014327 0 1,1 0,3.989422804014327Z" style="fill: #000000;"></path><path transform="translate(108.44107744107743,154.22727272727275)" d="M0,3.989422804014327A3.989422804014327,3.989422804014327 0 1,1 0,-3.989422804014327A3.989422804014327,3.989422804014327 0 1,1 0,3.989422804014327Z" style="fill: #000000;"></path><path transform="translate(179.3838383838384,193.77272727272728)" d="M0,3.989422804014327A3.989422804014327,3.989422804014327 0 1,1 0,-3.989422804014327A3.989422804014327,3.989422804014327 0 1,1 0,3.989422804014327Z" style="fill: #000000;"></path><path transform="translate(219.92255892255892,164.11363636363635)" d="M0,3.989422804014327A3.989422804014327,3.989422804014327 0 1,1 0,-3.989422804014327A3.989422804014327,3.989422804014327 0 1,1 0,3.989422804014327Z" style="fill: #000000;"></path><path transform="translate(230.0572390572391,193.77272727272728)" d="M0,3.989422804014327A3.989422804014327,3.989422804014327 0 1,1 0,-3.989422804014327A3.989422804014327,3.989422804014327 0 1,1 0,3.989422804014327Z" style="fill: #000000;"></path><path transform="translate(108.44107744107743,213.5454545454546)" d="M0,3.989422804014327A3.989422804014327,3.989422804014327 0 1,1 0,-3.989422804014327A3.989422804014327,3.989422804014327 0 1,1 0,3.989422804014327Z" style="fill: #000000;"></path><path transform="translate(169.24915824915826,213.5454545454546)" d="M0,3.989422804014327A3.989422804014327,3.989422804014327 0 1,1 0,-3.989422804014327A3.989422804014327,3.989422804014327 0 1,1 0,3.989422804014327Z" style="fill: #000000;"></path><path transform="translate(199.65319865319864,233.3181818181818)" d="M0,3.989422804014327A3.989422804014327,3.989422804014327 0 1,1 0,-3.989422804014327A3.989422804014327,3.989422804014327 0 1,1 0,3.989422804014327Z" style="fill: #000000;"></path><path transform="translate(199.65319865319864,233.3181818181818)" d="M0,3.989422804014327A3.989422804014327,3.989422804014327 0 1,1 0,-3.989422804014327A3.989422804014327,3.989422804014327 0 1,1 0,3.989422804014327Z" style="fill: #000000;"></path><path transform="translate(199.65319865319864,213.5454545454546)" d="M0,3.989422804014327A3.989422804014327,3.989422804014327 0 1,1 0,-3.989422804014327A3.989422804014327,3.989422804014327 0 1,1 0,3.989422804014327Z" style="fill: #000000;"></path><path transform="translate(199.65319865319864,213.5454545454546)" d="M0,3.989422804014327A3.989422804014327,3.989422804014327 0 1,1 0,-3.989422804014327A3.989422804014327,3.989422804014327 0 1,1 0,3.989422804014327Z" style="fill: #000000;"></path><path transform="translate(199.65319865319864,282.75)" d="M0,3.989422804014327A3.989422804014327,3.989422804014327 0 1,1 0,-3.989422804014327A3.989422804014327,3.989422804014327 0 1,1 0,3.989422804014327Z" style="fill: #000000;"></path><path transform="translate(250.32659932659934,233.3181818181818)" d="M0,3.989422804014327A3.989422804014327,3.989422804014327 0 1,1 0,-3.989422804014327A3.989422804014327,3.989422804014327 0 1,1 0,3.989422804014327Z" style="fill: #000000;"></path><path transform="translate(250.32659932659934,243.2045454545455)" d="M0,3.989422804014327A3.989422804014327,3.989422804014327 0 1,1 0,-3.989422804014327A3.989422804014327,3.989422804014327 0 1,1 0,3.989422804014327Z" style="fill: #000000;"></path><path transform="translate(250.32659932659934,223.4318181818182)" d="M0,3.989422804014327A3.989422804014327,3.989422804014327 0 1,1 0,-3.989422804014327A3.989422804014327,3.989422804014327 0 1,1 0,3.989422804014327Z" style="fill: #000000;"></path><path transform="translate(270.5959595959596,223.4318181818182)" d="M0,3.989422804014327A3.989422804014327,3.989422804014327 0 1,1 0,-3.989422804014327A3.989422804014327,3.989422804014327 0 1,1 0,3.989422804014327Z" style="fill: #000000;"></path><path transform="translate(240.19191919191923,262.97727272727275)" d="M0,3.989422804014327A3.989422804014327,3.989422804014327 0 1,1 0,-3.989422804014327A3.989422804014327,3.989422804014327 0 1,1 0,3.989422804014327Z" style="fill: #000000;"></path><path transform="translate(240.19191919191923,272.8636363636364)" d="M0,3.989422804014327A3.989422804014327,3.989422804014327 0 1,1 0,-3.989422804014327A3.989422804014327,3.989422804014327 0 1,1 0,3.989422804014327Z" style="fill: #000000;"></path><path transform="translate(260.4612794612795,282.75)" d="M0,3.989422804014327A3.989422804014327,3.989422804014327 0 1,1 0,-3.989422804014327A3.989422804014327,3.989422804014327 0 1,1 0,3.989422804014327Z" style="fill: #000000;"></path><path transform="translate(260.4612794612795,282.75)" d="M0,3.989422804014327A3.989422804014327,3.989422804014327 0 1,1 0,-3.989422804014327A3.989422804014327,3.989422804014327 0 1,1 0,3.989422804014327Z" style="fill: #000000;"></path><path transform="translate(341.53872053872055,262.97727272727275)" d="M0,3.989422804014327A3.989422804014327,3.989422804014327 0 1,1 0,-3.989422804014327A3.989422804014327,3.989422804014327 0 1,1 0,3.989422804014327Z" style="fill: #000000;"></path><path transform="translate(341.53872053872055,262.97727272727275)" d="M0,3.989422804014327A3.989422804014327,3.989422804014327 0 1,1 0,-3.989422804014327A3.989422804014327,3.989422804014327 0 1,1 0,3.989422804014327Z" style="fill: #000000;"></path><path transform="translate(341.53872053872055,332.1818181818182)" d="M0,3.989422804014327A3.989422804014327,3.989422804014327 0 1,1 0,-3.989422804014327A3.989422804014327,3.989422804014327 0 1,1 0,3.989422804014327Z" style="fill: #000000;"></path><path transform="translate(392.21212121212125,282.75)" d="M0,3.989422804014327A3.989422804014327,3.989422804014327 0 1,1 0,-3.989422804014327A3.989422804014327,3.989422804014327 0 1,1 0,3.989422804014327Z" style="fill: #000000;"></path><path transform="translate(392.21212121212125,302.5227272727273)" d="M0,3.989422804014327A3.989422804014327,3.989422804014327 0 1,1 0,-3.989422804014327A3.989422804014327,3.989422804014327 0 1,1 0,3.989422804014327Z" style="fill: #000000;"></path><path transform="translate(260.4612794612795,282.75)" d="M0,3.989422804014327A3.989422804014327,3.989422804014327 0 1,1 0,-3.989422804014327A3.989422804014327,3.989422804014327 0 1,1 0,3.989422804014327Z" style="fill: #000000;"></path><path transform="translate(341.53872053872055,282.75)" d="M0,3.989422804014327A3.989422804014327,3.989422804014327 0 1,1 0,-3.989422804014327A3.989422804014327,3.989422804014327 0 1,1 0,3.989422804014327Z" style="fill: #000000;"></path><path transform="translate(341.53872053872055,332.1818181818182)" d="M0,3.989422804014327A3.989422804014327,3.989422804014327 0 1,1 0,-3.989422804014327A3.989422804014327,3.989422804014327 0 1,1 0,3.989422804014327Z" style="fill: #000000;"></path><path transform="translate(341.53872053872055,282.75)" d="M0,3.989422804014327A3.989422804014327,3.989422804014327 0 1,1 0,-3.989422804014327A3.989422804014327,3.989422804014327 0 1,1 0,3.989422804014327Z" style="fill: #000000;"></path><path transform="translate(392.21212121212125,292.6363636363636)" d="M0,3.989422804014327A3.989422804014327,3.989422804014327 0 1,1 0,-3.989422804014327A3.989422804014327,3.989422804014327 0 1,1 0,3.989422804014327Z" style="fill: #000000;"></path><path transform="translate(442.8855218855219,272.8636363636364)" d="M0,3.989422804014327A3.989422804014327,3.989422804014327 0 1,1 0,-3.989422804014327A3.989422804014327,3.989422804014327 0 1,1 0,3.989422804014327Z" style="fill: #000000;"></path><path transform="translate(463.1548821548822,302.5227272727273)" d="M0,3.989422804014327A3.989422804014327,3.989422804014327 0 1,1 0,-3.989422804014327A3.989422804014327,3.989422804014327 0 1,1 0,3.989422804014327Z" style="fill: #000000;"></path><path transform="translate(341.53872053872055,292.6363636363636)" d="M0,3.989422804014327A3.989422804014327,3.989422804014327 0 1,1 0,-3.989422804014327A3.989422804014327,3.989422804014327 0 1,1 0,3.989422804014327Z" style="fill: #000000;"></path><path transform="translate(341.53872053872055,332.1818181818182)" d="M0,3.989422804014327A3.989422804014327,3.989422804014327 0 1,1 0,-3.989422804014327A3.989422804014327,3.989422804014327 0 1,1 0,3.989422804014327Z" style="fill: #000000;"></path><path transform="translate(341.53872053872055,282.75)" d="M0,3.989422804014327A3.989422804014327,3.989422804014327 0 1,1 0,-3.989422804014327A3.989422804014327,3.989422804014327 0 1,1 0,3.989422804014327Z" style="fill: #000000;"></path><path transform="translate(341.53872053872055,282.75)" d="M0,3.989422804014327A3.989422804014327,3.989422804014327 0 1,1 0,-3.989422804014327A3.989422804014327,3.989422804014327 0 1,1 0,3.989422804014327Z" style="fill: #000000;"></path><path transform="translate(341.53872053872055,292.6363636363636)" d="M0,3.989422804014327A3.989422804014327,3.989422804014327 0 1,1 0,-3.989422804014327A3.989422804014327,3.989422804014327 0 1,1 0,3.989422804014327Z" style="fill: #000000;"></path><path transform="translate(341.53872053872055,332.1818181818182)" d="M0,3.989422804014327A3.989422804014327,3.989422804014327 0 1,1 0,-3.989422804014327A3.989422804014327,3.989422804014327 0 1,1 0,3.989422804014327Z" style="fill: #000000;"></path><path transform="translate(392.21212121212125,302.5227272727273)" d="M0,3.989422804014327A3.989422804014327,3.989422804014327 0 1,1 0,-3.989422804014327A3.989422804014327,3.989422804014327 0 1,1 0,3.989422804014327Z" style="fill: #000000;"></path><path transform="translate(392.21212121212125,292.6363636363636)" d="M0,3.989422804014327A3.989422804014327,3.989422804014327 0 1,1 0,-3.989422804014327A3.989422804014327,3.989422804014327 0 1,1 0,3.989422804014327Z" style="fill: #000000;"></path><path transform="translate(442.8855218855219,282.75)" d="M0,3.989422804014327A3.989422804014327,3.989422804014327 0 1,1 0,-3.989422804014327A3.989422804014327,3.989422804014327 0 1,1 0,3.989422804014327Z" style="fill: #000000;"></path><path transform="translate(463.1548821548822,302.5227272727273)" d="M0,3.989422804014327A3.989422804014327,3.989422804014327 0 1,1 0,-3.989422804014327A3.989422804014327,3.989422804014327 0 1,1 0,3.989422804014327Z" style="fill: #000000;"></path><path transform="translate(331.4040404040404,282.75)" d="M0,3.989422804014327A3.989422804014327,3.989422804014327 0 1,1 0,-3.989422804014327A3.989422804014327,3.989422804014327 0 1,1 0,3.989422804014327Z" style="fill: #000000;"></path><path transform="translate(412.4814814814816,282.75)" d="M0,3.989422804014327A3.989422804014327,3.989422804014327 0 1,1 0,-3.989422804014327A3.989422804014327,3.989422804014327 0 1,1 0,3.989422804014327Z" style="fill: #000000;"></path><path transform="translate(412.4814814814816,272.8636363636364)" d="M0,3.989422804014327A3.989422804014327,3.989422804014327 0 1,1 0,-3.989422804014327A3.989422804014327,3.989422804014327 0 1,1 0,3.989422804014327Z" style="fill: #000000;"></path><path transform="translate(270.5959595959596,282.75)" d="M0,3.989422804014327A3.989422804014327,3.989422804014327 0 1,1 0,-3.989422804014327A3.989422804014327,3.989422804014327 0 1,1 0,3.989422804014327Z" style="fill: #000000;"></path><path transform="translate(270.5959595959596,262.97727272727275)" d="M0,3.989422804014327A3.989422804014327,3.989422804014327 0 1,1 0,-3.989422804014327A3.989422804014327,3.989422804014327 0 1,1 0,3.989422804014327Z" style="fill: #000000;"></path><path transform="translate(270.5959595959596,282.75)" d="M0,3.989422804014327A3.989422804014327,3.989422804014327 0 1,1 0,-3.989422804014327A3.989422804014327,3.989422804014327 0 1,1 0,3.989422804014327Z" style="fill: #000000;"></path><path transform="translate(270.5959595959596,262.97727272727275)" d="M0,3.989422804014327A3.989422804014327,3.989422804014327 0 1,1 0,-3.989422804014327A3.989422804014327,3.989422804014327 0 1,1 0,3.989422804014327Z" style="fill: #000000;"></path><path transform="translate(331.4040404040404,262.97727272727275)" d="M0,3.989422804014327A3.989422804014327,3.989422804014327 0 1,1 0,-3.989422804014327A3.989422804014327,3.989422804014327 0 1,1 0,3.989422804014327Z" style="fill: #000000;"></path><path transform="translate(371.94276094276097,282.75)" d="M0,3.989422804014327A3.989422804014327,3.989422804014327 0 1,1 0,-3.989422804014327A3.989422804014327,3.989422804014327 0 1,1 0,3.989422804014327Z" style="fill: #000000;"></path><path transform="translate(290.8653198653199,282.75)" d="M0,3.989422804014327A3.989422804014327,3.989422804014327 0 1,1 0,-3.989422804014327A3.989422804014327,3.989422804014327 0 1,1 0,3.989422804014327Z" style="fill: #000000;"></path><path transform="translate(290.8653198653199,282.75)" d="M0,3.989422804014327A3.989422804014327,3.989422804014327 0 1,1 0,-3.989422804014327A3.989422804014327,3.989422804014327 0 1,1 0,3.989422804014327Z" style="fill: #000000;"></path><path transform="translate(331.4040404040404,292.6363636363636)" d="M0,3.989422804014327A3.989422804014327,3.989422804014327 0 1,1 0,-3.989422804014327A3.989422804014327,3.989422804014327 0 1,1 0,3.989422804014327Z" style="fill: #000000;"></path><path transform="translate(331.4040404040404,292.6363636363636)" d="M0,3.989422804014327A3.989422804014327,3.989422804014327 0 1,1 0,-3.989422804014327A3.989422804014327,3.989422804014327 0 1,1 0,3.989422804014327Z" style="fill: #000000;"></path><path transform="translate(331.4040404040404,282.75)" d="M0,3.989422804014327A3.989422804014327,3.989422804014327 0 1,1 0,-3.989422804014327A3.989422804014327,3.989422804014327 0 1,1 0,3.989422804014327Z" style="fill: #000000;"></path><path transform="translate(412.4814814814816,302.5227272727273)" d="M0,3.989422804014327A3.989422804014327,3.989422804014327 0 1,1 0,-3.989422804014327A3.989422804014327,3.989422804014327 0 1,1 0,3.989422804014327Z" style="fill: #000000;"></path><path transform="translate(412.4814814814816,282.75)" d="M0,3.989422804014327A3.989422804014327,3.989422804014327 0 1,1 0,-3.989422804014327A3.989422804014327,3.989422804014327 0 1,1 0,3.989422804014327Z" style="fill: #000000;"></path><path transform="translate(250.32659932659934,193.77272727272728)" d="M0,3.989422804014327A3.989422804014327,3.989422804014327 0 1,1 0,-3.989422804014327A3.989422804014327,3.989422804014327 0 1,1 0,3.989422804014327Z" style="fill: #000000;"></path><path transform="translate(250.32659932659934,203.6590909090909)" d="M0,3.989422804014327A3.989422804014327,3.989422804014327 0 1,1 0,-3.989422804014327A3.989422804014327,3.989422804014327 0 1,1 0,3.989422804014327Z" style="fill: #000000;"></path><path transform="translate(270.5959595959596,193.77272727272728)" d="M0,3.989422804014327A3.989422804014327,3.989422804014327 0 1,1 0,-3.989422804014327A3.989422804014327,3.989422804014327 0 1,1 0,3.989422804014327Z" style="fill: #000000;"></path><path transform="translate(270.5959595959596,213.5454545454546)" d="M0,3.989422804014327A3.989422804014327,3.989422804014327 0 1,1 0,-3.989422804014327A3.989422804014327,3.989422804014327 0 1,1 0,3.989422804014327Z" style="fill: #000000;"></path><path transform="translate(331.4040404040404,243.2045454545455)" d="M0,3.989422804014327A3.989422804014327,3.989422804014327 0 1,1 0,-3.989422804014327A3.989422804014327,3.989422804014327 0 1,1 0,3.989422804014327Z" style="fill: #000000;"></path><path transform="translate(331.4040404040404,233.3181818181818)" d="M0,3.989422804014327A3.989422804014327,3.989422804014327 0 1,1 0,-3.989422804014327A3.989422804014327,3.989422804014327 0 1,1 0,3.989422804014327Z" style="fill: #000000;"></path><path transform="translate(331.4040404040404,223.4318181818182)" d="M0,3.989422804014327A3.989422804014327,3.989422804014327 0 1,1 0,-3.989422804014327A3.989422804014327,3.989422804014327 0 1,1 0,3.989422804014327Z" style="fill: #000000;"></path><path transform="translate(331.4040404040404,233.3181818181818)" d="M0,3.989422804014327A3.989422804014327,3.989422804014327 0 1,1 0,-3.989422804014327A3.989422804014327,3.989422804014327 0 1,1 0,3.989422804014327Z" style="fill: #000000;"></path><path transform="translate(412.4814814814816,253.0909090909091)" d="M0,3.989422804014327A3.989422804014327,3.989422804014327 0 1,1 0,-3.989422804014327A3.989422804014327,3.989422804014327 0 1,1 0,3.989422804014327Z" style="fill: #000000;"></path><path transform="translate(27.363636363636367,124.5681818181818)" d="M0,3.989422804014327A3.989422804014327,3.989422804014327 0 1,1 0,-3.989422804014327A3.989422804014327,3.989422804014327 0 1,1 0,3.989422804014327Z" style="fill: #000000;"></path><path transform="translate(27.363636363636367,134.45454545454544)" d="M0,3.989422804014327A3.989422804014327,3.989422804014327 0 1,1 0,-3.989422804014327A3.989422804014327,3.989422804014327 0 1,1 0,3.989422804014327Z" style="fill: #000000;"></path><path transform="translate(27.363636363636367,134.45454545454544)" d="M0,3.989422804014327A3.989422804014327,3.989422804014327 0 1,1 0,-3.989422804014327A3.989422804014327,3.989422804014327 0 1,1 0,3.989422804014327Z" style="fill: #000000;"></path><path transform="translate(27.363636363636367,164.11363636363635)" d="M0,3.989422804014327A3.989422804014327,3.989422804014327 0 1,1 0,-3.989422804014327A3.989422804014327,3.989422804014327 0 1,1 0,3.989422804014327Z" style="fill: #000000;"></path><path transform="translate(27.363636363636367,134.45454545454544)" d="M0,3.989422804014327A3.989422804014327,3.989422804014327 0 1,1 0,-3.989422804014327A3.989422804014327,3.989422804014327 0 1,1 0,3.989422804014327Z" style="fill: #000000;"></path><path transform="translate(47.63299663299664,114.6818181818182)" d="M0,3.989422804014327A3.989422804014327,3.989422804014327 0 1,1 0,-3.989422804014327A3.989422804014327,3.989422804014327 0 1,1 0,3.989422804014327Z" style="fill: #000000;"></path><path transform="translate(47.63299663299664,94.9090909090909)" d="M0,3.989422804014327A3.989422804014327,3.989422804014327 0 1,1 0,-3.989422804014327A3.989422804014327,3.989422804014327 0 1,1 0,3.989422804014327Z" style="fill: #000000;"></path><path transform="translate(47.63299663299664,94.9090909090909)" d="M0,3.989422804014327A3.989422804014327,3.989422804014327 0 1,1 0,-3.989422804014327A3.989422804014327,3.989422804014327 0 1,1 0,3.989422804014327Z" style="fill: #000000;"></path><path transform="translate(67.9023569023569,164.11363636363635)" d="M0,3.989422804014327A3.989422804014327,3.989422804014327 0 1,1 0,-3.989422804014327A3.989422804014327,3.989422804014327 0 1,1 0,3.989422804014327Z" style="fill: #000000;"></path><path transform="translate(108.44107744107743,193.77272727272728)" d="M0,3.989422804014327A3.989422804014327,3.989422804014327 0 1,1 0,-3.989422804014327A3.989422804014327,3.989422804014327 0 1,1 0,3.989422804014327Z" style="fill: #000000;"></path><path transform="translate(108.44107744107743,183.8863636363636)" d="M0,3.989422804014327A3.989422804014327,3.989422804014327 0 1,1 0,-3.989422804014327A3.989422804014327,3.989422804014327 0 1,1 0,3.989422804014327Z" style="fill: #000000;"></path><path transform="translate(108.44107744107743,154.22727272727275)" d="M0,3.989422804014327A3.989422804014327,3.989422804014327 0 1,1 0,-3.989422804014327A3.989422804014327,3.989422804014327 0 1,1 0,3.989422804014327Z" style="fill: #000000;"></path><path transform="translate(108.44107744107743,144.3409090909091)" d="M0,3.989422804014327A3.989422804014327,3.989422804014327 0 1,1 0,-3.989422804014327A3.989422804014327,3.989422804014327 0 1,1 0,3.989422804014327Z" style="fill: #000000;"></path><path transform="translate(118.57575757575756,193.77272727272728)" d="M0,3.989422804014327A3.989422804014327,3.989422804014327 0 1,1 0,-3.989422804014327A3.989422804014327,3.989422804014327 0 1,1 0,3.989422804014327Z" style="fill: #000000;"></path><path transform="translate(118.57575757575756,193.77272727272728)" d="M0,3.989422804014327A3.989422804014327,3.989422804014327 0 1,1 0,-3.989422804014327A3.989422804014327,3.989422804014327 0 1,1 0,3.989422804014327Z" style="fill: #000000;"></path><path transform="translate(199.65319865319864,174)" d="M0,3.989422804014327A3.989422804014327,3.989422804014327 0 1,1 0,-3.989422804014327A3.989422804014327,3.989422804014327 0 1,1 0,3.989422804014327Z" style="fill: #000000;"></path><path transform="translate(67.9023569023569,193.77272727272728)" d="M0,3.989422804014327A3.989422804014327,3.989422804014327 0 1,1 0,-3.989422804014327A3.989422804014327,3.989422804014327 0 1,1 0,3.989422804014327Z" style="fill: #000000;"></path><path transform="translate(67.9023569023569,164.11363636363635)" d="M0,3.989422804014327A3.989422804014327,3.989422804014327 0 1,1 0,-3.989422804014327A3.989422804014327,3.989422804014327 0 1,1 0,3.989422804014327Z" style="fill: #000000;"></path><path transform="translate(67.9023569023569,174)" d="M0,3.989422804014327A3.989422804014327,3.989422804014327 0 1,1 0,-3.989422804014327A3.989422804014327,3.989422804014327 0 1,1 0,3.989422804014327Z" style="fill: #000000;"></path><path transform="translate(67.9023569023569,183.8863636363636)" d="M0,3.989422804014327A3.989422804014327,3.989422804014327 0 1,1 0,-3.989422804014327A3.989422804014327,3.989422804014327 0 1,1 0,3.989422804014327Z" style="fill: #000000;"></path><path transform="translate(138.84511784511787,213.5454545454546)" d="M0,3.989422804014327A3.989422804014327,3.989422804014327 0 1,1 0,-3.989422804014327A3.989422804014327,3.989422804014327 0 1,1 0,3.989422804014327Z" style="fill: #000000;"></path><path transform="translate(138.84511784511787,213.5454545454546)" d="M0,3.989422804014327A3.989422804014327,3.989422804014327 0 1,1 0,-3.989422804014327A3.989422804014327,3.989422804014327 0 1,1 0,3.989422804014327Z" style="fill: #000000;"></path><path transform="translate(138.84511784511787,213.5454545454546)" d="M0,3.989422804014327A3.989422804014327,3.989422804014327 0 1,1 0,-3.989422804014327A3.989422804014327,3.989422804014327 0 1,1 0,3.989422804014327Z" style="fill: #000000;"></path><path transform="translate(169.24915824915826,233.3181818181818)" d="M0,3.989422804014327A3.989422804014327,3.989422804014327 0 1,1 0,-3.989422804014327A3.989422804014327,3.989422804014327 0 1,1 0,3.989422804014327Z" style="fill: #000000;"></path><path transform="translate(240.19191919191923,262.97727272727275)" d="M0,3.989422804014327A3.989422804014327,3.989422804014327 0 1,1 0,-3.989422804014327A3.989422804014327,3.989422804014327 0 1,1 0,3.989422804014327Z" style="fill: #000000;"></path><path transform="translate(270.5959595959596,253.0909090909091)" d="M0,3.989422804014327A3.989422804014327,3.989422804014327 0 1,1 0,-3.989422804014327A3.989422804014327,3.989422804014327 0 1,1 0,3.989422804014327Z" style="fill: #000000;"></path><path transform="translate(341.53872053872055,282.75)" d="M0,3.989422804014327A3.989422804014327,3.989422804014327 0 1,1 0,-3.989422804014327A3.989422804014327,3.989422804014327 0 1,1 0,3.989422804014327Z" style="fill: #000000;"></path><path transform="translate(341.53872053872055,332.1818181818182)" d="M0,3.989422804014327A3.989422804014327,3.989422804014327 0 1,1 0,-3.989422804014327A3.989422804014327,3.989422804014327 0 1,1 0,3.989422804014327Z" style="fill: #000000;"></path><path transform="translate(341.53872053872055,262.97727272727275)" d="M0,3.989422804014327A3.989422804014327,3.989422804014327 0 1,1 0,-3.989422804014327A3.989422804014327,3.989422804014327 0 1,1 0,3.989422804014327Z" style="fill: #000000;"></path><path transform="translate(442.8855218855219,272.8636363636364)" d="M0,3.989422804014327A3.989422804014327,3.989422804014327 0 1,1 0,-3.989422804014327A3.989422804014327,3.989422804014327 0 1,1 0,3.989422804014327Z" style="fill: #000000;"></path><path transform="translate(483.4242424242424,312.4090909090909)" d="M0,3.989422804014327A3.989422804014327,3.989422804014327 0 1,1 0,-3.989422804014327A3.989422804014327,3.989422804014327 0 1,1 0,3.989422804014327Z" style="fill: #000000;"></path><path transform="translate(270.5959595959596,302.5227272727273)" d="M0,3.989422804014327A3.989422804014327,3.989422804014327 0 1,1 0,-3.989422804014327A3.989422804014327,3.989422804014327 0 1,1 0,3.989422804014327Z" style="fill: #000000;"></path><path transform="translate(290.8653198653199,272.8636363636364)" d="M0,3.989422804014327A3.989422804014327,3.989422804014327 0 1,1 0,-3.989422804014327A3.989422804014327,3.989422804014327 0 1,1 0,3.989422804014327Z" style="fill: #000000;"></path><path transform="translate(311.1346801346802,272.8636363636364)" d="M0,3.989422804014327A3.989422804014327,3.989422804014327 0 1,1 0,-3.989422804014327A3.989422804014327,3.989422804014327 0 1,1 0,3.989422804014327Z" style="fill: #000000;"></path><path transform="translate(331.4040404040404,302.5227272727273)" d="M0,3.989422804014327A3.989422804014327,3.989422804014327 0 1,1 0,-3.989422804014327A3.989422804014327,3.989422804014327 0 1,1 0,3.989422804014327Z" style="fill: #000000;"></path><path transform="translate(412.4814814814816,282.75)" d="M0,3.989422804014327A3.989422804014327,3.989422804014327 0 1,1 0,-3.989422804014327A3.989422804014327,3.989422804014327 0 1,1 0,3.989422804014327Z" style="fill: #000000;"></path><path transform="translate(412.4814814814816,292.6363636363636)" d="M0,3.989422804014327A3.989422804014327,3.989422804014327 0 1,1 0,-3.989422804014327A3.989422804014327,3.989422804014327 0 1,1 0,3.989422804014327Z" style="fill: #000000;"></path><path transform="translate(412.4814814814816,272.8636363636364)" d="M0,3.989422804014327A3.989422804014327,3.989422804014327 0 1,1 0,-3.989422804014327A3.989422804014327,3.989422804014327 0 1,1 0,3.989422804014327Z" style="fill: #000000;"></path><path transform="translate(270.5959595959596,282.75)" d="M0,3.989422804014327A3.989422804014327,3.989422804014327 0 1,1 0,-3.989422804014327A3.989422804014327,3.989422804014327 0 1,1 0,3.989422804014327Z" style="fill: #000000;"></path><path transform="translate(270.5959595959596,262.97727272727275)" d="M0,3.989422804014327A3.989422804014327,3.989422804014327 0 1,1 0,-3.989422804014327A3.989422804014327,3.989422804014327 0 1,1 0,3.989422804014327Z" style="fill: #000000;"></path><path transform="translate(331.4040404040404,262.97727272727275)" d="M0,3.989422804014327A3.989422804014327,3.989422804014327 0 1,1 0,-3.989422804014327A3.989422804014327,3.989422804014327 0 1,1 0,3.989422804014327Z" style="fill: #000000;"></path><path transform="translate(371.94276094276097,282.75)" d="M0,3.989422804014327A3.989422804014327,3.989422804014327 0 1,1 0,-3.989422804014327A3.989422804014327,3.989422804014327 0 1,1 0,3.989422804014327Z" style="fill: #000000;"></path><path transform="translate(108.44107744107743,164.11363636363635)" d="M0,3.989422804014327A3.989422804014327,3.989422804014327 0 1,1 0,-3.989422804014327A3.989422804014327,3.989422804014327 0 1,1 0,3.989422804014327Z" style="fill: #000000;"></path><path transform="translate(108.44107744107743,183.8863636363636)" d="M0,3.989422804014327A3.989422804014327,3.989422804014327 0 1,1 0,-3.989422804014327A3.989422804014327,3.989422804014327 0 1,1 0,3.989422804014327Z" style="fill: #000000;"></path><path transform="translate(118.57575757575756,144.3409090909091)" d="M0,3.989422804014327A3.989422804014327,3.989422804014327 0 1,1 0,-3.989422804014327A3.989422804014327,3.989422804014327 0 1,1 0,3.989422804014327Z" style="fill: #000000;"></path><path transform="translate(118.57575757575756,134.45454545454544)" d="M0,3.989422804014327A3.989422804014327,3.989422804014327 0 1,1 0,-3.989422804014327A3.989422804014327,3.989422804014327 0 1,1 0,3.989422804014327Z" style="fill: #000000;"></path><path transform="translate(219.92255892255892,183.8863636363636)" d="M0,3.989422804014327A3.989422804014327,3.989422804014327 0 1,1 0,-3.989422804014327A3.989422804014327,3.989422804014327 0 1,1 0,3.989422804014327Z" style="fill: #000000;"></path><path transform="translate(219.92255892255892,193.77272727272728)" d="M0,3.989422804014327A3.989422804014327,3.989422804014327 0 1,1 0,-3.989422804014327A3.989422804014327,3.989422804014327 0 1,1 0,3.989422804014327Z" style="fill: #000000;"></path><path transform="translate(169.24915824915826,193.77272727272728)" d="M0,3.989422804014327A3.989422804014327,3.989422804014327 0 1,1 0,-3.989422804014327A3.989422804014327,3.989422804014327 0 1,1 0,3.989422804014327Z" style="fill: #000000;"></path><path transform="translate(169.24915824915826,203.6590909090909)" d="M0,3.989422804014327A3.989422804014327,3.989422804014327 0 1,1 0,-3.989422804014327A3.989422804014327,3.989422804014327 0 1,1 0,3.989422804014327Z" style="fill: #000000;"></path><path transform="translate(219.92255892255892,203.6590909090909)" d="M0,3.989422804014327A3.989422804014327,3.989422804014327 0 1,1 0,-3.989422804014327A3.989422804014327,3.989422804014327 0 1,1 0,3.989422804014327Z" style="fill: #000000;"></path><path transform="translate(199.65319865319864,282.75)" d="M0,3.989422804014327A3.989422804014327,3.989422804014327 0 1,1 0,-3.989422804014327A3.989422804014327,3.989422804014327 0 1,1 0,3.989422804014327Z" style="fill: #000000;"></path><path transform="translate(199.65319865319864,282.75)" d="M0,3.989422804014327A3.989422804014327,3.989422804014327 0 1,1 0,-3.989422804014327A3.989422804014327,3.989422804014327 0 1,1 0,3.989422804014327Z" style="fill: #000000;"></path><path transform="translate(270.5959595959596,253.0909090909091)" d="M0,3.989422804014327A3.989422804014327,3.989422804014327 0 1,1 0,-3.989422804014327A3.989422804014327,3.989422804014327 0 1,1 0,3.989422804014327Z" style="fill: #000000;"></path><path transform="translate(432.75084175084174,272.8636363636364)" d="M0,3.989422804014327A3.989422804014327,3.989422804014327 0 1,1 0,-3.989422804014327A3.989422804014327,3.989422804014327 0 1,1 0,3.989422804014327Z" style="fill: #000000;"></path><path transform="translate(179.3838383838384,193.77272727272728)" d="M0,3.989422804014327A3.989422804014327,3.989422804014327 0 1,1 0,-3.989422804014327A3.989422804014327,3.989422804014327 0 1,1 0,3.989422804014327Z" style="fill: #000000;"></path><path transform="translate(250.32659932659934,193.77272727272728)" d="M0,3.989422804014327A3.989422804014327,3.989422804014327 0 1,1 0,-3.989422804014327A3.989422804014327,3.989422804014327 0 1,1 0,3.989422804014327Z" style="fill: #000000;"></path><path transform="translate(250.32659932659934,183.8863636363636)" d="M0,3.989422804014327A3.989422804014327,3.989422804014327 0 1,1 0,-3.989422804014327A3.989422804014327,3.989422804014327 0 1,1 0,3.989422804014327Z" style="fill: #000000;"></path><path transform="translate(250.32659932659934,174)" d="M0,3.989422804014327A3.989422804014327,3.989422804014327 0 1,1 0,-3.989422804014327A3.989422804014327,3.989422804014327 0 1,1 0,3.989422804014327Z" style="fill: #000000;"></path><path transform="translate(402.3468013468013,203.6590909090909)" d="M0,3.989422804014327A3.989422804014327,3.989422804014327 0 1,1 0,-3.989422804014327A3.989422804014327,3.989422804014327 0 1,1 0,3.989422804014327Z" style="fill: #000000;"></path><path transform="translate(118.57575757575756,203.6590909090909)" d="M0,3.989422804014327A3.989422804014327,3.989422804014327 0 1,1 0,-3.989422804014327A3.989422804014327,3.989422804014327 0 1,1 0,3.989422804014327Z" style="fill: #000000;"></path><path transform="translate(118.57575757575756,213.5454545454546)" d="M0,3.989422804014327A3.989422804014327,3.989422804014327 0 1,1 0,-3.989422804014327A3.989422804014327,3.989422804014327 0 1,1 0,3.989422804014327Z" style="fill: #000000;"></path><path transform="translate(118.57575757575756,183.8863636363636)" d="M0,3.989422804014327A3.989422804014327,3.989422804014327 0 1,1 0,-3.989422804014327A3.989422804014327,3.989422804014327 0 1,1 0,3.989422804014327Z" style="fill: #000000;"></path><path transform="translate(118.57575757575756,203.6590909090909)" d="M0,3.989422804014327A3.989422804014327,3.989422804014327 0 1,1 0,-3.989422804014327A3.989422804014327,3.989422804014327 0 1,1 0,3.989422804014327Z" style="fill: #000000;"></path><path transform="translate(118.57575757575756,193.77272727272728)" d="M0,3.989422804014327A3.989422804014327,3.989422804014327 0 1,1 0,-3.989422804014327A3.989422804014327,3.989422804014327 0 1,1 0,3.989422804014327Z" style="fill: #000000;"></path><path transform="translate(118.57575757575756,223.4318181818182)" d="M0,3.989422804014327A3.989422804014327,3.989422804014327 0 1,1 0,-3.989422804014327A3.989422804014327,3.989422804014327 0 1,1 0,3.989422804014327Z" style="fill: #000000;"></path><path transform="translate(88.17171717171719,193.77272727272728)" d="M0,3.989422804014327A3.989422804014327,3.989422804014327 0 1,1 0,-3.989422804014327A3.989422804014327,3.989422804014327 0 1,1 0,3.989422804014327Z" style="fill: #000000;"></path><path transform="translate(88.17171717171719,193.77272727272728)" d="M0,3.989422804014327A3.989422804014327,3.989422804014327 0 1,1 0,-3.989422804014327A3.989422804014327,3.989422804014327 0 1,1 0,3.989422804014327Z" style="fill: #000000;"></path><path transform="translate(118.57575757575756,193.77272727272728)" d="M0,3.989422804014327A3.989422804014327,3.989422804014327 0 1,1 0,-3.989422804014327A3.989422804014327,3.989422804014327 0 1,1 0,3.989422804014327Z" style="fill: #000000;"></path><path transform="translate(118.57575757575756,193.77272727272728)" d="M0,3.989422804014327A3.989422804014327,3.989422804014327 0 1,1 0,-3.989422804014327A3.989422804014327,3.989422804014327 0 1,1 0,3.989422804014327Z" style="fill: #000000;"></path><path transform="translate(118.57575757575756,203.6590909090909)" d="M0,3.989422804014327A3.989422804014327,3.989422804014327 0 1,1 0,-3.989422804014327A3.989422804014327,3.989422804014327 0 1,1 0,3.989422804014327Z" style="fill: #000000;"></path><path transform="translate(118.57575757575756,183.8863636363636)" d="M0,3.989422804014327A3.989422804014327,3.989422804014327 0 1,1 0,-3.989422804014327A3.989422804014327,3.989422804014327 0 1,1 0,3.989422804014327Z" style="fill: #000000;"></path><path transform="translate(118.57575757575756,203.6590909090909)" d="M0,3.989422804014327A3.989422804014327,3.989422804014327 0 1,1 0,-3.989422804014327A3.989422804014327,3.989422804014327 0 1,1 0,3.989422804014327Z" style="fill: #000000;"></path><path transform="translate(118.57575757575756,183.8863636363636)" d="M0,3.989422804014327A3.989422804014327,3.989422804014327 0 1,1 0,-3.989422804014327A3.989422804014327,3.989422804014327 0 1,1 0,3.989422804014327Z" style="fill: #000000;"></path><path transform="translate(138.84511784511787,253.0909090909091)" d="M0,3.989422804014327A3.989422804014327,3.989422804014327 0 1,1 0,-3.989422804014327A3.989422804014327,3.989422804014327 0 1,1 0,3.989422804014327Z" style="fill: #000000;"></path><path transform="translate(138.84511784511787,253.0909090909091)" d="M0,3.989422804014327A3.989422804014327,3.989422804014327 0 1,1 0,-3.989422804014327A3.989422804014327,3.989422804014327 0 1,1 0,3.989422804014327Z" style="fill: #000000;"></path><path transform="translate(209.7878787878788,262.97727272727275)" d="M0,3.989422804014327A3.989422804014327,3.989422804014327 0 1,1 0,-3.989422804014327A3.989422804014327,3.989422804014327 0 1,1 0,3.989422804014327Z" style="fill: #000000;"></path><path transform="translate(209.7878787878788,282.75)" d="M0,3.989422804014327A3.989422804014327,3.989422804014327 0 1,1 0,-3.989422804014327A3.989422804014327,3.989422804014327 0 1,1 0,3.989422804014327Z" style="fill: #000000;"></path><path transform="translate(270.5959595959596,253.0909090909091)" d="M0,3.989422804014327A3.989422804014327,3.989422804014327 0 1,1 0,-3.989422804014327A3.989422804014327,3.989422804014327 0 1,1 0,3.989422804014327Z" style="fill: #000000;"></path><path transform="translate(341.53872053872055,282.75)" d="M0,3.989422804014327A3.989422804014327,3.989422804014327 0 1,1 0,-3.989422804014327A3.989422804014327,3.989422804014327 0 1,1 0,3.989422804014327Z" style="fill: #000000;"></path><path transform="translate(88.17171717171719,164.11363636363635)" d="M0,3.989422804014327A3.989422804014327,3.989422804014327 0 1,1 0,-3.989422804014327A3.989422804014327,3.989422804014327 0 1,1 0,3.989422804014327Z" style="fill: #000000;"></path><path transform="translate(88.17171717171719,183.8863636363636)" d="M0,3.989422804014327A3.989422804014327,3.989422804014327 0 1,1 0,-3.989422804014327A3.989422804014327,3.989422804014327 0 1,1 0,3.989422804014327Z" style="fill: #000000;"></path><path transform="translate(108.44107744107743,144.3409090909091)" d="M0,3.989422804014327A3.989422804014327,3.989422804014327 0 1,1 0,-3.989422804014327A3.989422804014327,3.989422804014327 0 1,1 0,3.989422804014327Z" style="fill: #000000;"></path><path transform="translate(108.44107744107743,144.3409090909091)" d="M0,3.989422804014327A3.989422804014327,3.989422804014327 0 1,1 0,-3.989422804014327A3.989422804014327,3.989422804014327 0 1,1 0,3.989422804014327Z" style="fill: #000000;"></path><path transform="translate(169.24915824915826,193.77272727272728)" d="M0,3.989422804014327A3.989422804014327,3.989422804014327 0 1,1 0,-3.989422804014327A3.989422804014327,3.989422804014327 0 1,1 0,3.989422804014327Z" style="fill: #000000;"></path><path transform="translate(169.24915824915826,193.77272727272728)" d="M0,3.989422804014327A3.989422804014327,3.989422804014327 0 1,1 0,-3.989422804014327A3.989422804014327,3.989422804014327 0 1,1 0,3.989422804014327Z" style="fill: #000000;"></path><path transform="translate(219.92255892255892,174)" d="M0,3.989422804014327A3.989422804014327,3.989422804014327 0 1,1 0,-3.989422804014327A3.989422804014327,3.989422804014327 0 1,1 0,3.989422804014327Z" style="fill: #000000;"></path><path transform="translate(88.17171717171719,183.8863636363636)" d="M0,3.989422804014327A3.989422804014327,3.989422804014327 0 1,1 0,-3.989422804014327A3.989422804014327,3.989422804014327 0 1,1 0,3.989422804014327Z" style="fill: #000000;"></path><path transform="translate(88.17171717171719,164.11363636363635)" d="M0,3.989422804014327A3.989422804014327,3.989422804014327 0 1,1 0,-3.989422804014327A3.989422804014327,3.989422804014327 0 1,1 0,3.989422804014327Z" style="fill: #000000;"></path><path transform="translate(108.44107744107743,144.3409090909091)" d="M0,3.989422804014327A3.989422804014327,3.989422804014327 0 1,1 0,-3.989422804014327A3.989422804014327,3.989422804014327 0 1,1 0,3.989422804014327Z" style="fill: #000000;"></path><path transform="translate(108.44107744107743,144.3409090909091)" d="M0,3.989422804014327A3.989422804014327,3.989422804014327 0 1,1 0,-3.989422804014327A3.989422804014327,3.989422804014327 0 1,1 0,3.989422804014327Z" style="fill: #000000;"></path><path transform="translate(169.24915824915826,193.77272727272728)" d="M0,3.989422804014327A3.989422804014327,3.989422804014327 0 1,1 0,-3.989422804014327A3.989422804014327,3.989422804014327 0 1,1 0,3.989422804014327Z" style="fill: #000000;"></path><path transform="translate(169.24915824915826,193.77272727272728)" d="M0,3.989422804014327A3.989422804014327,3.989422804014327 0 1,1 0,-3.989422804014327A3.989422804014327,3.989422804014327 0 1,1 0,3.989422804014327Z" style="fill: #000000;"></path><path transform="translate(199.65319865319864,183.8863636363636)" d="M0,3.989422804014327A3.989422804014327,3.989422804014327 0 1,1 0,-3.989422804014327A3.989422804014327,3.989422804014327 0 1,1 0,3.989422804014327Z" style="fill: #000000;"></path><path transform="translate(47.63299663299664,154.22727272727275)" d="M0,3.989422804014327A3.989422804014327,3.989422804014327 0 1,1 0,-3.989422804014327A3.989422804014327,3.989422804014327 0 1,1 0,3.989422804014327Z" style="fill: #000000;"></path><path transform="translate(47.63299663299664,124.5681818181818)" d="M0,3.989422804014327A3.989422804014327,3.989422804014327 0 1,1 0,-3.989422804014327A3.989422804014327,3.989422804014327 0 1,1 0,3.989422804014327Z" style="fill: #000000;"></path><path transform="translate(47.63299663299664,104.79545454545455)" d="M0,3.989422804014327A3.989422804014327,3.989422804014327 0 1,1 0,-3.989422804014327A3.989422804014327,3.989422804014327 0 1,1 0,3.989422804014327Z" style="fill: #000000;"></path><path transform="translate(47.63299663299664,85.0227272727273)" d="M0,3.989422804014327A3.989422804014327,3.989422804014327 0 1,1 0,-3.989422804014327A3.989422804014327,3.989422804014327 0 1,1 0,3.989422804014327Z" style="fill: #000000;"></path><path transform="translate(47.63299663299664,104.79545454545455)" d="M0,3.989422804014327A3.989422804014327,3.989422804014327 0 1,1 0,-3.989422804014327A3.989422804014327,3.989422804014327 0 1,1 0,3.989422804014327Z" style="fill: #000000;"></path><path transform="translate(341.53872053872055,302.5227272727273)" d="M0,3.989422804014327A3.989422804014327,3.989422804014327 0 1,1 0,-3.989422804014327A3.989422804014327,3.989422804014327 0 1,1 0,3.989422804014327Z" style="fill: #000000;"></path><path transform="translate(442.8855218855219,272.8636363636364)" d="M0,3.989422804014327A3.989422804014327,3.989422804014327 0 1,1 0,-3.989422804014327A3.989422804014327,3.989422804014327 0 1,1 0,3.989422804014327Z" style="fill: #000000;"></path><path transform="translate(138.84511784511787,253.0909090909091)" d="M0,3.989422804014327A3.989422804014327,3.989422804014327 0 1,1 0,-3.989422804014327A3.989422804014327,3.989422804014327 0 1,1 0,3.989422804014327Z" style="fill: #000000;"></path><path transform="translate(138.84511784511787,253.0909090909091)" d="M0,3.989422804014327A3.989422804014327,3.989422804014327 0 1,1 0,-3.989422804014327A3.989422804014327,3.989422804014327 0 1,1 0,3.989422804014327Z" style="fill: #000000;"></path><path transform="translate(138.84511784511787,233.3181818181818)" d="M0,3.989422804014327A3.989422804014327,3.989422804014327 0 1,1 0,-3.989422804014327A3.989422804014327,3.989422804014327 0 1,1 0,3.989422804014327Z" style="fill: #000000;"></path><path transform="translate(209.7878787878788,282.75)" d="M0,3.989422804014327A3.989422804014327,3.989422804014327 0 1,1 0,-3.989422804014327A3.989422804014327,3.989422804014327 0 1,1 0,3.989422804014327Z" style="fill: #000000;"></path><path transform="translate(209.7878787878788,262.97727272727275)" d="M0,3.989422804014327A3.989422804014327,3.989422804014327 0 1,1 0,-3.989422804014327A3.989422804014327,3.989422804014327 0 1,1 0,3.989422804014327Z" style="fill: #000000;"></path><path transform="translate(270.5959595959596,272.8636363636364)" d="M0,3.989422804014327A3.989422804014327,3.989422804014327 0 1,1 0,-3.989422804014327A3.989422804014327,3.989422804014327 0 1,1 0,3.989422804014327Z" style="fill: #000000;"></path><path transform="translate(270.5959595959596,253.0909090909091)" d="M0,3.989422804014327A3.989422804014327,3.989422804014327 0 1,1 0,-3.989422804014327A3.989422804014327,3.989422804014327 0 1,1 0,3.989422804014327Z" style="fill: #000000;"></path><path transform="translate(67.9023569023569,164.11363636363635)" d="M0,3.989422804014327A3.989422804014327,3.989422804014327 0 1,1 0,-3.989422804014327A3.989422804014327,3.989422804014327 0 1,1 0,3.989422804014327Z" style="fill: #000000;"></path><path transform="translate(67.9023569023569,193.77272727272728)" d="M0,3.989422804014327A3.989422804014327,3.989422804014327 0 1,1 0,-3.989422804014327A3.989422804014327,3.989422804014327 0 1,1 0,3.989422804014327Z" style="fill: #000000;"></path><path transform="translate(67.9023569023569,164.11363636363635)" d="M0,3.989422804014327A3.989422804014327,3.989422804014327 0 1,1 0,-3.989422804014327A3.989422804014327,3.989422804014327 0 1,1 0,3.989422804014327Z" style="fill: #000000;"></path><path transform="translate(67.9023569023569,164.11363636363635)" d="M0,3.989422804014327A3.989422804014327,3.989422804014327 0 1,1 0,-3.989422804014327A3.989422804014327,3.989422804014327 0 1,1 0,3.989422804014327Z" style="fill: #000000;"></path><path transform="translate(148.97979797979798,213.5454545454546)" d="M0,3.989422804014327A3.989422804014327,3.989422804014327 0 1,1 0,-3.989422804014327A3.989422804014327,3.989422804014327 0 1,1 0,3.989422804014327Z" style="fill: #000000;"></path><path transform="translate(57.767676767676754,15.818181818181843)" d="M0,3.989422804014327A3.989422804014327,3.989422804014327 0 1,1 0,-3.989422804014327A3.989422804014327,3.989422804014327 0 1,1 0,3.989422804014327Z" style="fill: #000000;"></path><path transform="translate(67.9023569023569,164.11363636363635)" d="M0,3.989422804014327A3.989422804014327,3.989422804014327 0 1,1 0,-3.989422804014327A3.989422804014327,3.989422804014327 0 1,1 0,3.989422804014327Z" style="fill: #000000;"></path><path transform="translate(67.9023569023569,193.77272727272728)" d="M0,3.989422804014327A3.989422804014327,3.989422804014327 0 1,1 0,-3.989422804014327A3.989422804014327,3.989422804014327 0 1,1 0,3.989422804014327Z" style="fill: #000000;"></path><path transform="translate(67.9023569023569,164.11363636363635)" d="M0,3.989422804014327A3.989422804014327,3.989422804014327 0 1,1 0,-3.989422804014327A3.989422804014327,3.989422804014327 0 1,1 0,3.989422804014327Z" style="fill: #000000;"></path><path transform="translate(67.9023569023569,164.11363636363635)" d="M0,3.989422804014327A3.989422804014327,3.989422804014327 0 1,1 0,-3.989422804014327A3.989422804014327,3.989422804014327 0 1,1 0,3.989422804014327Z" style="fill: #000000;"></path><path transform="translate(118.57575757575756,164.11363636363635)" d="M0,3.989422804014327A3.989422804014327,3.989422804014327 0 1,1 0,-3.989422804014327A3.989422804014327,3.989422804014327 0 1,1 0,3.989422804014327Z" style="fill: #000000;"></path><path transform="translate(118.57575757575756,164.11363636363635)" d="M0,3.989422804014327A3.989422804014327,3.989422804014327 0 1,1 0,-3.989422804014327A3.989422804014327,3.989422804014327 0 1,1 0,3.989422804014327Z" style="fill: #000000;"></path><path transform="translate(148.97979797979798,223.4318181818182)" d="M0,3.989422804014327A3.989422804014327,3.989422804014327 0 1,1 0,-3.989422804014327A3.989422804014327,3.989422804014327 0 1,1 0,3.989422804014327Z" style="fill: #000000;"></path><path transform="translate(148.97979797979798,213.5454545454546)" d="M0,3.989422804014327A3.989422804014327,3.989422804014327 0 1,1 0,-3.989422804014327A3.989422804014327,3.989422804014327 0 1,1 0,3.989422804014327Z" style="fill: #000000;"></path><path transform="translate(57.767676767676754,15.818181818181843)" d="M0,3.989422804014327A3.989422804014327,3.989422804014327 0 1,1 0,-3.989422804014327A3.989422804014327,3.989422804014327 0 1,1 0,3.989422804014327Z" style="fill: #000000;"></path><path transform="translate(57.767676767676754,45.47727272727275)" d="M0,3.989422804014327A3.989422804014327,3.989422804014327 0 1,1 0,-3.989422804014327A3.989422804014327,3.989422804014327 0 1,1 0,3.989422804014327Z" style="fill: #000000;"></path><path transform="translate(67.9023569023569,164.11363636363635)" d="M0,3.989422804014327A3.989422804014327,3.989422804014327 0 1,1 0,-3.989422804014327A3.989422804014327,3.989422804014327 0 1,1 0,3.989422804014327Z" style="fill: #000000;"></path><path transform="translate(67.9023569023569,193.77272727272728)" d="M0,3.989422804014327A3.989422804014327,3.989422804014327 0 1,1 0,-3.989422804014327A3.989422804014327,3.989422804014327 0 1,1 0,3.989422804014327Z" style="fill: #000000;"></path><path transform="translate(118.57575757575756,174)" d="M0,3.989422804014327A3.989422804014327,3.989422804014327 0 1,1 0,-3.989422804014327A3.989422804014327,3.989422804014327 0 1,1 0,3.989422804014327Z" style="fill: #000000;"></path><path transform="translate(118.57575757575756,164.11363636363635)" d="M0,3.989422804014327A3.989422804014327,3.989422804014327 0 1,1 0,-3.989422804014327A3.989422804014327,3.989422804014327 0 1,1 0,3.989422804014327Z" style="fill: #000000;"></path><path transform="translate(47.63299663299664,164.11363636363635)" d="M0,3.989422804014327A3.989422804014327,3.989422804014327 0 1,1 0,-3.989422804014327A3.989422804014327,3.989422804014327 0 1,1 0,3.989422804014327Z" style="fill: #000000;"></path><path transform="translate(47.63299663299664,164.11363636363635)" d="M0,3.989422804014327A3.989422804014327,3.989422804014327 0 1,1 0,-3.989422804014327A3.989422804014327,3.989422804014327 0 1,1 0,3.989422804014327Z" style="fill: #000000;"></path><path transform="translate(67.9023569023569,174)" d="M0,3.989422804014327A3.989422804014327,3.989422804014327 0 1,1 0,-3.989422804014327A3.989422804014327,3.989422804014327 0 1,1 0,3.989422804014327Z" style="fill: #000000;"></path><path transform="translate(67.9023569023569,164.11363636363635)" d="M0,3.989422804014327A3.989422804014327,3.989422804014327 0 1,1 0,-3.989422804014327A3.989422804014327,3.989422804014327 0 1,1 0,3.989422804014327Z" style="fill: #000000;"></path><path transform="translate(148.97979797979798,193.77272727272728)" d="M0,3.989422804014327A3.989422804014327,3.989422804014327 0 1,1 0,-3.989422804014327A3.989422804014327,3.989422804014327 0 1,1 0,3.989422804014327Z" style="fill: #000000;"></path><path transform="translate(148.97979797979798,193.77272727272728)" d="M0,3.989422804014327A3.989422804014327,3.989422804014327 0 1,1 0,-3.989422804014327A3.989422804014327,3.989422804014327 0 1,1 0,3.989422804014327Z" style="fill: #000000;"></path><path transform="translate(230.0572390572391,193.77272727272728)" d="M0,3.989422804014327A3.989422804014327,3.989422804014327 0 1,1 0,-3.989422804014327A3.989422804014327,3.989422804014327 0 1,1 0,3.989422804014327Z" style="fill: #000000;"></path></g></g></g></g></svg>