<svg class="marks" width="769" height="473" xmlns="http://www.w3.org/2000/svg"><g transform="translate(46,6)"><g id="g61" class="type-group"><g transform="translate(0,0)"><rect class="background" width="629" height="419" style="pointer-events: none; fill: none;"></rect><g id="g62" class="type-group"><g transform="translate(0,419)"><rect class="background" width="0" height="0" style="pointer-events: none; fill: none;"></rect><g id="g63" class="type-rule" style="pointer-events: none;"><line x1="18.501683501683495" y1="-419" x2="18.501683501683495" y2="0" style="fill: none; stroke: #d8d8d8; stroke-width: 1px; opacity: 1;"></line><line x1="71.44781144781145" y1="-419" x2="71.44781144781145" y2="0" style="fill: none; stroke: #d8d8d8; stroke-width: 1px; opacity: 1;"></line><line x1="124.39393939393939" y1="-419" x2="124.39393939393939" y2="0" style="fill: none; stroke: #d8d8d8; stroke-width: 1px; opacity: 1;"></line><line x1="177.34006734006735" y1="-419" x2="177.34006734006735" y2="0" style="fill: none; stroke: #d8d8d8; stroke-width: 1px; opacity: 1;"></line><line x1="230.2861952861953" y1="-419" x2="230.2861952861953" y2="0" style="fill: none; stroke: #d8d8d8; stroke-width: 1px; opacity: 1;"></line><line x1="283.2323232323232" y1="-419" x2="283.2323232323232" y2="0" style="fill: none; stroke: #d8d8d8; stroke-width: 1px; opacity: 1;"></line><line x1="336.1784511784512" y1="-419" x2="336.1784511784512" y2="0" style="fill: none; stroke: #d8d8d8; stroke-width: 1px; opacity: 1;"></line><line x1="389.12457912457916" y1="-419" x2="389.12457912457916" y2="0" style="fill: none; stroke: #d8d8d8; stroke-width: 1px; opacity: 1;"></line><line x1="442.0707070707071" y1="-419" x2="442.0707070707071" y2="0" style="fill: none; stroke: #d8d8d8; stroke-width: 1px; opacity: 1;"></line><line x1="495.01683501683505" y1="-419" x2="495.01683501683505" y2="0" style="fill: none; stroke: #d8d8d8; stroke-width: 1px; opacity: 1;"></line><line x1="547.962962962963" y1="-419" x2="547.962962962963" y2="0" style="fill: none; stroke: #d8d8d8; stroke-width: 1px; opacity: 1;"></line><line x1="600.9090909090909" y1="-419" x2="600.9090909090909" y2="0" style="fill: none; stroke: #d8d8d8; stroke-width: 1px; opacity: 1;"></line></g><g id="g64" class="type-rule" style="pointer-events: none;"><line x1="18.501683501683495" y1="0" x2="18.501683501683495" y2="6" style="fill: none; stroke: #000000; stroke-width: 1px; opacity: 1;"></line><line x1="71.44781144781145" y1="0" x2="71.44781144781145" y2="6" style="fill: none; stroke: #000000; stroke-width: 1px; opacity: 1;"></line><line x1="124.39393939393939" y1="0" x2="124.39393939393939" y2="6" style="fill: none; stroke: #000000; stroke-width: 1px; opacity: 1;"></line><line x1="177.34006734006735" y1="0" x2="177.34006734006735" y2="6" style="fill: none; stroke: #000000; stroke-width: 1px; opacity: 1;"></line><line x1="230.2861952861953" y1="0" x2="230.2861952861953" y2="6" style="fill: none; stroke: #000000; stroke-width: 1px; opacity: 1;"></line><line x1="283.2323232323232" y1="0" x2="283.2323232323232" y2="6" style="fill: none; stroke: #000000; stroke-width: 1px; opacity: 1;"></line><line x1="336.1784511784512" y1="0" x2="336.1784511784512" y2="6" style="fill: none; stroke: #000000; stroke-width: 1px; opacity: 1;"></line><line x1="389.12457912457916" y1="0" x2="389.12457912457916" y2="6" style="fill: none; stroke: #000000; stroke-width: 1px; opacity: 1;"></line><line x1="442.0707070707071" y1="0" x2="442.0707070707071" y2="6" style="fill: none; stroke: #000000; stroke-width: 1px; opacity: 1;"></line><line x1="495.01683501683505" y1="0" x2="495.01683501683505" y2="6" style="fill: none; stroke: #000000; stroke-width: 1px; opacity: 1;"></line><line x1="547.962962962963" y1="0" x2="547.962962962963" y2="6" style="fill: none; stroke: #000000; stroke-width: 1px; opacity: 1;"></line><line x1="600.9090909090909" y1="0" x2="600.9090909090909" y2="6" style="fill: none; stroke: #000000; stroke-width: 1px; opacity: 1;"></line></g><g id="g65" class="type-rule" style="pointer-events: none;"></g><g id="g66" class="type-text"><text x="18.501683501683495" y="9" text-anchor="middle" dy=".9em" style="font-style: normal; font-variant: normal; font-weight: normal; font-size: 11px; line-height: normal; font-family: sans-serif; fill: #000000; opacity: 1;">1.5</text><text x="71.44781144781145" y="9" text-anchor="middle" dy=".9em" style="font-style: normal; font-variant: normal; font-weight: normal; font-size: 11px; line-height: normal; font-family: sans-serif; fill: #000000; opacity: 1;">2.0</text><text x="124.39393939393939" y="9" text-anchor="middle" dy=".9em" style="font-style: normal; font-variant: normal; font-weight: normal; font-size: 11px; line-height: normal; font-family: sans-serif; fill: #000000; opacity: 1;">2.5</text><text x="177.34006734006735" y="9" text-anchor="middle" dy=".9em" style="font-style: normal; font-variant: normal; font-weight: normal; font-size: 11px; line-height: normal; font-family: sans-serif; fill: #000000; opacity: 1;">3.0</text><text x="230.2861952861953" y="9" text-anchor="middle" dy=".9em" style="font-style: normal; font-variant: normal; font-weight: normal; font-size: 11px; line-height: normal; font-family: sans-serif; fill: #000000; opacity: 1;">3.5</text><text x="283.2323232323232" y="9" text-anchor="middle" dy=".9em" style="font-style: normal; font-variant: normal; font-weight: normal; font-size: 11px; line-height: normal; font-family: sans-serif; fill: #000000; opacity: 1;">4.0</text><text x="336.1784511784512" y="9" text-anchor="middle" dy=".9em" style="font-style: normal; font-variant: normal; font-weight: normal; font-size: 11px; line-height: normal; font-family: sans-serif; fill: #000000; opacity: 1;">4.5</text><text x="389.12457912457916" y="9" text-anchor="middle" dy=".9em" style="font-style: normal; font-variant: normal; font-weight: normal; font-size: 11px; line-height: normal; font-family: sans-serif; fill: #000000; opacity: 1;">5.0</text><text x="442.0707070707071" y="9" text-anchor="middle" dy=".9em" style="font-style: normal; font-variant: normal; font-weight: normal; font-size: 11px; line-height: normal; font-family: sans-serif; fill: #000000; opacity: 1;">5.5</text><text x="495.01683501683505" y="9" text-anchor="middle" dy=".9em" style="font-style: normal; font-variant: normal; font-weight: normal; font-size: 11px; line-height: normal; font-family: sans-serif; fill: #000000; opacity: 1;">6.0</text><text x="547.962962962963" y="9" text-anchor="middle" dy=".9em" style="font-style: normal; font-variant: normal; font-weight: normal; font-size: 11px; line-height: normal; font-family: sans-serif; fill: #000000; opacity: 1;">6.5</text><text x="600.9090909090909" y="9" text-anchor="middle" dy=".9em" style="font-style: normal; font-variant: normal; font-weight: normal; font-size: 11px; line-height: normal; font-family: sans-serif; fill: #000000; opacity: 1;">7.0</text></g><g id="g67" class="type-path" style="pointer-events: none;"><path transform="translate(0.5,0.5)" d="M0,6V0H629V6" style="fill: none; stroke: #000000; stroke-width: 1px;"></path></g><g id="g68" class="type-text"><text x="314" y="35" text-anchor="middle" dy=".35em" style="font-weight: bold; font-style: normal; font-variant: normal; font-size: 11px; line-height: normal; font-family: sans-serif; fill: #000000;">Engine Displacement, in Liters</text></g></g></g><g id="g69" class="type-group"><g transform="translate(0,0)"><rect class="background" width="0" height="0" style="pointer-events: none; fill: none;"></rect><g id="g70" class="type-rule" style="pointer-events: none;"><line x1="0" y1="364.7443181818182" x2="629" y2="364.7443181818182" style="fill: none; stroke: #d8d8d8; stroke-width: 1px; opacity: 1;"></line><line x1="0" y1="305.22727272727275" x2="629" y2="305.22727272727275" style="fill: none; stroke: #d8d8d8; stroke-width: 1px; opacity: 1;"></line><line x1="0" y1="245.71022727272725" x2="629" y2="245.71022727272725" style="fill: none; stroke: #d8d8d8; stroke-width: 1px; opacity: 1;"></line><line x1="0" y1="186.19318181818184" x2="629" y2="186.19318181818184" style="fill: none; stroke: #d8d8d8; stroke-width: 1px; opacity: 1;"></line><line x1="0" y1="126.67613636363637" x2="629" y2="126.67613636363637" style="fill: none; stroke: #d8d8d8; stroke-width: 1px; opacity: 1;"></line><line x1="0" y1="67.15909090909095" x2="629" y2="67.15909090909095" style="fill: none; stroke: #d8d8d8; stroke-width: 1px; opacity: 1;"></line><line x1="0" y1="7.642045454545471" x2="629" y2="7.642045454545471" style="fill: none; stroke: #d8d8d8; stroke-width: 1px; opacity: 1;"></line></g><g id="g71" class="type-rule" style="pointer-events: none;"><line x1="-6" y1="364.7443181818182" x2="0" y2="364.7443181818182" style="fill: none; stroke: #000000; stroke-width: 1px; opacity: 1;"></line><line x1="-6" y1="305.22727272727275" x2="0" y2="305.22727272727275" style="fill: none; stroke: #000000; stroke-width: 1px; opacity: 1;"></line><line x1="-6" y1="245.71022727272725" x2="0" y2="245.71022727272725" style="fill: none; stroke: #000000; stroke-width: 1px; opacity: 1;"></line><line x1="-6" y1="186.19318181818184" x2="0" y2="186.19318181818184" style="fill: none; stroke: #000000; stroke-width: 1px; opacity: 1;"></line><line x1="-6" y1="126.67613636363637" x2="0" y2="126.67613636363637" style="fill: none; stroke: #000000; stroke-width: 1px; opacity: 1;"></line><line x1="-6" y1="67.15909090909095" x2="0" y2="67.15909090909095" style="fill: none; stroke: #000000; stroke-width: 1px; opacity: 1;"></line><line x1="-6" y1="7.642045454545471" x2="0" y2="7.642045454545471" style="fill: none; stroke: #000000; stroke-width: 1px; opacity: 1;"></line></g><g id="g72" class="type-rule" style="pointer-events: none;"></g><g id="g73" class="type-text"><text x="-9" y="364.7443181818182" text-anchor="end" dy=".35em" style="font-style: normal; font-variant: normal; font-weight: normal; font-size: 11px; line-height: normal; font-family: sans-serif; fill: #000000; opacity: 1;">15</text><text x="-9" y="305.22727272727275" text-anchor="end" dy=".35em" style="font-style: normal; font-variant: normal; font-weight: normal; font-size: 11px; line-height: normal; font-family: sans-serif; fill: #000000; opacity: 1;">20</text><text x="-9" y="245.71022727272725" text-anchor="end" dy=".35em" style="font-style: normal; font-variant: normal; font-weight: normal; font-size: 11px; line-height: normal; font-family: sans-serif; fill: #000000; opacity: 1;">25</text><text x="-9" y="186.19318181818184" text-anchor="end" dy=".35em" style="font-style: normal; font-variant: normal; font-weight: normal; font-size: 11px; line-height: normal; font-family: sans-serif; fill: #000000; opacity: 1;">30</text><text x="-9" y="126.67613636363637" text-anchor="end" dy=".35em" style="font-style: normal; font-variant: normal; font-weight: normal; font-size: 11px; line-height: normal; font-family: sans-serif; fill: #000000; opacity: 1;">35</text><text x="-9" y="67.15909090909095" text-anchor="end" dy=".35em" style="font-style: normal; font-variant: normal; font-weight: normal; font-size: 11px; line-height: normal; font-family: sans-serif; fill: #000000; opacity: 1;">40</text><text x="-9" y="7.642045454545471" text-anchor="end" dy=".35em" style="font-style: normal; font-variant: normal; font-weight: normal; font-size: 11px; line-height: normal; font-family: sans-serif; fill: #000000; opacity: 1;">45</text></g><g id="g74" class="type-path" style="pointer-events: none;"><path transform="translate(0.5,0.5)" d="M-6,0H0V419H-6" style="fill: none; stroke: #000000; stroke-width: 1px;"></path></g><g id="g75" class="type-text"><text x="-35" y="209" text-anchor="middle" transform="rotate(-90 -35,209)" dy=".35em" style="font-weight: bold; font-style: normal; font-variant: normal; font-size: 11px; line-height: normal; font-family: sans-serif; fill: #000000;">Highway Miles per Gallon</text></g></g></g><g id="g76" class="type-symbol"><path transform="translate(49.76936026936027,197.5965909090909)" d="M0,6.90988298942671A6.90988298942671,6.90988298942671 0 1,1 0,-6.90988298942671A6.90988298942671,6.90988298942671 0 1,1 0,6.90988298942671Z" style="fill: #1f77b4; opacity: 0.5;"></path><path transform="translate(49.76936026936027,197.5965909090909)" d="M0,6.90988298942671A6.90988298942671,6.90988298942671 0 1,1 0,-6.90988298942671A6.90988298942671,6.90988298942671 0 1,1 0,6.90988298942671Z" style="fill: #1f77b4; opacity: 0.5;"></path><path transform="translate(70.94781144781145,173.78977272727275)" d="M0,6.90988298942671A6.90988298942671,6.90988298942671 0 1,1 0,-6.90988298942671A6.90988298942671,6.90988298942671 0 1,1 0,6.90988298942671Z" style="fill: #1f77b4; opacity: 0.5;"></path><path transform="translate(70.94781144781145,185.69318181818184)" d="M0,6.90988298942671A6.90988298942671,6.90988298942671 0 1,1 0,-6.90988298942671A6.90988298942671,6.90988298942671 0 1,1 0,6.90988298942671Z" style="fill: #1f77b4; opacity: 0.5;"></path><path transform="translate(155.66161616161614,233.30681818181822)" d="M0,6.90988298942671A6.90988298942671,6.90988298942671 0 1,1 0,-6.90988298942671A6.90988298942671,6.90988298942671 0 1,1 0,6.90988298942671Z" style="fill: #1f77b4; opacity: 0.5;"></path><path transform="translate(155.66161616161614,233.30681818181822)" d="M0,6.90988298942671A6.90988298942671,6.90988298942671 0 1,1 0,-6.90988298942671A6.90988298942671,6.90988298942671 0 1,1 0,6.90988298942671Z" style="fill: #1f77b4; opacity: 0.5;"></path><path transform="translate(187.42929292929296,221.40340909090907)" d="M0,6.90988298942671A6.90988298942671,6.90988298942671 0 1,1 0,-6.90988298942671A6.90988298942671,6.90988298942671 0 1,1 0,6.90988298942671Z" style="fill: #1f77b4; opacity: 0.5;"></path><path transform="translate(49.76936026936027,233.30681818181822)" d="M0,6.90988298942671A6.90988298942671,6.90988298942671 0 1,1 0,-6.90988298942671A6.90988298942671,6.90988298942671 0 1,1 0,6.90988298942671Z" style="fill: #1f77b4; opacity: 0.5;"></path><path transform="translate(49.76936026936027,245.21022727272725)" d="M0,6.90988298942671A6.90988298942671,6.90988298942671 0 1,1 0,-6.90988298942671A6.90988298942671,6.90988298942671 0 1,1 0,6.90988298942671Z" style="fill: #1f77b4; opacity: 0.5;"></path><path transform="translate(70.94781144781145,209.5)" d="M0,6.90988298942671A6.90988298942671,6.90988298942671 0 1,1 0,-6.90988298942671A6.90988298942671,6.90988298942671 0 1,1 0,6.90988298942671Z" style="fill: #1f77b4; opacity: 0.5;"></path><path transform="translate(70.94781144781145,221.40340909090907)" d="M0,6.90988298942671A6.90988298942671,6.90988298942671 0 1,1 0,-6.90988298942671A6.90988298942671,6.90988298942671 0 1,1 0,6.90988298942671Z" style="fill: #1f77b4; opacity: 0.5;"></path><path transform="translate(155.66161616161614,245.21022727272725)" d="M0,6.90988298942671A6.90988298942671,6.90988298942671 0 1,1 0,-6.90988298942671A6.90988298942671,6.90988298942671 0 1,1 0,6.90988298942671Z" style="fill: #1f77b4; opacity: 0.5;"></path><path transform="translate(155.66161616161614,245.21022727272725)" d="M0,6.90988298942671A6.90988298942671,6.90988298942671 0 1,1 0,-6.90988298942671A6.90988298942671,6.90988298942671 0 1,1 0,6.90988298942671Z" style="fill: #1f77b4; opacity: 0.5;"></path><path transform="translate(187.42929292929296,245.21022727272725)" d="M0,6.90988298942671A6.90988298942671,6.90988298942671 0 1,1 0,-6.90988298942671A6.90988298942671,6.90988298942671 0 1,1 0,6.90988298942671Z" style="fill: #1f77b4; opacity: 0.5;"></path><path transform="translate(187.42929292929296,245.21022727272725)" d="M0,6.90988298942671A6.90988298942671,6.90988298942671 0 1,1 0,-6.90988298942671A6.90988298942671,6.90988298942671 0 1,1 0,6.90988298942671Z" style="fill: #1f77b4; opacity: 0.5;"></path><path transform="translate(155.66161616161614,257.11363636363643)" d="M0,6.90988298942671A6.90988298942671,6.90988298942671 0 1,1 0,-6.90988298942671A6.90988298942671,6.90988298942671 0 1,1 0,6.90988298942671Z" style="fill: #ff7f0e; opacity: 0.5;"></path><path transform="translate(187.42929292929296,245.21022727272725)" d="M0,6.90988298942671A6.90988298942671,6.90988298942671 0 1,1 0,-6.90988298942671A6.90988298942671,6.90988298942671 0 1,1 0,6.90988298942671Z" style="fill: #ff7f0e; opacity: 0.5;"></path><path transform="translate(303.9107744107745,269.0170454545455)" d="M0,6.90988298942671A6.90988298942671,6.90988298942671 0 1,1 0,-6.90988298942671A6.90988298942671,6.90988298942671 0 1,1 0,6.90988298942671Z" style="fill: #ff7f0e; opacity: 0.5;"></path><path transform="translate(420.3922558922559,304.72727272727275)" d="M0,6.90988298942671A6.90988298942671,6.90988298942671 0 1,1 0,-6.90988298942671A6.90988298942671,6.90988298942671 0 1,1 0,6.90988298942671Z" style="fill: #2ca02c; opacity: 0.5;"></path><path transform="translate(420.3922558922559,364.2443181818182)" d="M0,6.90988298942671A6.90988298942671,6.90988298942671 0 1,1 0,-6.90988298942671A6.90988298942671,6.90988298942671 0 1,1 0,6.90988298942671Z" style="fill: #2ca02c; opacity: 0.5;"></path><path transform="translate(420.3922558922559,304.72727272727275)" d="M0,6.90988298942671A6.90988298942671,6.90988298942671 0 1,1 0,-6.90988298942671A6.90988298942671,6.90988298942671 0 1,1 0,6.90988298942671Z" style="fill: #2ca02c; opacity: 0.5;"></path><path transform="translate(462.74915824915826,340.4375)" d="M0,6.90988298942671A6.90988298942671,6.90988298942671 0 1,1 0,-6.90988298942671A6.90988298942671,6.90988298942671 0 1,1 0,6.90988298942671Z" style="fill: #2ca02c; opacity: 0.5;"></path><path transform="translate(494.51683501683505,340.4375)" d="M0,6.90988298942671A6.90988298942671,6.90988298942671 0 1,1 0,-6.90988298942671A6.90988298942671,6.90988298942671 0 1,1 0,6.90988298942671Z" style="fill: #2ca02c; opacity: 0.5;"></path><path transform="translate(462.74915824915826,233.30681818181822)" d="M0,6.90988298942671A6.90988298942671,6.90988298942671 0 1,1 0,-6.90988298942671A6.90988298942671,6.90988298942671 0 1,1 0,6.90988298942671Z" style="fill: #d62728; opacity: 0.5;"></path><path transform="translate(462.74915824915826,269.0170454545455)" d="M0,6.90988298942671A6.90988298942671,6.90988298942671 0 1,1 0,-6.90988298942671A6.90988298942671,6.90988298942671 0 1,1 0,6.90988298942671Z" style="fill: #d62728; opacity: 0.5;"></path><path transform="translate(515.6952861952863,233.30681818181822)" d="M0,6.90988298942671A6.90988298942671,6.90988298942671 0 1,1 0,-6.90988298942671A6.90988298942671,6.90988298942671 0 1,1 0,6.90988298942671Z" style="fill: #d62728; opacity: 0.5;"></path><path transform="translate(515.6952861952863,245.21022727272725)" d="M0,6.90988298942671A6.90988298942671,6.90988298942671 0 1,1 0,-6.90988298942671A6.90988298942671,6.90988298942671 0 1,1 0,6.90988298942671Z" style="fill: #d62728; opacity: 0.5;"></path><path transform="translate(600.4090909090909,257.11363636363643)" d="M0,6.90988298942671A6.90988298942671,6.90988298942671 0 1,1 0,-6.90988298942671A6.90988298942671,6.90988298942671 0 1,1 0,6.90988298942671Z" style="fill: #d62728; opacity: 0.5;"></path><path transform="translate(420.3922558922559,316.6306818181818)" d="M0,6.90988298942671A6.90988298942671,6.90988298942671 0 1,1 0,-6.90988298942671A6.90988298942671,6.90988298942671 0 1,1 0,6.90988298942671Z" style="fill: #2ca02c; opacity: 0.5;"></path><path transform="translate(420.3922558922559,376.14772727272725)" d="M0,6.90988298942671A6.90988298942671,6.90988298942671 0 1,1 0,-6.90988298942671A6.90988298942671,6.90988298942671 0 1,1 0,6.90988298942671Z" style="fill: #2ca02c; opacity: 0.5;"></path><path transform="translate(462.74915824915826,364.2443181818182)" d="M0,6.90988298942671A6.90988298942671,6.90988298942671 0 1,1 0,-6.90988298942671A6.90988298942671,6.90988298942671 0 1,1 0,6.90988298942671Z" style="fill: #2ca02c; opacity: 0.5;"></path><path transform="translate(547.462962962963,340.4375)" d="M0,6.90988298942671A6.90988298942671,6.90988298942671 0 1,1 0,-6.90988298942671A6.90988298942671,6.90988298942671 0 1,1 0,6.90988298942671Z" style="fill: #2ca02c; opacity: 0.5;"></path><path transform="translate(113.3047138047138,221.40340909090907)" d="M0,6.90988298942671A6.90988298942671,6.90988298942671 0 1,1 0,-6.90988298942671A6.90988298942671,6.90988298942671 0 1,1 0,6.90988298942671Z" style="fill: #ff7f0e; opacity: 0.5;"></path><path transform="translate(113.3047138047138,185.69318181818184)" d="M0,6.90988298942671A6.90988298942671,6.90988298942671 0 1,1 0,-6.90988298942671A6.90988298942671,6.90988298942671 0 1,1 0,6.90988298942671Z" style="fill: #ff7f0e; opacity: 0.5;"></path><path transform="translate(187.42929292929296,233.30681818181822)" d="M0,6.90988298942671A6.90988298942671,6.90988298942671 0 1,1 0,-6.90988298942671A6.90988298942671,6.90988298942671 0 1,1 0,6.90988298942671Z" style="fill: #ff7f0e; opacity: 0.5;"></path><path transform="translate(229.7861952861953,197.5965909090909)" d="M0,6.90988298942671A6.90988298942671,6.90988298942671 0 1,1 0,-6.90988298942671A6.90988298942671,6.90988298942671 0 1,1 0,6.90988298942671Z" style="fill: #ff7f0e; opacity: 0.5;"></path><path transform="translate(240.3754208754209,233.30681818181822)" d="M0,6.90988298942671A6.90988298942671,6.90988298942671 0 1,1 0,-6.90988298942671A6.90988298942671,6.90988298942671 0 1,1 0,6.90988298942671Z" style="fill: #ff7f0e; opacity: 0.5;"></path><path transform="translate(113.3047138047138,257.11363636363643)" d="M0,6.90988298942671A6.90988298942671,6.90988298942671 0 1,1 0,-6.90988298942671A6.90988298942671,6.90988298942671 0 1,1 0,6.90988298942671Z" style="fill: #9467bd; opacity: 0.5;"></path><path transform="translate(176.84006734006735,257.11363636363643)" d="M0,6.90988298942671A6.90988298942671,6.90988298942671 0 1,1 0,-6.90988298942671A6.90988298942671,6.90988298942671 0 1,1 0,6.90988298942671Z" style="fill: #9467bd; opacity: 0.5;"></path><path transform="translate(208.6077441077441,280.9204545454545)" d="M0,6.90988298942671A6.90988298942671,6.90988298942671 0 1,1 0,-6.90988298942671A6.90988298942671,6.90988298942671 0 1,1 0,6.90988298942671Z" style="fill: #9467bd; opacity: 0.5;"></path><path transform="translate(208.6077441077441,280.9204545454545)" d="M0,6.90988298942671A6.90988298942671,6.90988298942671 0 1,1 0,-6.90988298942671A6.90988298942671,6.90988298942671 0 1,1 0,6.90988298942671Z" style="fill: #9467bd; opacity: 0.5;"></path><path transform="translate(208.6077441077441,257.11363636363643)" d="M0,6.90988298942671A6.90988298942671,6.90988298942671 0 1,1 0,-6.90988298942671A6.90988298942671,6.90988298942671 0 1,1 0,6.90988298942671Z" style="fill: #9467bd; opacity: 0.5;"></path><path transform="translate(208.6077441077441,257.11363636363643)" d="M0,6.90988298942671A6.90988298942671,6.90988298942671 0 1,1 0,-6.90988298942671A6.90988298942671,6.90988298942671 0 1,1 0,6.90988298942671Z" style="fill: #9467bd; opacity: 0.5;"></path><path transform="translate(208.6077441077441,340.4375)" d="M0,6.90988298942671A6.90988298942671,6.90988298942671 0 1,1 0,-6.90988298942671A6.90988298942671,6.90988298942671 0 1,1 0,6.90988298942671Z" style="fill: #9467bd; opacity: 0.5;"></path><path transform="translate(261.55387205387206,280.9204545454545)" d="M0,6.90988298942671A6.90988298942671,6.90988298942671 0 1,1 0,-6.90988298942671A6.90988298942671,6.90988298942671 0 1,1 0,6.90988298942671Z" style="fill: #9467bd; opacity: 0.5;"></path><path transform="translate(261.55387205387206,292.8238636363637)" d="M0,6.90988298942671A6.90988298942671,6.90988298942671 0 1,1 0,-6.90988298942671A6.90988298942671,6.90988298942671 0 1,1 0,6.90988298942671Z" style="fill: #9467bd; opacity: 0.5;"></path><path transform="translate(261.55387205387206,269.0170454545455)" d="M0,6.90988298942671A6.90988298942671,6.90988298942671 0 1,1 0,-6.90988298942671A6.90988298942671,6.90988298942671 0 1,1 0,6.90988298942671Z" style="fill: #9467bd; opacity: 0.5;"></path><path transform="translate(282.7323232323232,269.0170454545455)" d="M0,6.90988298942671A6.90988298942671,6.90988298942671 0 1,1 0,-6.90988298942671A6.90988298942671,6.90988298942671 0 1,1 0,6.90988298942671Z" style="fill: #9467bd; opacity: 0.5;"></path><path transform="translate(250.9646464646465,316.6306818181818)" d="M0,6.90988298942671A6.90988298942671,6.90988298942671 0 1,1 0,-6.90988298942671A6.90988298942671,6.90988298942671 0 1,1 0,6.90988298942671Z" style="fill: #8c564b; opacity: 0.5;"></path><path transform="translate(250.9646464646465,328.53409090909093)" d="M0,6.90988298942671A6.90988298942671,6.90988298942671 0 1,1 0,-6.90988298942671A6.90988298942671,6.90988298942671 0 1,1 0,6.90988298942671Z" style="fill: #8c564b; opacity: 0.5;"></path><path transform="translate(272.14309764309763,340.4375)" d="M0,6.90988298942671A6.90988298942671,6.90988298942671 0 1,1 0,-6.90988298942671A6.90988298942671,6.90988298942671 0 1,1 0,6.90988298942671Z" style="fill: #8c564b; opacity: 0.5;"></path><path transform="translate(272.14309764309763,340.4375)" d="M0,6.90988298942671A6.90988298942671,6.90988298942671 0 1,1 0,-6.90988298942671A6.90988298942671,6.90988298942671 0 1,1 0,6.90988298942671Z" style="fill: #8c564b; opacity: 0.5;"></path><path transform="translate(356.85690235690237,316.6306818181818)" d="M0,6.90988298942671A6.90988298942671,6.90988298942671 0 1,1 0,-6.90988298942671A6.90988298942671,6.90988298942671 0 1,1 0,6.90988298942671Z" style="fill: #8c564b; opacity: 0.5;"></path><path transform="translate(356.85690235690237,316.6306818181818)" d="M0,6.90988298942671A6.90988298942671,6.90988298942671 0 1,1 0,-6.90988298942671A6.90988298942671,6.90988298942671 0 1,1 0,6.90988298942671Z" style="fill: #8c564b; opacity: 0.5;"></path><path transform="translate(356.85690235690237,399.9545454545455)" d="M0,6.90988298942671A6.90988298942671,6.90988298942671 0 1,1 0,-6.90988298942671A6.90988298942671,6.90988298942671 0 1,1 0,6.90988298942671Z" style="fill: #8c564b; opacity: 0.5;"></path><path transform="translate(409.80303030303037,340.4375)" d="M0,6.90988298942671A6.90988298942671,6.90988298942671 0 1,1 0,-6.90988298942671A6.90988298942671,6.90988298942671 0 1,1 0,6.90988298942671Z" style="fill: #8c564b; opacity: 0.5;"></path><path transform="translate(409.80303030303037,364.2443181818182)" d="M0,6.90988298942671A6.90988298942671,6.90988298942671 0 1,1 0,-6.90988298942671A6.90988298942671,6.90988298942671 0 1,1 0,6.90988298942671Z" style="fill: #8c564b; opacity: 0.5;"></path><path transform="translate(272.14309764309763,340.4375)" d="M0,6.90988298942671A6.90988298942671,6.90988298942671 0 1,1 0,-6.90988298942671A6.90988298942671,6.90988298942671 0 1,1 0,6.90988298942671Z" style="fill: #2ca02c; opacity: 0.5;"></path><path transform="translate(356.85690235690237,340.4375)" d="M0,6.90988298942671A6.90988298942671,6.90988298942671 0 1,1 0,-6.90988298942671A6.90988298942671,6.90988298942671 0 1,1 0,6.90988298942671Z" style="fill: #2ca02c; opacity: 0.5;"></path><path transform="translate(356.85690235690237,399.9545454545455)" d="M0,6.90988298942671A6.90988298942671,6.90988298942671 0 1,1 0,-6.90988298942671A6.90988298942671,6.90988298942671 0 1,1 0,6.90988298942671Z" style="fill: #2ca02c; opacity: 0.5;"></path><path transform="translate(356.85690235690237,340.4375)" d="M0,6.90988298942671A6.90988298942671,6.90988298942671 0 1,1 0,-6.90988298942671A6.90988298942671,6.90988298942671 0 1,1 0,6.90988298942671Z" style="fill: #2ca02c; opacity: 0.5;"></path><path transform="translate(409.80303030303037,352.3409090909091)" d="M0,6.90988298942671A6.90988298942671,6.90988298942671 0 1,1 0,-6.90988298942671A6.90988298942671,6.90988298942671 0 1,1 0,6.90988298942671Z" style="fill: #2ca02c; opacity: 0.5;"></path><path transform="translate(462.74915824915826,328.53409090909093)" d="M0,6.90988298942671A6.90988298942671,6.90988298942671 0 1,1 0,-6.90988298942671A6.90988298942671,6.90988298942671 0 1,1 0,6.90988298942671Z" style="fill: #2ca02c; opacity: 0.5;"></path><path transform="translate(483.92760942760947,364.2443181818182)" d="M0,6.90988298942671A6.90988298942671,6.90988298942671 0 1,1 0,-6.90988298942671A6.90988298942671,6.90988298942671 0 1,1 0,6.90988298942671Z" style="fill: #2ca02c; opacity: 0.5;"></path><path transform="translate(356.85690235690237,352.3409090909091)" d="M0,6.90988298942671A6.90988298942671,6.90988298942671 0 1,1 0,-6.90988298942671A6.90988298942671,6.90988298942671 0 1,1 0,6.90988298942671Z" style="fill: #8c564b; opacity: 0.5;"></path><path transform="translate(356.85690235690237,399.9545454545455)" d="M0,6.90988298942671A6.90988298942671,6.90988298942671 0 1,1 0,-6.90988298942671A6.90988298942671,6.90988298942671 0 1,1 0,6.90988298942671Z" style="fill: #8c564b; opacity: 0.5;"></path><path transform="translate(356.85690235690237,340.4375)" d="M0,6.90988298942671A6.90988298942671,6.90988298942671 0 1,1 0,-6.90988298942671A6.90988298942671,6.90988298942671 0 1,1 0,6.90988298942671Z" style="fill: #8c564b; opacity: 0.5;"></path><path transform="translate(356.85690235690237,340.4375)" d="M0,6.90988298942671A6.90988298942671,6.90988298942671 0 1,1 0,-6.90988298942671A6.90988298942671,6.90988298942671 0 1,1 0,6.90988298942671Z" style="fill: #8c564b; opacity: 0.5;"></path><path transform="translate(356.85690235690237,352.3409090909091)" d="M0,6.90988298942671A6.90988298942671,6.90988298942671 0 1,1 0,-6.90988298942671A6.90988298942671,6.90988298942671 0 1,1 0,6.90988298942671Z" style="fill: #8c564b; opacity: 0.5;"></path><path transform="translate(356.85690235690237,399.9545454545455)" d="M0,6.90988298942671A6.90988298942671,6.90988298942671 0 1,1 0,-6.90988298942671A6.90988298942671,6.90988298942671 0 1,1 0,6.90988298942671Z" style="fill: #8c564b; opacity: 0.5;"></path><path transform="translate(409.80303030303037,364.2443181818182)" d="M0,6.90988298942671A6.90988298942671,6.90988298942671 0 1,1 0,-6.90988298942671A6.90988298942671,6.90988298942671 0 1,1 0,6.90988298942671Z" style="fill: #8c564b; opacity: 0.5;"></path><path transform="translate(409.80303030303037,352.3409090909091)" d="M0,6.90988298942671A6.90988298942671,6.90988298942671 0 1,1 0,-6.90988298942671A6.90988298942671,6.90988298942671 0 1,1 0,6.90988298942671Z" style="fill: #8c564b; opacity: 0.5;"></path><path transform="translate(462.74915824915826,340.4375)" d="M0,6.90988298942671A6.90988298942671,6.90988298942671 0 1,1 0,-6.90988298942671A6.90988298942671,6.90988298942671 0 1,1 0,6.90988298942671Z" style="fill: #8c564b; opacity: 0.5;"></path><path transform="translate(483.92760942760947,364.2443181818182)" d="M0,6.90988298942671A6.90988298942671,6.90988298942671 0 1,1 0,-6.90988298942671A6.90988298942671,6.90988298942671 0 1,1 0,6.90988298942671Z" style="fill: #8c564b; opacity: 0.5;"></path><path transform="translate(346.2676767676768,340.4375)" d="M0,6.90988298942671A6.90988298942671,6.90988298942671 0 1,1 0,-6.90988298942671A6.90988298942671,6.90988298942671 0 1,1 0,6.90988298942671Z" style="fill: #2ca02c; opacity: 0.5;"></path><path transform="translate(430.9814814814816,340.4375)" d="M0,6.90988298942671A6.90988298942671,6.90988298942671 0 1,1 0,-6.90988298942671A6.90988298942671,6.90988298942671 0 1,1 0,6.90988298942671Z" style="fill: #2ca02c; opacity: 0.5;"></path><path transform="translate(430.9814814814816,328.53409090909093)" d="M0,6.90988298942671A6.90988298942671,6.90988298942671 0 1,1 0,-6.90988298942671A6.90988298942671,6.90988298942671 0 1,1 0,6.90988298942671Z" style="fill: #2ca02c; opacity: 0.5;"></path><path transform="translate(282.7323232323232,340.4375)" d="M0,6.90988298942671A6.90988298942671,6.90988298942671 0 1,1 0,-6.90988298942671A6.90988298942671,6.90988298942671 0 1,1 0,6.90988298942671Z" style="fill: #2ca02c; opacity: 0.5;"></path><path transform="translate(282.7323232323232,316.6306818181818)" d="M0,6.90988298942671A6.90988298942671,6.90988298942671 0 1,1 0,-6.90988298942671A6.90988298942671,6.90988298942671 0 1,1 0,6.90988298942671Z" style="fill: #2ca02c; opacity: 0.5;"></path><path transform="translate(282.7323232323232,340.4375)" d="M0,6.90988298942671A6.90988298942671,6.90988298942671 0 1,1 0,-6.90988298942671A6.90988298942671,6.90988298942671 0 1,1 0,6.90988298942671Z" style="fill: #2ca02c; opacity: 0.5;"></path><path transform="translate(282.7323232323232,316.6306818181818)" d="M0,6.90988298942671A6.90988298942671,6.90988298942671 0 1,1 0,-6.90988298942671A6.90988298942671,6.90988298942671 0 1,1 0,6.90988298942671Z" style="fill: #2ca02c; opacity: 0.5;"></path><path transform="translate(346.2676767676768,316.6306818181818)" d="M0,6.90988298942671A6.90988298942671,6.90988298942671 0 1,1 0,-6.90988298942671A6.90988298942671,6.90988298942671 0 1,1 0,6.90988298942671Z" style="fill: #2ca02c; opacity: 0.5;"></path><path transform="translate(388.62457912457916,340.4375)" d="M0,6.90988298942671A6.90988298942671,6.90988298942671 0 1,1 0,-6.90988298942671A6.90988298942671,6.90988298942671 0 1,1 0,6.90988298942671Z" style="fill: #2ca02c; opacity: 0.5;"></path><path transform="translate(303.9107744107745,340.4375)" d="M0,6.90988298942671A6.90988298942671,6.90988298942671 0 1,1 0,-6.90988298942671A6.90988298942671,6.90988298942671 0 1,1 0,6.90988298942671Z" style="fill: #8c564b; opacity: 0.5;"></path><path transform="translate(303.9107744107745,340.4375)" d="M0,6.90988298942671A6.90988298942671,6.90988298942671 0 1,1 0,-6.90988298942671A6.90988298942671,6.90988298942671 0 1,1 0,6.90988298942671Z" style="fill: #8c564b; opacity: 0.5;"></path><path transform="translate(346.2676767676768,352.3409090909091)" d="M0,6.90988298942671A6.90988298942671,6.90988298942671 0 1,1 0,-6.90988298942671A6.90988298942671,6.90988298942671 0 1,1 0,6.90988298942671Z" style="fill: #8c564b; opacity: 0.5;"></path><path transform="translate(346.2676767676768,352.3409090909091)" d="M0,6.90988298942671A6.90988298942671,6.90988298942671 0 1,1 0,-6.90988298942671A6.90988298942671,6.90988298942671 0 1,1 0,6.90988298942671Z" style="fill: #8c564b; opacity: 0.5;"></path><path transform="translate(346.2676767676768,340.4375)" d="M0,6.90988298942671A6.90988298942671,6.90988298942671 0 1,1 0,-6.90988298942671A6.90988298942671,6.90988298942671 0 1,1 0,6.90988298942671Z" style="fill: #8c564b; opacity: 0.5;"></path><path transform="translate(430.9814814814816,364.2443181818182)" d="M0,6.90988298942671A6.90988298942671,6.90988298942671 0 1,1 0,-6.90988298942671A6.90988298942671,6.90988298942671 0 1,1 0,6.90988298942671Z" style="fill: #8c564b; opacity: 0.5;"></path><path transform="translate(430.9814814814816,340.4375)" d="M0,6.90988298942671A6.90988298942671,6.90988298942671 0 1,1 0,-6.90988298942671A6.90988298942671,6.90988298942671 0 1,1 0,6.90988298942671Z" style="fill: #8c564b; opacity: 0.5;"></path><path transform="translate(261.55387205387206,233.30681818181822)" d="M0,6.90988298942671A6.90988298942671,6.90988298942671 0 1,1 0,-6.90988298942671A6.90988298942671,6.90988298942671 0 1,1 0,6.90988298942671Z" style="fill: #e377c2; opacity: 0.5;"></path><path transform="translate(261.55387205387206,245.21022727272725)" d="M0,6.90988298942671A6.90988298942671,6.90988298942671 0 1,1 0,-6.90988298942671A6.90988298942671,6.90988298942671 0 1,1 0,6.90988298942671Z" style="fill: #e377c2; opacity: 0.5;"></path><path transform="translate(282.7323232323232,233.30681818181822)" d="M0,6.90988298942671A6.90988298942671,6.90988298942671 0 1,1 0,-6.90988298942671A6.90988298942671,6.90988298942671 0 1,1 0,6.90988298942671Z" style="fill: #e377c2; opacity: 0.5;"></path><path transform="translate(282.7323232323232,257.11363636363643)" d="M0,6.90988298942671A6.90988298942671,6.90988298942671 0 1,1 0,-6.90988298942671A6.90988298942671,6.90988298942671 0 1,1 0,6.90988298942671Z" style="fill: #e377c2; opacity: 0.5;"></path><path transform="translate(346.2676767676768,292.8238636363637)" d="M0,6.90988298942671A6.90988298942671,6.90988298942671 0 1,1 0,-6.90988298942671A6.90988298942671,6.90988298942671 0 1,1 0,6.90988298942671Z" style="fill: #e377c2; opacity: 0.5;"></path><path transform="translate(346.2676767676768,280.9204545454545)" d="M0,6.90988298942671A6.90988298942671,6.90988298942671 0 1,1 0,-6.90988298942671A6.90988298942671,6.90988298942671 0 1,1 0,6.90988298942671Z" style="fill: #e377c2; opacity: 0.5;"></path><path transform="translate(346.2676767676768,269.0170454545455)" d="M0,6.90988298942671A6.90988298942671,6.90988298942671 0 1,1 0,-6.90988298942671A6.90988298942671,6.90988298942671 0 1,1 0,6.90988298942671Z" style="fill: #e377c2; opacity: 0.5;"></path><path transform="translate(346.2676767676768,280.9204545454545)" d="M0,6.90988298942671A6.90988298942671,6.90988298942671 0 1,1 0,-6.90988298942671A6.90988298942671,6.90988298942671 0 1,1 0,6.90988298942671Z" style="fill: #e377c2; opacity: 0.5;"></path><path transform="translate(430.9814814814816,304.72727272727275)" d="M0,6.90988298942671A6.90988298942671,6.90988298942671 0 1,1 0,-6.90988298942671A6.90988298942671,6.90988298942671 0 1,1 0,6.90988298942671Z" style="fill: #e377c2; opacity: 0.5;"></path><path transform="translate(28.590909090909097,149.98295454545453)" d="M0,6.90988298942671A6.90988298942671,6.90988298942671 0 1,1 0,-6.90988298942671A6.90988298942671,6.90988298942671 0 1,1 0,6.90988298942671Z" style="fill: #e377c2; opacity: 0.5;"></path><path transform="translate(28.590909090909097,161.88636363636363)" d="M0,6.90988298942671A6.90988298942671,6.90988298942671 0 1,1 0,-6.90988298942671A6.90988298942671,6.90988298942671 0 1,1 0,6.90988298942671Z" style="fill: #e377c2; opacity: 0.5;"></path><path transform="translate(28.590909090909097,161.88636363636363)" d="M0,6.90988298942671A6.90988298942671,6.90988298942671 0 1,1 0,-6.90988298942671A6.90988298942671,6.90988298942671 0 1,1 0,6.90988298942671Z" style="fill: #e377c2; opacity: 0.5;"></path><path transform="translate(28.590909090909097,197.5965909090909)" d="M0,6.90988298942671A6.90988298942671,6.90988298942671 0 1,1 0,-6.90988298942671A6.90988298942671,6.90988298942671 0 1,1 0,6.90988298942671Z" style="fill: #e377c2; opacity: 0.5;"></path><path transform="translate(28.590909090909097,161.88636363636363)" d="M0,6.90988298942671A6.90988298942671,6.90988298942671 0 1,1 0,-6.90988298942671A6.90988298942671,6.90988298942671 0 1,1 0,6.90988298942671Z" style="fill: #e377c2; opacity: 0.5;"></path><path transform="translate(49.76936026936027,138.07954545454547)" d="M0,6.90988298942671A6.90988298942671,6.90988298942671 0 1,1 0,-6.90988298942671A6.90988298942671,6.90988298942671 0 1,1 0,6.90988298942671Z" style="fill: #e377c2; opacity: 0.5;"></path><path transform="translate(49.76936026936027,114.27272727272727)" d="M0,6.90988298942671A6.90988298942671,6.90988298942671 0 1,1 0,-6.90988298942671A6.90988298942671,6.90988298942671 0 1,1 0,6.90988298942671Z" style="fill: #e377c2; opacity: 0.5;"></path><path transform="translate(49.76936026936027,114.27272727272727)" d="M0,6.90988298942671A6.90988298942671,6.90988298942671 0 1,1 0,-6.90988298942671A6.90988298942671,6.90988298942671 0 1,1 0,6.90988298942671Z" style="fill: #e377c2; opacity: 0.5;"></path><path transform="translate(70.94781144781145,197.5965909090909)" d="M0,6.90988298942671A6.90988298942671,6.90988298942671 0 1,1 0,-6.90988298942671A6.90988298942671,6.90988298942671 0 1,1 0,6.90988298942671Z" style="fill: #e377c2; opacity: 0.5;"></path><path transform="translate(113.3047138047138,233.30681818181822)" d="M0,6.90988298942671A6.90988298942671,6.90988298942671 0 1,1 0,-6.90988298942671A6.90988298942671,6.90988298942671 0 1,1 0,6.90988298942671Z" style="fill: #ff7f0e; opacity: 0.5;"></path><path transform="translate(113.3047138047138,221.40340909090907)" d="M0,6.90988298942671A6.90988298942671,6.90988298942671 0 1,1 0,-6.90988298942671A6.90988298942671,6.90988298942671 0 1,1 0,6.90988298942671Z" style="fill: #ff7f0e; opacity: 0.5;"></path><path transform="translate(113.3047138047138,185.69318181818184)" d="M0,6.90988298942671A6.90988298942671,6.90988298942671 0 1,1 0,-6.90988298942671A6.90988298942671,6.90988298942671 0 1,1 0,6.90988298942671Z" style="fill: #ff7f0e; opacity: 0.5;"></path><path transform="translate(113.3047138047138,173.78977272727275)" d="M0,6.90988298942671A6.90988298942671,6.90988298942671 0 1,1 0,-6.90988298942671A6.90988298942671,6.90988298942671 0 1,1 0,6.90988298942671Z" style="fill: #ff7f0e; opacity: 0.5;"></path><path transform="translate(123.89393939393939,233.30681818181822)" d="M0,6.90988298942671A6.90988298942671,6.90988298942671 0 1,1 0,-6.90988298942671A6.90988298942671,6.90988298942671 0 1,1 0,6.90988298942671Z" style="fill: #ff7f0e; opacity: 0.5;"></path><path transform="translate(123.89393939393939,233.30681818181822)" d="M0,6.90988298942671A6.90988298942671,6.90988298942671 0 1,1 0,-6.90988298942671A6.90988298942671,6.90988298942671 0 1,1 0,6.90988298942671Z" style="fill: #ff7f0e; opacity: 0.5;"></path><path transform="translate(208.6077441077441,209.5)" d="M0,6.90988298942671A6.90988298942671,6.90988298942671 0 1,1 0,-6.90988298942671A6.90988298942671,6.90988298942671 0 1,1 0,6.90988298942671Z" style="fill: #ff7f0e; opacity: 0.5;"></path><path transform="translate(70.94781144781145,233.30681818181822)" d="M0,6.90988298942671A6.90988298942671,6.90988298942671 0 1,1 0,-6.90988298942671A6.90988298942671,6.90988298942671 0 1,1 0,6.90988298942671Z" style="fill: #e377c2; opacity: 0.5;"></path><path transform="translate(70.94781144781145,197.5965909090909)" d="M0,6.90988298942671A6.90988298942671,6.90988298942671 0 1,1 0,-6.90988298942671A6.90988298942671,6.90988298942671 0 1,1 0,6.90988298942671Z" style="fill: #e377c2; opacity: 0.5;"></path><path transform="translate(70.94781144781145,209.5)" d="M0,6.90988298942671A6.90988298942671,6.90988298942671 0 1,1 0,-6.90988298942671A6.90988298942671,6.90988298942671 0 1,1 0,6.90988298942671Z" style="fill: #e377c2; opacity: 0.5;"></path><path transform="translate(70.94781144781145,221.40340909090907)" d="M0,6.90988298942671A6.90988298942671,6.90988298942671 0 1,1 0,-6.90988298942671A6.90988298942671,6.90988298942671 0 1,1 0,6.90988298942671Z" style="fill: #e377c2; opacity: 0.5;"></path><path transform="translate(145.0723905723906,257.11363636363643)" d="M0,6.90988298942671A6.90988298942671,6.90988298942671 0 1,1 0,-6.90988298942671A6.90988298942671,6.90988298942671 0 1,1 0,6.90988298942671Z" style="fill: #e377c2; opacity: 0.5;"></path><path transform="translate(145.0723905723906,257.11363636363643)" d="M0,6.90988298942671A6.90988298942671,6.90988298942671 0 1,1 0,-6.90988298942671A6.90988298942671,6.90988298942671 0 1,1 0,6.90988298942671Z" style="fill: #e377c2; opacity: 0.5;"></path><path transform="translate(145.0723905723906,257.11363636363643)" d="M0,6.90988298942671A6.90988298942671,6.90988298942671 0 1,1 0,-6.90988298942671A6.90988298942671,6.90988298942671 0 1,1 0,6.90988298942671Z" style="fill: #e377c2; opacity: 0.5;"></path><path transform="translate(176.84006734006735,280.9204545454545)" d="M0,6.90988298942671A6.90988298942671,6.90988298942671 0 1,1 0,-6.90988298942671A6.90988298942671,6.90988298942671 0 1,1 0,6.90988298942671Z" style="fill: #2ca02c; opacity: 0.5;"></path><path transform="translate(250.9646464646465,316.6306818181818)" d="M0,6.90988298942671A6.90988298942671,6.90988298942671 0 1,1 0,-6.90988298942671A6.90988298942671,6.90988298942671 0 1,1 0,6.90988298942671Z" style="fill: #2ca02c; opacity: 0.5;"></path><path transform="translate(282.7323232323232,304.72727272727275)" d="M0,6.90988298942671A6.90988298942671,6.90988298942671 0 1,1 0,-6.90988298942671A6.90988298942671,6.90988298942671 0 1,1 0,6.90988298942671Z" style="fill: #2ca02c; opacity: 0.5;"></path><path transform="translate(356.85690235690237,340.4375)" d="M0,6.90988298942671A6.90988298942671,6.90988298942671 0 1,1 0,-6.90988298942671A6.90988298942671,6.90988298942671 0 1,1 0,6.90988298942671Z" style="fill: #2ca02c; opacity: 0.5;"></path><path transform="translate(356.85690235690237,399.9545454545455)" d="M0,6.90988298942671A6.90988298942671,6.90988298942671 0 1,1 0,-6.90988298942671A6.90988298942671,6.90988298942671 0 1,1 0,6.90988298942671Z" style="fill: #2ca02c; opacity: 0.5;"></path><path transform="translate(356.85690235690237,316.6306818181818)" d="M0,6.90988298942671A6.90988298942671,6.90988298942671 0 1,1 0,-6.90988298942671A6.90988298942671,6.90988298942671 0 1,1 0,6.90988298942671Z" style="fill: #2ca02c; opacity: 0.5;"></path><path transform="translate(462.74915824915826,328.53409090909093)" d="M0,6.90988298942671A6.90988298942671,6.90988298942671 0 1,1 0,-6.90988298942671A6.90988298942671,6.90988298942671 0 1,1 0,6.90988298942671Z" style="fill: #2ca02c; opacity: 0.5;"></path><path transform="translate(505.10606060606057,376.14772727272725)" d="M0,6.90988298942671A6.90988298942671,6.90988298942671 0 1,1 0,-6.90988298942671A6.90988298942671,6.90988298942671 0 1,1 0,6.90988298942671Z" style="fill: #2ca02c; opacity: 0.5;"></path><path transform="translate(282.7323232323232,364.2443181818182)" d="M0,6.90988298942671A6.90988298942671,6.90988298942671 0 1,1 0,-6.90988298942671A6.90988298942671,6.90988298942671 0 1,1 0,6.90988298942671Z" style="fill: #2ca02c; opacity: 0.5;"></path><path transform="translate(303.9107744107745,328.53409090909093)" d="M0,6.90988298942671A6.90988298942671,6.90988298942671 0 1,1 0,-6.90988298942671A6.90988298942671,6.90988298942671 0 1,1 0,6.90988298942671Z" style="fill: #2ca02c; opacity: 0.5;"></path><path transform="translate(325.0892255892257,328.53409090909093)" d="M0,6.90988298942671A6.90988298942671,6.90988298942671 0 1,1 0,-6.90988298942671A6.90988298942671,6.90988298942671 0 1,1 0,6.90988298942671Z" style="fill: #2ca02c; opacity: 0.5;"></path><path transform="translate(346.2676767676768,364.2443181818182)" d="M0,6.90988298942671A6.90988298942671,6.90988298942671 0 1,1 0,-6.90988298942671A6.90988298942671,6.90988298942671 0 1,1 0,6.90988298942671Z" style="fill: #2ca02c; opacity: 0.5;"></path><path transform="translate(430.9814814814816,340.4375)" d="M0,6.90988298942671A6.90988298942671,6.90988298942671 0 1,1 0,-6.90988298942671A6.90988298942671,6.90988298942671 0 1,1 0,6.90988298942671Z" style="fill: #2ca02c; opacity: 0.5;"></path><path transform="translate(430.9814814814816,352.3409090909091)" d="M0,6.90988298942671A6.90988298942671,6.90988298942671 0 1,1 0,-6.90988298942671A6.90988298942671,6.90988298942671 0 1,1 0,6.90988298942671Z" style="fill: #2ca02c; opacity: 0.5;"></path><path transform="translate(430.9814814814816,328.53409090909093)" d="M0,6.90988298942671A6.90988298942671,6.90988298942671 0 1,1 0,-6.90988298942671A6.90988298942671,6.90988298942671 0 1,1 0,6.90988298942671Z" style="fill: #2ca02c; opacity: 0.5;"></path><path transform="translate(282.7323232323232,340.4375)" d="M0,6.90988298942671A6.90988298942671,6.90988298942671 0 1,1 0,-6.90988298942671A6.90988298942671,6.90988298942671 0 1,1 0,6.90988298942671Z" style="fill: #2ca02c; opacity: 0.5;"></path><path transform="translate(282.7323232323232,316.6306818181818)" d="M0,6.90988298942671A6.90988298942671,6.90988298942671 0 1,1 0,-6.90988298942671A6.90988298942671,6.90988298942671 0 1,1 0,6.90988298942671Z" style="fill: #2ca02c; opacity: 0.5;"></path><path transform="translate(346.2676767676768,316.6306818181818)" d="M0,6.90988298942671A6.90988298942671,6.90988298942671 0 1,1 0,-6.90988298942671A6.90988298942671,6.90988298942671 0 1,1 0,6.90988298942671Z" style="fill: #2ca02c; opacity: 0.5;"></path><path transform="translate(388.62457912457916,340.4375)" d="M0,6.90988298942671A6.90988298942671,6.90988298942671 0 1,1 0,-6.90988298942671A6.90988298942671,6.90988298942671 0 1,1 0,6.90988298942671Z" style="fill: #2ca02c; opacity: 0.5;"></path><path transform="translate(113.3047138047138,197.5965909090909)" d="M0,6.90988298942671A6.90988298942671,6.90988298942671 0 1,1 0,-6.90988298942671A6.90988298942671,6.90988298942671 0 1,1 0,6.90988298942671Z" style="fill: #1f77b4; opacity: 0.5;"></path><path transform="translate(113.3047138047138,221.40340909090907)" d="M0,6.90988298942671A6.90988298942671,6.90988298942671 0 1,1 0,-6.90988298942671A6.90988298942671,6.90988298942671 0 1,1 0,6.90988298942671Z" style="fill: #1f77b4; opacity: 0.5;"></path><path transform="translate(123.89393939393939,173.78977272727275)" d="M0,6.90988298942671A6.90988298942671,6.90988298942671 0 1,1 0,-6.90988298942671A6.90988298942671,6.90988298942671 0 1,1 0,6.90988298942671Z" style="fill: #ff7f0e; opacity: 0.5;"></path><path transform="translate(123.89393939393939,161.88636363636363)" d="M0,6.90988298942671A6.90988298942671,6.90988298942671 0 1,1 0,-6.90988298942671A6.90988298942671,6.90988298942671 0 1,1 0,6.90988298942671Z" style="fill: #ff7f0e; opacity: 0.5;"></path><path transform="translate(229.7861952861953,221.40340909090907)" d="M0,6.90988298942671A6.90988298942671,6.90988298942671 0 1,1 0,-6.90988298942671A6.90988298942671,6.90988298942671 0 1,1 0,6.90988298942671Z" style="fill: #ff7f0e; opacity: 0.5;"></path><path transform="translate(229.7861952861953,233.30681818181822)" d="M0,6.90988298942671A6.90988298942671,6.90988298942671 0 1,1 0,-6.90988298942671A6.90988298942671,6.90988298942671 0 1,1 0,6.90988298942671Z" style="fill: #ff7f0e; opacity: 0.5;"></path><path transform="translate(176.84006734006735,233.30681818181822)" d="M0,6.90988298942671A6.90988298942671,6.90988298942671 0 1,1 0,-6.90988298942671A6.90988298942671,6.90988298942671 0 1,1 0,6.90988298942671Z" style="fill: #ff7f0e; opacity: 0.5;"></path><path transform="translate(176.84006734006735,245.21022727272725)" d="M0,6.90988298942671A6.90988298942671,6.90988298942671 0 1,1 0,-6.90988298942671A6.90988298942671,6.90988298942671 0 1,1 0,6.90988298942671Z" style="fill: #ff7f0e; opacity: 0.5;"></path><path transform="translate(229.7861952861953,245.21022727272725)" d="M0,6.90988298942671A6.90988298942671,6.90988298942671 0 1,1 0,-6.90988298942671A6.90988298942671,6.90988298942671 0 1,1 0,6.90988298942671Z" style="fill: #ff7f0e; opacity: 0.5;"></path><path transform="translate(208.6077441077441,340.4375)" d="M0,6.90988298942671A6.90988298942671,6.90988298942671 0 1,1 0,-6.90988298942671A6.90988298942671,6.90988298942671 0 1,1 0,6.90988298942671Z" style="fill: #2ca02c; opacity: 0.5;"></path><path transform="translate(208.6077441077441,340.4375)" d="M0,6.90988298942671A6.90988298942671,6.90988298942671 0 1,1 0,-6.90988298942671A6.90988298942671,6.90988298942671 0 1,1 0,6.90988298942671Z" style="fill: #2ca02c; opacity: 0.5;"></path><path transform="translate(282.7323232323232,304.72727272727275)" d="M0,6.90988298942671A6.90988298942671,6.90988298942671 0 1,1 0,-6.90988298942671A6.90988298942671,6.90988298942671 0 1,1 0,6.90988298942671Z" style="fill: #2ca02c; opacity: 0.5;"></path><path transform="translate(452.1599326599327,328.53409090909093)" d="M0,6.90988298942671A6.90988298942671,6.90988298942671 0 1,1 0,-6.90988298942671A6.90988298942671,6.90988298942671 0 1,1 0,6.90988298942671Z" style="fill: #2ca02c; opacity: 0.5;"></path><path transform="translate(187.42929292929296,233.30681818181822)" d="M0,6.90988298942671A6.90988298942671,6.90988298942671 0 1,1 0,-6.90988298942671A6.90988298942671,6.90988298942671 0 1,1 0,6.90988298942671Z" style="fill: #ff7f0e; opacity: 0.5;"></path><path transform="translate(261.55387205387206,233.30681818181822)" d="M0,6.90988298942671A6.90988298942671,6.90988298942671 0 1,1 0,-6.90988298942671A6.90988298942671,6.90988298942671 0 1,1 0,6.90988298942671Z" style="fill: #ff7f0e; opacity: 0.5;"></path><path transform="translate(261.55387205387206,221.40340909090907)" d="M0,6.90988298942671A6.90988298942671,6.90988298942671 0 1,1 0,-6.90988298942671A6.90988298942671,6.90988298942671 0 1,1 0,6.90988298942671Z" style="fill: #ff7f0e; opacity: 0.5;"></path><path transform="translate(261.55387205387206,209.5)" d="M0,6.90988298942671A6.90988298942671,6.90988298942671 0 1,1 0,-6.90988298942671A6.90988298942671,6.90988298942671 0 1,1 0,6.90988298942671Z" style="fill: #ff7f0e; opacity: 0.5;"></path><path transform="translate(420.3922558922559,245.21022727272725)" d="M0,6.90988298942671A6.90988298942671,6.90988298942671 0 1,1 0,-6.90988298942671A6.90988298942671,6.90988298942671 0 1,1 0,6.90988298942671Z" style="fill: #ff7f0e; opacity: 0.5;"></path><path transform="translate(123.89393939393939,245.21022727272725)" d="M0,6.90988298942671A6.90988298942671,6.90988298942671 0 1,1 0,-6.90988298942671A6.90988298942671,6.90988298942671 0 1,1 0,6.90988298942671Z" style="fill: #2ca02c; opacity: 0.5;"></path><path transform="translate(123.89393939393939,257.11363636363643)" d="M0,6.90988298942671A6.90988298942671,6.90988298942671 0 1,1 0,-6.90988298942671A6.90988298942671,6.90988298942671 0 1,1 0,6.90988298942671Z" style="fill: #2ca02c; opacity: 0.5;"></path><path transform="translate(123.89393939393939,221.40340909090907)" d="M0,6.90988298942671A6.90988298942671,6.90988298942671 0 1,1 0,-6.90988298942671A6.90988298942671,6.90988298942671 0 1,1 0,6.90988298942671Z" style="fill: #2ca02c; opacity: 0.5;"></path><path transform="translate(123.89393939393939,245.21022727272725)" d="M0,6.90988298942671A6.90988298942671,6.90988298942671 0 1,1 0,-6.90988298942671A6.90988298942671,6.90988298942671 0 1,1 0,6.90988298942671Z" style="fill: #2ca02c; opacity: 0.5;"></path><path transform="translate(123.89393939393939,233.30681818181822)" d="M0,6.90988298942671A6.90988298942671,6.90988298942671 0 1,1 0,-6.90988298942671A6.90988298942671,6.90988298942671 0 1,1 0,6.90988298942671Z" style="fill: #2ca02c; opacity: 0.5;"></path><path transform="translate(123.89393939393939,269.0170454545455)" d="M0,6.90988298942671A6.90988298942671,6.90988298942671 0 1,1 0,-6.90988298942671A6.90988298942671,6.90988298942671 0 1,1 0,6.90988298942671Z" style="fill: #2ca02c; opacity: 0.5;"></path><path transform="translate(92.12626262626264,233.30681818181822)" d="M0,6.90988298942671A6.90988298942671,6.90988298942671 0 1,1 0,-6.90988298942671A6.90988298942671,6.90988298942671 0 1,1 0,6.90988298942671Z" style="fill: #e377c2; opacity: 0.5;"></path><path transform="translate(92.12626262626264,233.30681818181822)" d="M0,6.90988298942671A6.90988298942671,6.90988298942671 0 1,1 0,-6.90988298942671A6.90988298942671,6.90988298942671 0 1,1 0,6.90988298942671Z" style="fill: #e377c2; opacity: 0.5;"></path><path transform="translate(123.89393939393939,233.30681818181822)" d="M0,6.90988298942671A6.90988298942671,6.90988298942671 0 1,1 0,-6.90988298942671A6.90988298942671,6.90988298942671 0 1,1 0,6.90988298942671Z" style="fill: #e377c2; opacity: 0.5;"></path><path transform="translate(123.89393939393939,233.30681818181822)" d="M0,6.90988298942671A6.90988298942671,6.90988298942671 0 1,1 0,-6.90988298942671A6.90988298942671,6.90988298942671 0 1,1 0,6.90988298942671Z" style="fill: #e377c2; opacity: 0.5;"></path><path transform="translate(123.89393939393939,245.21022727272725)" d="M0,6.90988298942671A6.90988298942671,6.90988298942671 0 1,1 0,-6.90988298942671A6.90988298942671,6.90988298942671 0 1,1 0,6.90988298942671Z" style="fill: #1f77b4; opacity: 0.5;"></path><path transform="translate(123.89393939393939,221.40340909090907)" d="M0,6.90988298942671A6.90988298942671,6.90988298942671 0 1,1 0,-6.90988298942671A6.90988298942671,6.90988298942671 0 1,1 0,6.90988298942671Z" style="fill: #1f77b4; opacity: 0.5;"></path><path transform="translate(123.89393939393939,245.21022727272725)" d="M0,6.90988298942671A6.90988298942671,6.90988298942671 0 1,1 0,-6.90988298942671A6.90988298942671,6.90988298942671 0 1,1 0,6.90988298942671Z" style="fill: #1f77b4; opacity: 0.5;"></path><path transform="translate(123.89393939393939,221.40340909090907)" d="M0,6.90988298942671A6.90988298942671,6.90988298942671 0 1,1 0,-6.90988298942671A6.90988298942671,6.90988298942671 0 1,1 0,6.90988298942671Z" style="fill: #1f77b4; opacity: 0.5;"></path><path transform="translate(145.0723905723906,304.72727272727275)" d="M0,6.90988298942671A6.90988298942671,6.90988298942671 0 1,1 0,-6.90988298942671A6.90988298942671,6.90988298942671 0 1,1 0,6.90988298942671Z" style="fill: #2ca02c; opacity: 0.5;"></path><path transform="translate(145.0723905723906,304.72727272727275)" d="M0,6.90988298942671A6.90988298942671,6.90988298942671 0 1,1 0,-6.90988298942671A6.90988298942671,6.90988298942671 0 1,1 0,6.90988298942671Z" style="fill: #2ca02c; opacity: 0.5;"></path><path transform="translate(219.19696969696972,316.6306818181818)" d="M0,6.90988298942671A6.90988298942671,6.90988298942671 0 1,1 0,-6.90988298942671A6.90988298942671,6.90988298942671 0 1,1 0,6.90988298942671Z" style="fill: #2ca02c; opacity: 0.5;"></path><path transform="translate(219.19696969696972,340.4375)" d="M0,6.90988298942671A6.90988298942671,6.90988298942671 0 1,1 0,-6.90988298942671A6.90988298942671,6.90988298942671 0 1,1 0,6.90988298942671Z" style="fill: #2ca02c; opacity: 0.5;"></path><path transform="translate(282.7323232323232,304.72727272727275)" d="M0,6.90988298942671A6.90988298942671,6.90988298942671 0 1,1 0,-6.90988298942671A6.90988298942671,6.90988298942671 0 1,1 0,6.90988298942671Z" style="fill: #2ca02c; opacity: 0.5;"></path><path transform="translate(356.85690235690237,340.4375)" d="M0,6.90988298942671A6.90988298942671,6.90988298942671 0 1,1 0,-6.90988298942671A6.90988298942671,6.90988298942671 0 1,1 0,6.90988298942671Z" style="fill: #2ca02c; opacity: 0.5;"></path><path transform="translate(92.12626262626264,197.5965909090909)" d="M0,6.90988298942671A6.90988298942671,6.90988298942671 0 1,1 0,-6.90988298942671A6.90988298942671,6.90988298942671 0 1,1 0,6.90988298942671Z" style="fill: #ff7f0e; opacity: 0.5;"></path><path transform="translate(92.12626262626264,221.40340909090907)" d="M0,6.90988298942671A6.90988298942671,6.90988298942671 0 1,1 0,-6.90988298942671A6.90988298942671,6.90988298942671 0 1,1 0,6.90988298942671Z" style="fill: #ff7f0e; opacity: 0.5;"></path><path transform="translate(113.3047138047138,173.78977272727275)" d="M0,6.90988298942671A6.90988298942671,6.90988298942671 0 1,1 0,-6.90988298942671A6.90988298942671,6.90988298942671 0 1,1 0,6.90988298942671Z" style="fill: #ff7f0e; opacity: 0.5;"></path><path transform="translate(113.3047138047138,173.78977272727275)" d="M0,6.90988298942671A6.90988298942671,6.90988298942671 0 1,1 0,-6.90988298942671A6.90988298942671,6.90988298942671 0 1,1 0,6.90988298942671Z" style="fill: #ff7f0e; opacity: 0.5;"></path><path transform="translate(176.84006734006735,233.30681818181822)" d="M0,6.90988298942671A6.90988298942671,6.90988298942671 0 1,1 0,-6.90988298942671A6.90988298942671,6.90988298942671 0 1,1 0,6.90988298942671Z" style="fill: #ff7f0e; opacity: 0.5;"></path><path transform="translate(176.84006734006735,233.30681818181822)" d="M0,6.90988298942671A6.90988298942671,6.90988298942671 0 1,1 0,-6.90988298942671A6.90988298942671,6.90988298942671 0 1,1 0,6.90988298942671Z" style="fill: #ff7f0e; opacity: 0.5;"></path><path transform="translate(229.7861952861953,209.5)" d="M0,6.90988298942671A6.90988298942671,6.90988298942671 0 1,1 0,-6.90988298942671A6.90988298942671,6.90988298942671 0 1,1 0,6.90988298942671Z" style="fill: #ff7f0e; opacity: 0.5;"></path><path transform="translate(92.12626262626264,221.40340909090907)" d="M0,6.90988298942671A6.90988298942671,6.90988298942671 0 1,1 0,-6.90988298942671A6.90988298942671,6.90988298942671 0 1,1 0,6.90988298942671Z" style="fill: #1f77b4; opacity: 0.5;"></path><path transform="translate(92.12626262626264,197.5965909090909)" d="M0,6.90988298942671A6.90988298942671,6.90988298942671 0 1,1 0,-6.90988298942671A6.90988298942671,6.90988298942671 0 1,1 0,6.90988298942671Z" style="fill: #1f77b4; opacity: 0.5;"></path><path transform="translate(113.3047138047138,173.78977272727275)" d="M0,6.90988298942671A6.90988298942671,6.90988298942671 0 1,1 0,-6.90988298942671A6.90988298942671,6.90988298942671 0 1,1 0,6.90988298942671Z" style="fill: #1f77b4; opacity: 0.5;"></path><path transform="translate(113.3047138047138,173.78977272727275)" d="M0,6.90988298942671A6.90988298942671,6.90988298942671 0 1,1 0,-6.90988298942671A6.90988298942671,6.90988298942671 0 1,1 0,6.90988298942671Z" style="fill: #1f77b4; opacity: 0.5;"></path><path transform="translate(176.84006734006735,233.30681818181822)" d="M0,6.90988298942671A6.90988298942671,6.90988298942671 0 1,1 0,-6.90988298942671A6.90988298942671,6.90988298942671 0 1,1 0,6.90988298942671Z" style="fill: #1f77b4; opacity: 0.5;"></path><path transform="translate(176.84006734006735,233.30681818181822)" d="M0,6.90988298942671A6.90988298942671,6.90988298942671 0 1,1 0,-6.90988298942671A6.90988298942671,6.90988298942671 0 1,1 0,6.90988298942671Z" style="fill: #1f77b4; opacity: 0.5;"></path><path transform="translate(208.6077441077441,221.40340909090907)" d="M0,6.90988298942671A6.90988298942671,6.90988298942671 0 1,1 0,-6.90988298942671A6.90988298942671,6.90988298942671 0 1,1 0,6.90988298942671Z" style="fill: #1f77b4; opacity: 0.5;"></path><path transform="translate(49.76936026936027,185.69318181818184)" d="M0,6.90988298942671A6.90988298942671,6.90988298942671 0 1,1 0,-6.90988298942671A6.90988298942671,6.90988298942671 0 1,1 0,6.90988298942671Z" style="fill: #1f77b4; opacity: 0.5;"></path><path transform="translate(49.76936026936027,149.98295454545453)" d="M0,6.90988298942671A6.90988298942671,6.90988298942671 0 1,1 0,-6.90988298942671A6.90988298942671,6.90988298942671 0 1,1 0,6.90988298942671Z" style="fill: #1f77b4; opacity: 0.5;"></path><path transform="translate(49.76936026936027,126.17613636363637)" d="M0,6.90988298942671A6.90988298942671,6.90988298942671 0 1,1 0,-6.90988298942671A6.90988298942671,6.90988298942671 0 1,1 0,6.90988298942671Z" style="fill: #1f77b4; opacity: 0.5;"></path><path transform="translate(49.76936026936027,102.3693181818182)" d="M0,6.90988298942671A6.90988298942671,6.90988298942671 0 1,1 0,-6.90988298942671A6.90988298942671,6.90988298942671 0 1,1 0,6.90988298942671Z" style="fill: #1f77b4; opacity: 0.5;"></path><path transform="translate(49.76936026936027,126.17613636363637)" d="M0,6.90988298942671A6.90988298942671,6.90988298942671 0 1,1 0,-6.90988298942671A6.90988298942671,6.90988298942671 0 1,1 0,6.90988298942671Z" style="fill: #1f77b4; opacity: 0.5;"></path><path transform="translate(356.85690235690237,364.2443181818182)" d="M0,6.90988298942671A6.90988298942671,6.90988298942671 0 1,1 0,-6.90988298942671A6.90988298942671,6.90988298942671 0 1,1 0,6.90988298942671Z" style="fill: #2ca02c; opacity: 0.5;"></path><path transform="translate(462.74915824915826,328.53409090909093)" d="M0,6.90988298942671A6.90988298942671,6.90988298942671 0 1,1 0,-6.90988298942671A6.90988298942671,6.90988298942671 0 1,1 0,6.90988298942671Z" style="fill: #2ca02c; opacity: 0.5;"></path><path transform="translate(145.0723905723906,304.72727272727275)" d="M0,6.90988298942671A6.90988298942671,6.90988298942671 0 1,1 0,-6.90988298942671A6.90988298942671,6.90988298942671 0 1,1 0,6.90988298942671Z" style="fill: #8c564b; opacity: 0.5;"></path><path transform="translate(145.0723905723906,304.72727272727275)" d="M0,6.90988298942671A6.90988298942671,6.90988298942671 0 1,1 0,-6.90988298942671A6.90988298942671,6.90988298942671 0 1,1 0,6.90988298942671Z" style="fill: #8c564b; opacity: 0.5;"></path><path transform="translate(145.0723905723906,280.9204545454545)" d="M0,6.90988298942671A6.90988298942671,6.90988298942671 0 1,1 0,-6.90988298942671A6.90988298942671,6.90988298942671 0 1,1 0,6.90988298942671Z" style="fill: #8c564b; opacity: 0.5;"></path><path transform="translate(219.19696969696972,340.4375)" d="M0,6.90988298942671A6.90988298942671,6.90988298942671 0 1,1 0,-6.90988298942671A6.90988298942671,6.90988298942671 0 1,1 0,6.90988298942671Z" style="fill: #8c564b; opacity: 0.5;"></path><path transform="translate(219.19696969696972,316.6306818181818)" d="M0,6.90988298942671A6.90988298942671,6.90988298942671 0 1,1 0,-6.90988298942671A6.90988298942671,6.90988298942671 0 1,1 0,6.90988298942671Z" style="fill: #8c564b; opacity: 0.5;"></path><path transform="translate(282.7323232323232,328.53409090909093)" d="M0,6.90988298942671A6.90988298942671,6.90988298942671 0 1,1 0,-6.90988298942671A6.90988298942671,6.90988298942671 0 1,1 0,6.90988298942671Z" style="fill: #8c564b; opacity: 0.5;"></path><path transform="translate(282.7323232323232,304.72727272727275)" d="M0,6.90988298942671A6.90988298942671,6.90988298942671 0 1,1 0,-6.90988298942671A6.90988298942671,6.90988298942671 0 1,1 0,6.90988298942671Z" style="fill: #8c564b; opacity: 0.5;"></path><path transform="translate(70.94781144781145,197.5965909090909)" d="M0,6.90988298942671A6.90988298942671,6.90988298942671 0 1,1 0,-6.90988298942671A6.90988298942671,6.90988298942671 0 1,1 0,6.90988298942671Z" style="fill: #1f77b4; opacity: 0.5;"></path><path transform="translate(70.94781144781145,233.30681818181822)" d="M0,6.90988298942671A6.90988298942671,6.90988298942671 0 1,1 0,-6.90988298942671A6.90988298942671,6.90988298942671 0 1,1 0,6.90988298942671Z" style="fill: #1f77b4; opacity: 0.5;"></path><path transform="translate(70.94781144781145,197.5965909090909)" d="M0,6.90988298942671A6.90988298942671,6.90988298942671 0 1,1 0,-6.90988298942671A6.90988298942671,6.90988298942671 0 1,1 0,6.90988298942671Z" style="fill: #1f77b4; opacity: 0.5;"></path><path transform="translate(70.94781144781145,197.5965909090909)" d="M0,6.90988298942671A6.90988298942671,6.90988298942671 0 1,1 0,-6.90988298942671A6.90988298942671,6.90988298942671 0 1,1 0,6.90988298942671Z" style="fill: #1f77b4; opacity: 0.5;"></path><path transform="translate(155.66161616161614,257.11363636363643)" d="M0,6.90988298942671A6.90988298942671,6.90988298942671 0 1,1 0,-6.90988298942671A6.90988298942671,6.90988298942671 0 1,1 0,6.90988298942671Z" style="fill: #1f77b4; opacity: 0.5;"></path><path transform="translate(60.35858585858585,19.045454545454575)" d="M0,6.90988298942671A6.90988298942671,6.90988298942671 0 1,1 0,-6.90988298942671A6.90988298942671,6.90988298942671 0 1,1 0,6.90988298942671Z" style="fill: #1f77b4; opacity: 0.5;"></path><path transform="translate(70.94781144781145,197.5965909090909)" d="M0,6.90988298942671A6.90988298942671,6.90988298942671 0 1,1 0,-6.90988298942671A6.90988298942671,6.90988298942671 0 1,1 0,6.90988298942671Z" style="fill: #1f77b4; opacity: 0.5;"></path><path transform="translate(70.94781144781145,233.30681818181822)" d="M0,6.90988298942671A6.90988298942671,6.90988298942671 0 1,1 0,-6.90988298942671A6.90988298942671,6.90988298942671 0 1,1 0,6.90988298942671Z" style="fill: #1f77b4; opacity: 0.5;"></path><path transform="translate(70.94781144781145,197.5965909090909)" d="M0,6.90988298942671A6.90988298942671,6.90988298942671 0 1,1 0,-6.90988298942671A6.90988298942671,6.90988298942671 0 1,1 0,6.90988298942671Z" style="fill: #1f77b4; opacity: 0.5;"></path><path transform="translate(70.94781144781145,197.5965909090909)" d="M0,6.90988298942671A6.90988298942671,6.90988298942671 0 1,1 0,-6.90988298942671A6.90988298942671,6.90988298942671 0 1,1 0,6.90988298942671Z" style="fill: #1f77b4; opacity: 0.5;"></path><path transform="translate(123.89393939393939,197.5965909090909)" d="M0,6.90988298942671A6.90988298942671,6.90988298942671 0 1,1 0,-6.90988298942671A6.90988298942671,6.90988298942671 0 1,1 0,6.90988298942671Z" style="fill: #1f77b4; opacity: 0.5;"></path><path transform="translate(123.89393939393939,197.5965909090909)" d="M0,6.90988298942671A6.90988298942671,6.90988298942671 0 1,1 0,-6.90988298942671A6.90988298942671,6.90988298942671 0 1,1 0,6.90988298942671Z" style="fill: #1f77b4; opacity: 0.5;"></path><path transform="translate(155.66161616161614,269.0170454545455)" d="M0,6.90988298942671A6.90988298942671,6.90988298942671 0 1,1 0,-6.90988298942671A6.90988298942671,6.90988298942671 0 1,1 0,6.90988298942671Z" style="fill: #1f77b4; opacity: 0.5;"></path><path transform="translate(155.66161616161614,257.11363636363643)" d="M0,6.90988298942671A6.90988298942671,6.90988298942671 0 1,1 0,-6.90988298942671A6.90988298942671,6.90988298942671 0 1,1 0,6.90988298942671Z" style="fill: #1f77b4; opacity: 0.5;"></path><path transform="translate(60.35858585858585,19.045454545454575)" d="M0,6.90988298942671A6.90988298942671,6.90988298942671 0 1,1 0,-6.90988298942671A6.90988298942671,6.90988298942671 0 1,1 0,6.90988298942671Z" style="fill: #e377c2; opacity: 0.5;"></path><path transform="translate(60.35858585858585,54.75568181818184)" d="M0,6.90988298942671A6.90988298942671,6.90988298942671 0 1,1 0,-6.90988298942671A6.90988298942671,6.90988298942671 0 1,1 0,6.90988298942671Z" style="fill: #e377c2; opacity: 0.5;"></path><path transform="translate(70.94781144781145,197.5965909090909)" d="M0,6.90988298942671A6.90988298942671,6.90988298942671 0 1,1 0,-6.90988298942671A6.90988298942671,6.90988298942671 0 1,1 0,6.90988298942671Z" style="fill: #e377c2; opacity: 0.5;"></path><path transform="translate(70.94781144781145,233.30681818181822)" d="M0,6.90988298942671A6.90988298942671,6.90988298942671 0 1,1 0,-6.90988298942671A6.90988298942671,6.90988298942671 0 1,1 0,6.90988298942671Z" style="fill: #e377c2; opacity: 0.5;"></path><path transform="translate(123.89393939393939,209.5)" d="M0,6.90988298942671A6.90988298942671,6.90988298942671 0 1,1 0,-6.90988298942671A6.90988298942671,6.90988298942671 0 1,1 0,6.90988298942671Z" style="fill: #e377c2; opacity: 0.5;"></path><path transform="translate(123.89393939393939,197.5965909090909)" d="M0,6.90988298942671A6.90988298942671,6.90988298942671 0 1,1 0,-6.90988298942671A6.90988298942671,6.90988298942671 0 1,1 0,6.90988298942671Z" style="fill: #e377c2; opacity: 0.5;"></path><path transform="translate(49.76936026936027,197.5965909090909)" d="M0,6.90988298942671A6.90988298942671,6.90988298942671 0 1,1 0,-6.90988298942671A6.90988298942671,6.90988298942671 0 1,1 0,6.90988298942671Z" style="fill: #ff7f0e; opacity: 0.5;"></path><path transform="translate(49.76936026936027,197.5965909090909)" d="M0,6.90988298942671A6.90988298942671,6.90988298942671 0 1,1 0,-6.90988298942671A6.90988298942671,6.90988298942671 0 1,1 0,6.90988298942671Z" style="fill: #ff7f0e; opacity: 0.5;"></path><path transform="translate(70.94781144781145,209.5)" d="M0,6.90988298942671A6.90988298942671,6.90988298942671 0 1,1 0,-6.90988298942671A6.90988298942671,6.90988298942671 0 1,1 0,6.90988298942671Z" style="fill: #ff7f0e; opacity: 0.5;"></path><path transform="translate(70.94781144781145,197.5965909090909)" d="M0,6.90988298942671A6.90988298942671,6.90988298942671 0 1,1 0,-6.90988298942671A6.90988298942671,6.90988298942671 0 1,1 0,6.90988298942671Z" style="fill: #ff7f0e; opacity: 0.5;"></path><path transform="translate(155.66161616161614,233.30681818181822)" d="M0,6.90988298942671A6.90988298942671,6.90988298942671 0 1,1 0,-6.90988298942671A6.90988298942671,6.90988298942671 0 1,1 0,6.90988298942671Z" style="fill: #ff7f0e; opacity: 0.5;"></path><path transform="translate(155.66161616161614,233.30681818181822)" d="M0,6.90988298942671A6.90988298942671,6.90988298942671 0 1,1 0,-6.90988298942671A6.90988298942671,6.90988298942671 0 1,1 0,6.90988298942671Z" style="fill: #ff7f0e; opacity: 0.5;"></path><path transform="translate(240.3754208754209,233.30681818181822)" d="M0,6.90988298942671A6.90988298942671,6.90988298942671 0 1,1 0,-6.90988298942671A6.90988298942671,6.90988298942671 0 1,1 0,6.90988298942671Z" style="fill: #ff7f0e; opacity: 0.5;"></path></g><g id="g77" class="type-group"><g transform="translate(640.5,0.5)"><rect class="background" width="77" height="121" style="pointer-events: none; fill: none;"></rect><g id="g78" class="type-text" style="pointer-events: none;"><text x="3" y="3" text-anchor="start" dy=".9em" style="font-weight: bold; font-style: normal; font-variant: normal; font-size: 11px; line-height: normal; font-family: sans-serif; fill: #000000; opacity: 1;">class</text></g><g id="g79" class="type-symbol" style="pointer-events: none;"><path transform="translate(7.5,23)" d="M0,3.989422804014327A3.989422804014327,3.989422804014327 0 1,1 0,-3.989422804014327A3.989422804014327,3.989422804014327 0 1,1 0,3.989422804014327Z" style="fill: #1f77b4; stroke: #888888; stroke-width: 1px; opacity: 1;"></path><path transform="translate(7.5,38)" d="M0,3.989422804014327A3.989422804014327,3.989422804014327 0 1,1 0,-3.989422804014327A3.989422804014327,3.989422804014327 0 1,1 0,3.989422804014327Z" style="fill: #ff7f0e; stroke: #888888; stroke-width: 1px; opacity: 1;"></path><path transform="translate(7.5,53)" d="M0,3.989422804014327A3.989422804014327,3.989422804014327 0 1,1 0,-3.989422804014327A3.989422804014327,3.989422804014327 0 1,1 0,3.989422804014327Z" style="fill: #2ca02c; stroke: #888888; stroke-width: 1px; opacity: 1;"></path><path transform="translate(7.5,68)" d="M0,3.989422804014327A3.989422804014327,3.989422804014327 0 1,1 0,-3.989422804014327A3.989422804014327,3.989422804014327 0 1,1 0,3.989422804014327Z" style="fill: #d62728; stroke: #888888; stroke-width: 1px; opacity: 1;"></path><path transform="translate(7.5,83)" d="M0,3.989422804014327A3.989422804014327,3.989422804014327 0 1,1 0,-3.989422804014327A3.989422804014327,3.989422804014327 0 1,1 0,3.989422804014327Z" style="fill: #9467bd; stroke: #888888; stroke-width: 1px; opacity: 1;"></path><path transform="translate(7.5,98)" d="M0,3.989422804014327A3.989422804014327,3.989422804014327 0 1,1 0,-3.989422804014327A3.989422804014327,3.989422804014327 0 1,1 0,3.989422804014327Z" style="fill: #8c564b; stroke: #888888; stroke-width: 1px; opacity: 1;"></path><path transform="translate(7.5,113)" d="M0,3.989422804014327A3.989422804014327,3.989422804014327 0 1,1 0,-3.989422804014327A3.989422804014327,3.989422804014327 0 1,1 0,3.989422804014327Z" style="fill: #e377c2; stroke: #888888; stroke-width: 1px; opacity: 1;"></path></g><g id="g80" class="type-text" style="pointer-events: none;"><text x="16" y="23" text-anchor="start" dy=".35em" style="font-style: normal; font-variant: normal; font-weight: normal; font-size: 10px; line-height: normal; font-family: sans-serif; fill: #000000; opacity: 1;">compact</text><text x="16" y="38" text-anchor="start" dy=".35em" style="font-style: normal; font-variant: normal; font-weight: normal; font-size: 10px; line-height: normal; font-family: sans-serif; fill: #000000; opacity: 1;">midsize</text><text x="16" y="53" text-anchor="start" dy=".35em" style="font-style: normal; font-variant: normal; font-weight: normal; font-size: 10px; line-height: normal; font-family: sans-serif; fill: #000000; opacity: 1;">suv</text><text x="16" y="68" text-anchor="start" dy=".35em" style="font-style: normal; font-variant: normal; font-weight: normal; font-size: 10px; line-height: normal; font-family: sans-serif; fill: #000000; opacity: 1;">2seater</text><text x="16" y="83" text-anchor="start" dy=".35em" style="font-style: normal; font-variant: normal; font-weight: normal; font-size: 10px; line-height: normal; font-family: sans-serif; fill: #000000; opacity: 1;">minivan</text><text x="16" y="98" text-anchor="start" dy=".35em" style="font-style: normal; font-variant: normal; font-weight: normal; font-size: 10px; line-height: normal; font-family: sans-serif; fill: #000000; opacity: 1;">pickup</text><text x="16" y="113" text-anchor="start" dy=".35em" style="font-style: normal; font-variant: normal; font-weight: normal; font-size: 10px; line-height: normal; font-family: sans-serif; fill: #000000; opacity: 1;">subcompact</text></g></g></g></g></g></g></svg>