<svg class="marks" width="615" height="378" xmlns="http://www.w3.org/2000/svg"><g transform="translate(46,6)"><g id="g19" class="type-group"><g transform="translate(0,0)"><rect class="background" width="563" height="324" style="pointer-events: none; fill: none;"></rect><g id="g20" class="type-group"><g transform="translate(0,324)"><rect class="background" width="0" height="0" style="pointer-events: none; fill: none;"></rect><g id="g21" class="type-rule" style="pointer-events: none;"><line x1="24.389646916622112" y1="-324" x2="24.389646916622112" y2="0" style="fill: none; stroke: #d8d8d8; stroke-width: 1px; opacity: 1;"></line><line x1="89.82280746612119" y1="-324" x2="89.82280746612119" y2="0" style="fill: none; stroke: #d8d8d8; stroke-width: 1px; opacity: 1;"></line><line x1="155.25596801562028" y1="-324" x2="155.25596801562028" y2="0" style="fill: none; stroke: #d8d8d8; stroke-width: 1px; opacity: 1;"></line><line x1="220.68912856511935" y1="-324" x2="220.68912856511935" y2="0" style="fill: none; stroke: #d8d8d8; stroke-width: 1px; opacity: 1;"></line><line x1="286.1222891146184" y1="-324" x2="286.1222891146184" y2="0" style="fill: none; stroke: #d8d8d8; stroke-width: 1px; opacity: 1;"></line><line x1="351.55544966411753" y1="-324" x2="351.55544966411753" y2="0" style="fill: none; stroke: #d8d8d8; stroke-width: 1px; opacity: 1;"></line><line x1="416.9886102136166" y1="-324" x2="416.9886102136166" y2="0" style="fill: none; stroke: #d8d8d8; stroke-width: 1px; opacity: 1;"></line><line x1="482.42177076311566" y1="-324" x2="482.42177076311566" y2="0" style="fill: none; stroke: #d8d8d8; stroke-width: 1px; opacity: 1;"></line><line x1="547.8549313126148" y1="-324" x2="547.8549313126148" y2="0" style="fill: none; stroke: #d8d8d8; stroke-width: 1px; opacity: 1;"></line></g><g id="g22" class="type-rule" style="pointer-events: none;"><line x1="24.389646916622112" y1="0" x2="24.389646916622112" y2="6" style="fill: none; stroke: #000000; stroke-width: 1px; opacity: 1;"></line><line x1="89.82280746612119" y1="0" x2="89.82280746612119" y2="6" style="fill: none; stroke: #000000; stroke-width: 1px; opacity: 1;"></line><line x1="155.25596801562028" y1="0" x2="155.25596801562028" y2="6" style="fill: none; stroke: #000000; stroke-width: 1px; opacity: 1;"></line><line x1="220.68912856511935" y1="0" x2="220.68912856511935" y2="6" style="fill: none; stroke: #000000; stroke-width: 1px; opacity: 1;"></line><line x1="286.1222891146184" y1="0" x2="286.1222891146184" y2="6" style="fill: none; stroke: #000000; stroke-width: 1px; opacity: 1;"></line><line x1="351.55544966411753" y1="0" x2="351.55544966411753" y2="6" style="fill: none; stroke: #000000; stroke-width: 1px; opacity: 1;"></line><line x1="416.9886102136166" y1="0" x2="416.9886102136166" y2="6" style="fill: none; stroke: #000000; stroke-width: 1px; opacity: 1;"></line><line x1="482.42177076311566" y1="0" x2="482.42177076311566" y2="6" style="fill: none; stroke: #000000; stroke-width: 1px; opacity: 1;"></line><line x1="547.8549313126148" y1="0" x2="547.8549313126148" y2="6" style="fill: none; stroke: #000000; stroke-width: 1px; opacity: 1;"></line></g><g id="g23" class="type-rule" style="pointer-events: none;"></g><g id="g24" class="type-text"><text x="24.389646916622112" y="9" text-anchor="middle" dy=".9em" style="font-style: normal; font-variant: normal; font-weight: normal; font-size: 11px; line-height: normal; font-family: sans-serif; fill: #000000; opacity: 1;">1.5</text><text x="89.82280746612119" y="9" text-anchor="middle" dy=".9em" style="font-style: normal; font-variant: normal; font-weight: normal; font-size: 11px; line-height: normal; font-family: sans-serif; fill: #000000; opacity: 1;">2.0</text><text x="155.25596801562028" y="9" text-anchor="middle" dy=".9em" style="font-style: normal; font-variant: normal; font-weight: normal; font-size: 11px; line-height: normal; font-family: sans-serif; fill: #000000; opacity: 1;">2.5</text><text x="220.68912856511935" y="9" text-anchor="middle" dy=".9em" style="font-style: normal; font-variant: normal; font-weight: normal; font-size: 11px; line-height: normal; font-family: sans-serif; fill: #000000; opacity: 1;">3.0</text><text x="286.1222891146184" y="9" text-anchor="middle" dy=".9em" style="font-style: normal; font-variant: normal; font-weight: normal; font-size: 11px; line-height: normal; font-family: sans-serif; fill: #000000; opacity: 1;">3.5</text><text x="351.55544966411753" y="9" text-anchor="middle" dy=".9em" style="font-style: normal; font-variant: normal; font-weight: normal; font-size: 11px; line-height: normal; font-family: sans-serif; fill: #000000; opacity: 1;">4.0</text><text x="416.9886102136166" y="9" text-anchor="middle" dy=".9em" style="font-style: normal; font-variant: normal; font-weight: normal; font-size: 11px; line-height: normal; font-family: sans-serif; fill: #000000; opacity: 1;">4.5</text><text x="482.42177076311566" y="9" text-anchor="middle" dy=".9em" style="font-style: normal; font-variant: normal; font-weight: normal; font-size: 11px; line-height: normal; font-family: sans-serif; fill: #000000; opacity: 1;">5.0</text><text x="547.8549313126148" y="9" text-anchor="middle" dy=".9em" style="font-style: normal; font-variant: normal; font-weight: normal; font-size: 11px; line-height: normal; font-family: sans-serif; fill: #000000; opacity: 1;">5.5</text></g><g id="g25" class="type-path" style="pointer-events: none;"><path transform="translate(0.5,0.5)" d="M0,6V0H563V6" style="fill: none; stroke: #000000; stroke-width: 1px;"></path></g><g id="g26" class="type-text"><text x="281" y="35" text-anchor="middle" dy=".35em" style="font-weight: bold; font-style: normal; font-variant: normal; font-size: 11px; line-height: normal; font-family: sans-serif; fill: #000000;">wt</text></g></g></g><g id="g27" class="type-group"><g transform="translate(0,0)"><rect class="background" width="0" height="0" style="pointer-events: none; fill: none;"></rect><g id="g28" class="type-rule" style="pointer-events: none;"><line x1="0" y1="315.46019686952576" x2="563" y2="315.46019686952576" style="fill: none; stroke: #d8d8d8; stroke-width: 1px; opacity: 1;"></line><line x1="0" y1="263.516784388167" x2="563" y2="263.516784388167" style="fill: none; stroke: #d8d8d8; stroke-width: 1px; opacity: 1;"></line><line x1="0" y1="211.5733719068083" x2="563" y2="211.5733719068083" style="fill: none; stroke: #d8d8d8; stroke-width: 1px; opacity: 1;"></line><line x1="0" y1="159.62995942544956" x2="563" y2="159.62995942544956" style="fill: none; stroke: #d8d8d8; stroke-width: 1px; opacity: 1;"></line><line x1="0" y1="107.68654694409084" x2="563" y2="107.68654694409084" style="fill: none; stroke: #d8d8d8; stroke-width: 1px; opacity: 1;"></line><line x1="0" y1="55.7431344627321" x2="563" y2="55.7431344627321" style="fill: none; stroke: #d8d8d8; stroke-width: 1px; opacity: 1;"></line><line x1="0" y1="3.799721981373364" x2="563" y2="3.799721981373364" style="fill: none; stroke: #d8d8d8; stroke-width: 1px; opacity: 1;"></line></g><g id="g29" class="type-rule" style="pointer-events: none;"><line x1="-6" y1="315.46019686952576" x2="0" y2="315.46019686952576" style="fill: none; stroke: #000000; stroke-width: 1px; opacity: 1;"></line><line x1="-6" y1="263.516784388167" x2="0" y2="263.516784388167" style="fill: none; stroke: #000000; stroke-width: 1px; opacity: 1;"></line><line x1="-6" y1="211.5733719068083" x2="0" y2="211.5733719068083" style="fill: none; stroke: #000000; stroke-width: 1px; opacity: 1;"></line><line x1="-6" y1="159.62995942544956" x2="0" y2="159.62995942544956" style="fill: none; stroke: #000000; stroke-width: 1px; opacity: 1;"></line><line x1="-6" y1="107.68654694409084" x2="0" y2="107.68654694409084" style="fill: none; stroke: #000000; stroke-width: 1px; opacity: 1;"></line><line x1="-6" y1="55.7431344627321" x2="0" y2="55.7431344627321" style="fill: none; stroke: #000000; stroke-width: 1px; opacity: 1;"></line><line x1="-6" y1="3.799721981373364" x2="0" y2="3.799721981373364" style="fill: none; stroke: #000000; stroke-width: 1px; opacity: 1;"></line></g><g id="g30" class="type-rule" style="pointer-events: none;"></g><g id="g31" class="type-text"><text x="-9" y="315.46019686952576" text-anchor="end" dy=".35em" style="font-style: normal; font-variant: normal; font-weight: normal; font-size: 11px; line-height: normal; font-family: sans-serif; fill: #000000; opacity: 1;">5</text><text x="-9" y="263.516784388167" text-anchor="end" dy=".35em" style="font-style: normal; font-variant: normal; font-weight: normal; font-size: 11px; line-height: normal; font-family: sans-serif; fill: #000000; opacity: 1;">10</text><text x="-9" y="211.5733719068083" text-anchor="end" dy=".35em" style="font-style: normal; font-variant: normal; font-weight: normal; font-size: 11px; line-height: normal; font-family: sans-serif; fill: #000000; opacity: 1;">15</text><text x="-9" y="159.62995942544956" text-anchor="end" dy=".35em" style="font-style: normal; font-variant: normal; font-weight: normal; font-size: 11px; line-height: normal; font-family: sans-serif; fill: #000000; opacity: 1;">20</text><text x="-9" y="107.68654694409084" text-anchor="end" dy=".35em" style="font-style: normal; font-variant: normal; font-weight: normal; font-size: 11px; line-height: normal; font-family: sans-serif; fill: #000000; opacity: 1;">25</text><text x="-9" y="55.7431344627321" text-anchor="end" dy=".35em" style="font-style: normal; font-variant: normal; font-weight: normal; font-size: 11px; line-height: normal; font-family: sans-serif; fill: #000000; opacity: 1;">30</text><text x="-9" y="3.799721981373364" text-anchor="end" dy=".35em" style="font-style: normal; font-variant: normal; font-weight: normal; font-size: 11px; line-height: normal; font-family: sans-serif; fill: #000000; opacity: 1;">35</text></g><g id="g32" class="type-path" style="pointer-events: none;"><path transform="translate(0.5,0.5)" d="M-6,0H0V324H-6" style="fill: none; stroke: #000000; stroke-width: 1px;"></path></g><g id="g33" class="type-text"><text x="-35" y="162" text-anchor="middle" transform="rotate(-90 -35,162)" dy=".35em" style="font-weight: bold; font-style: normal; font-variant: normal; font-size: 11px; line-height: normal; font-family: sans-serif; fill: #000000;">mpg</text></g></g></g><g id="g34" class="type-symbol"><path transform="translate(170.45992654750003,148.74127692917781)" d="M0,3.989422804014327A3.989422804014327,3.989422804014327 0 1,1 0,-3.989422804014327A3.989422804014327,3.989422804014327 0 1,1 0,3.989422804014327Z" style="fill: #000000;"></path><path transform="translate(203.8308384277446,148.74127692917781)" d="M0,3.989422804014327A3.989422804014327,3.989422804014327 0 1,1 0,-3.989422804014327A3.989422804014327,3.989422804014327 0 1,1 0,3.989422804014327Z" style="fill: #000000;"></path><path transform="translate(131.2000302178006,130.04164843588867)" d="M0,3.989422804014327A3.989422804014327,3.989422804014327 0 1,1 0,-3.989422804014327A3.989422804014327,3.989422804014327 0 1,1 0,3.989422804014327Z" style="fill: #000000;"></path><path transform="translate(248.32538760140392,144.58580393066913)" d="M0,3.989422804014327A3.989422804014327,3.989422804014327 0 1,1 0,-3.989422804014327A3.989422804014327,3.989422804014327 0 1,1 0,3.989422804014327Z" style="fill: #000000;"></path><path transform="translate(277.77030984867855,172.6352466706028)" d="M0,3.989422804014327A3.989422804014327,3.989422804014327 0 1,1 0,-3.989422804014327A3.989422804014327,3.989422804014327 0 1,1 0,3.989422804014327Z" style="fill: #000000;"></path><path transform="translate(280.3876362706585,178.86845616836587)" d="M0,3.989422804014327A3.989422804014327,3.989422804014327 0 1,1 0,-3.989422804014327A3.989422804014327,3.989422804014327 0 1,1 0,3.989422804014327Z" style="fill: #000000;"></path><path transform="translate(294.7829315915483,218.3454496541985)" d="M0,3.989422804014327A3.989422804014327,3.989422804014327 0 1,1 0,-3.989422804014327A3.989422804014327,3.989422804014327 0 1,1 0,3.989422804014327Z" style="fill: #000000;"></path><path transform="translate(245.05372957392896,113.41975644185389)" d="M0,3.989422804014327A3.989422804014327,3.989422804014327 0 1,1 0,-3.989422804014327A3.989422804014327,3.989422804014327 0 1,1 0,3.989422804014327Z" style="fill: #000000;"></path><path transform="translate(239.81907672996905,130.04164843588867)" d="M0,3.989422804014327A3.989422804014327,3.989422804014327 0 1,1 0,-3.989422804014327A3.989422804014327,3.989422804014327 0 1,1 0,3.989422804014327Z" style="fill: #000000;"></path><path transform="translate(277.77030984867855,167.44090542246695)" d="M0,3.989422804014327A3.989422804014327,3.989422804014327 0 1,1 0,-3.989422804014327A3.989422804014327,3.989422804014327 0 1,1 0,3.989422804014327Z" style="fill: #000000;"></path><path transform="translate(277.77030984867855,181.9850609172474)" d="M0,3.989422804014327A3.989422804014327,3.989422804014327 0 1,1 0,-3.989422804014327A3.989422804014327,3.989422804014327 0 1,1 0,3.989422804014327Z" style="fill: #000000;"></path><path transform="translate(360.2160921410474,196.52921641202786)" d="M0,3.989422804014327A3.989422804014327,3.989422804014327 0 1,1 0,-3.989422804014327A3.989422804014327,3.989422804014327 0 1,1 0,3.989422804014327Z" style="fill: #000000;"></path><path transform="translate(315.721542967388,187.17940216538327)" d="M0,3.989422804014327A3.989422804014327,3.989422804014327 0 1,1 0,-3.989422804014327A3.989422804014327,3.989422804014327 0 1,1 0,3.989422804014327Z" style="fill: #000000;"></path><path transform="translate(322.2648590223379,208.99563540755395)" d="M0,3.989422804014327A3.989422804014327,3.989422804014327 0 1,1 0,-3.989422804014327A3.989422804014327,3.989422804014327 0 1,1 0,3.989422804014327Z" style="fill: #000000;"></path><path transform="translate(514.6383510378652,258.8613113896583)" d="M0,3.989422804014327A3.989422804014327,3.989422804014327 0 1,1 0,-3.989422804014327A3.989422804014327,3.989422804014327 0 1,1 0,3.989422804014327Z" style="fill: #000000;"></path><path transform="translate(537.4090909090909,258.8613113896583)" d="M0,3.989422804014327A3.989422804014327,3.989422804014327 0 1,1 0,-3.989422804014327A3.989422804014327,3.989422804014327 0 1,1 0,3.989422804014327Z" style="fill: #000000;"></path><path transform="translate(527.0706515422701,214.18997665568983)" d="M0,3.989422804014327A3.989422804014327,3.989422804014327 0 1,1 0,-3.989422804014327A3.989422804014327,3.989422804014327 0 1,1 0,3.989422804014327Z" style="fill: #000000;"></path><path transform="translate(115.49607168592084,30.310296471679933)" d="M0,3.989422804014327A3.989422804014327,3.989422804014327 0 1,1 0,-3.989422804014327A3.989422804014327,3.989422804014327 0 1,1 0,3.989422804014327Z" style="fill: #000000;"></path><path transform="translate(38.939273843006895,51.0876614642234)" d="M0,3.989422804014327A3.989422804014327,3.989422804014327 0 1,1 0,-3.989422804014327A3.989422804014327,3.989422804014327 0 1,1 0,3.989422804014327Z" style="fill: #000000;"></path><path transform="translate(67.72986448478649,14.727272727272318)" d="M0,3.989422804014327A3.989422804014327,3.989422804014327 0 1,1 0,-3.989422804014327A3.989422804014327,3.989422804014327 0 1,1 0,3.989422804014327Z" style="fill: #000000;"></path><path transform="translate(150.1756467771553,143.54693568104193)" d="M0,3.989422804014327A3.989422804014327,3.989422804014327 0 1,1 0,-3.989422804014327A3.989422804014327,3.989422804014327 0 1,1 0,3.989422804014327Z" style="fill: #000000;"></path><path transform="translate(288.2396155365984,205.8790306586724)" d="M0,3.989422804014327A3.989422804014327,3.989422804014327 0 1,1 0,-3.989422804014327A3.989422804014327,3.989422804014327 0 1,1 0,3.989422804014327Z" style="fill: #000000;"></path><path transform="translate(277.1159782431835,208.99563540755395)" d="M0,3.989422804014327A3.989422804014327,3.989422804014327 0 1,1 0,-3.989422804014327A3.989422804014327,3.989422804014327 0 1,1 0,3.989422804014327Z" style="fill: #000000;"></path><path transform="translate(330.11683828827773,228.7341321504702)" d="M0,3.989422804014327A3.989422804014327,3.989422804014327 0 1,1 0,-3.989422804014327A3.989422804014327,3.989422804014327 0 1,1 0,3.989422804014327Z" style="fill: #000000;"></path><path transform="translate(330.77116989377276,167.44090542246695)" d="M0,3.989422804014327A3.989422804014327,3.989422804014327 0 1,1 0,-3.989422804014327A3.989422804014327,3.989422804014327 0 1,1 0,3.989422804014327Z" style="fill: #000000;"></path><path transform="translate(80.81649659468631,83.2925772026658)" d="M0,3.989422804014327A3.989422804014327,3.989422804014327 0 1,1 0,-3.989422804014327A3.989422804014327,3.989422804014327 0 1,1 0,3.989422804014327Z" style="fill: #000000;"></path><path transform="translate(107.64409241998094,96.79786444781908)" d="M0,3.989422804014327A3.989422804014327,3.989422804014327 0 1,1 0,-3.989422804014327A3.989422804014327,3.989422804014327 0 1,1 0,3.989422804014327Z" style="fill: #000000;"></path><path transform="translate(25.590909090909076,51.0876614642234)" d="M0,3.989422804014327A3.989422804014327,3.989422804014327 0 1,1 0,-3.989422804014327A3.989422804014327,3.989422804014327 0 1,1 0,3.989422804014327Z" style="fill: #000000;"></path><path transform="translate(242.43640315194904,202.76242590979086)" d="M0,3.989422804014327A3.989422804014327,3.989422804014327 0 1,1 0,-3.989422804014327A3.989422804014327,3.989422804014327 0 1,1 0,3.989422804014327Z" style="fill: #000000;"></path><path transform="translate(190.0898747123498,162.2465641743311)" d="M0,3.989422804014327A3.989422804014327,3.989422804014327 0 1,1 0,-3.989422804014327A3.989422804014327,3.989422804014327 0 1,1 0,3.989422804014327Z" style="fill: #000000;"></path><path transform="translate(294.7829315915483,211.0733719068083)" d="M0,3.989422804014327A3.989422804014327,3.989422804014327 0 1,1 0,-3.989422804014327A3.989422804014327,3.989422804014327 0 1,1 0,3.989422804014327Z" style="fill: #000000;"></path><path transform="translate(191.39853792333972,144.58580393066913)" d="M0,3.989422804014327A3.989422804014327,3.989422804014327 0 1,1 0,-3.989422804014327A3.989422804014327,3.989422804014327 0 1,1 0,3.989422804014327Z" style="fill: #000000;"></path></g><g id="g35" class="type-area"><path d="M25.590909090909076,40.34449913503884L32.06962025316403,43.6026220896751L38.54833141542027,46.85690128857952L45.027042577675196,50.10706811395638L51.505753739931464,53.35283083191366L57.98446490218639,56.59387239573854L64.46317606444131,59.82984805282723L70.94188722669756,63.06038274730313L77.42059838895251,66.28506831396253L83.89930955120876,69.50346046447882L90.37802071346371,72.71507557433503L96.85673187571861,75.91938728932826L103.33544303797484,79.11582298446484L109.8141542002298,82.30376012647643L116.29286536248604,85.48252261492678L122.771576524741,88.65137720688259L129.25028768699588,91.80953016719482L135.72899884925212,94.95612433107694L142.2077100115071,98.0902368177544L148.6864211737633,101.21087769246049L155.16513233601827,104.31698993634853L161.64384349827452,107.40745114524522L168.12255466052946,110.48107743113584L174.60126582278437,113.53663003399657L181.07997698504062,116.57282515198771L187.55868814729556,119.58834744797086L194.0373993095518,122.58186757204358L200.51611047180674,125.55206383757542L206.99482163406165,128.49764789398796L213.47353279631795,131.4173938587327L219.95224395857286,134.31016992840105L226.43095512082908,137.17497103273962L232.90966628308405,140.01095069472942L239.388377445339,142.81744999608375L245.86708860759524,145.59402149701114L252.34579976985012,148.34044617235952L258.82451093210636,151.05674190811064L265.30322209436133,153.74316280243966L271.7819332566163,156.40018933414765L278.2606444188725,159.02851026988392L284.7393555811274,161.62899785438364L291.21806674338376,164.20267827125687L297.6967779056386,166.75069953395223L304.1754890678936,169.2742988798253L310.6542002301498,171.77477145067758L317.13291139240476,174.25344162913558L323.611622554661,176.71163794212075L330.0903337169159,179.1506720069914L336.56904487917086,181.57182162703117L343.0477560414271,183.97631786263258L349.52646720368205,186.36533571571056L356.00517836593826,188.7399879578993L362.48388952819323,191.1013215918356L368.96260069044945,193.4503164412122L375.4413118527044,195.78788540275522L381.92002301495927,198.11487594808978L388.39873417721566,200.43207252538153L394.87744533947046,202.74019957257045L401.35615650172673,205.0399249117246L407.8348676639817,207.33186334498689L414.31357882623666,209.6165803161481L420.7922899884929,211.89459553779247L427.27100115074785,214.16638651298683L433.74971231300407,216.43239190338207L440.22842347525904,218.69301471325707L446.70713463751395,220.94862527244086L453.1858457997702,223.19956401091963L459.66455696202513,225.44614402515126L466.1432681242814,227.68865344106123L472.6219792865362,229.92735758210884L479.10069044879117,232.16250095293657L485.5794016110474,234.39430905029394L492.05811277330235,236.62299001350834L498.5368239355586,238.84873612682043L505.0155350978136,241.07172518561126L511.49424626006856,243.2921217381022L517.9729574223247,245.51007821343396L524.4516685845797,247.72573594636364L530.9303797468359,249.93922610805734L537.4090909090909,252.15067055170417L537.4090909090909,309.27272727272714L530.9303797468359,305.986789096359L524.4516685845797,302.7028966380373L517.9729574223247,299.42117175095234L511.49424626006856,296.14174560626856L505.0155350978136,292.86475953874407L498.5368239355586,289.5903659775202L492.05811277330235,286.3187294708169L485.5794016110474,283.05002781401646L479.10069044879117,279.784453291358L472.6219792865362,276.5222140421708L466.1432681242814,273.26353556320385L459.66455696202513,270.0086623590978L453.1858457997702,266.75785975331434L446.70713463751395,263.5114158717782L440.22842347525904,260.26964381094626L433.74971231300407,257.0328840008065L427.27100115074785,253.80150677118593L420.7922899884929,250.5759151263655L414.31357882623666,247.3565477279951L407.8348676639817,244.14388207914155L401.35615650172673,240.93843789238798L394.87744533947046,237.7407806115263L388.39873417721566,234.55152503870147L381.92002301495927,231.3713389959774L375.4413118527044,228.20094692129717L368.96260069044945,225.04113326282433L362.48388952819323,221.8927454921862L356.00517836593826,218.75669650610772L349.52646720368205,215.63396612828066L343.0477560414271,212.52560136134386L336.56904487917086,209.43271497692942L330.0903337169159,206.3564819769534L323.611622554661,203.2981334218093L317.13291139240476,200.2589471147796L310.6542002301498,197.24023467322183L304.1754890678936,194.2433246240593L297.6967779056386,191.26954134991658L291.21806674338376,188.3201799925971L284.7393555811274,185.39647778945562L278.2606444188725,182.49958275393948L271.7819332566163,179.63052106966094L265.30322209436133,176.79016498135422L258.82451093210636,173.97920325566838L252.34579976985012,171.1981163714037L245.86708860759524,168.44715842673628L239.388377445339,165.72634730764887L232.90966628308405,163.0354639889874L226.43095512082908,160.37406103096242L219.95224395857286,157.7414795152862L213.47353279631795,155.1368729649387L206.99482163406165,152.55923630966865L200.51611047180674,150.00743774606542L194.0373993095518,147.48025139158247L187.55868814729556,144.9763888956404L181.07997698504062,142.4945285716077L174.60126582278437,140.03334106958405L168.12255466052946,137.59151105243004L161.64384349827452,135.16775471830482L155.16513233601827,132.76083330718672L148.6864211737633,130.36956293105897L142.2077100115071,127.99282118575026L135.72899884925212,125.62955105241296L129.25028768699588,123.27876259628029L122.771576524741,120.93953293657671L116.29286536248604,118.61100490851666L109.8141542002298,116.29238477695222L103.33544303797484,113.98293929894905L96.85673187571861,111.68199237406984L90.37802071346371,109.3889214690483L83.89930955120876,107.10315395888968L77.42059838895251,104.82416348939014L70.94188722669756,102.55146643603373L64.46317606444131,100.28461851049488L57.98446490218639,98.02321154756773L51.505753739931464,95.76687049137779L45.027042577675196,93.51525058932027L38.54833141542027,91.2680347946824L32.06962025316403,89.02493137357104L25.590909090909076,86.78567170819244Z" style="fill: #333333; fill-opacity: 0.2; stroke: rgba(0, 0, 0, 0);"></path></g><g id="g36" class="type-line"><path d="M25.590909090909076,63.565085421615656L32.06962025316403,66.31377673162305L38.54833141542027,69.06246804163044L45.027042577675196,71.81115935163885L51.505753739931464,74.55985066164628L57.98446490218639,77.30854197165364L64.46317606444131,80.05723328166104L70.94188722669756,82.80592459166843L77.42059838895251,85.55461590167687L83.89930955120876,88.30330721168423L90.37802071346371,91.05199852169167L96.85673187571861,93.80068983169903L103.33544303797484,96.54938114170642L109.8141542002298,99.29807245171486L116.29286536248604,102.04676376172226L122.771576524741,104.79545507172962L129.25028768699588,107.54414638173705L135.72899884925212,110.29283769174441L142.2077100115071,113.04152900175285L148.6864211737633,115.79022031176025L155.16513233601827,118.53891162176764L161.64384349827452,121.287602931775L168.12255466052946,124.03629424178243L174.60126582278437,126.78498555179084L181.07997698504062,129.53367686179823L187.55868814729556,132.28236817180564L194.0373993095518,135.03105948181303L200.51611047180674,137.7797507918204L206.99482163406165,140.52844210182886L213.47353279631795,143.27713341183622L219.95224395857286,146.02582472184366L226.43095512082908,148.77451603185102L232.90966628308405,151.5232073418584L239.388377445339,154.27189865186685L245.86708860759524,157.02058996187424L252.34579976985012,159.7692812718816L258.82451093210636,162.51797258188904L265.30322209436133,165.2666638918964L271.7819332566163,168.01535520190484L278.2606444188725,170.76404651191223L284.7393555811274,173.51273782191964L291.21806674338376,176.261429131927L297.6967779056386,179.01012044193442L304.1754890678936,181.75881175194283L310.6542002301498,184.50750306195022L317.13291139240476,187.2561943719576L323.611622554661,190.00488568196502L330.0903337169159,192.75357699197238L336.56904487917086,195.50226830198082L343.0477560414271,198.2509596119882L349.52646720368205,200.9996509219956L356.00517836593826,203.74834223200295L362.48388952819323,206.4970335420104L368.96260069044945,209.24572485201884L375.4413118527044,211.9944161620262L381.92002301495927,214.74310747203359L388.39873417721566,217.491798782041L394.87744533947046,220.24049009204836L401.35615650172673,222.9891814020568L407.8348676639817,225.73787271206422L414.31357882623666,228.48656402207158L420.7922899884929,231.235255332079L427.27100115074785,233.98394664208638L433.74971231300407,236.73263795209482L440.22842347525904,239.48132926210218L446.70713463751395,242.2300205721096L453.1858457997702,244.97871188211695L459.66455696202513,247.72740319212437L466.1432681242814,250.4760945021328L472.6219792865362,253.2247858121402L479.10069044879117,255.97347712214756L485.5794016110474,258.722168432155L492.05811277330235,261.47085974216236L498.5368239355586,264.2195510521703L505.0155350978136,266.9682423621779L511.49424626006856,269.71693367218546L517.9729574223247,272.4656249821931L524.4516685845797,275.2143162922007L530.9303797468359,277.9630076022083L537.4090909090909,280.71169891221587" style="fill: rgba(0, 0, 0, 0); stroke: #000000; stroke-width: 2px;"></path></g></g></g></g></svg>