<?xml version="1.0" encoding="UTF-8"?>
<svg viewBox="0 0 60 60" xmlns="http://www.w3.org/2000/svg">
 <path transform="matrix(.63887 0 0 .63887 21.253 24.692)" d="m6.4736 4.0543h47.45a2.3674 2.3674 0 0 1 2.3674 2.3674v42.261a2.3674 2.3674 0 0 1 -2.3674 2.3674h-47.45a2.3674 2.3674 0 0 1 -2.3674 -2.3674v-42.261a2.3674 2.3674 0 0 1 2.3674 -2.3674" fill="#ccc" fill-rule="evenodd"/>
 <path transform="matrix(.63887 0 0 .63887 21.253 24.692)" d="m6.4736 4.0543h47.45a2.3674 2.3674 0 0 1 2.3674 2.3674v42.261a2.3674 2.3674 0 0 1 -2.3674 2.3674h-47.45a2.3674 2.3674 0 0 1 -2.3674 -2.3674v-42.261a2.3674 2.3674 0 0 1 2.3674 -2.3674" fill="none" stroke="#333" stroke-linecap="round" stroke-linejoin="round" stroke-width="3.9132"/>
 <path transform="matrix(.63887 0 0 .63887 21.253 24.692)" d="m6.9364 3.9419h46.524a2.3212 2.3212 0 0 1 2.3212 2.3212v4.0794a2.3212 2.3212 0 0 1 -2.3212 2.3212h-46.524a2.3212 2.3212 0 0 1 -2.3212 -2.3212v-4.0794a2.3212 2.3212 0 0 1 2.3212 -2.3212" fill="#7f7f7f" fill-rule="evenodd" stroke="#333" stroke-linecap="round" stroke-linejoin="round" stroke-width="3.9132"/>
 <path transform="matrix(.63887 0 0 .63887 21.253 24.692)" d="m52.799 6.9479-2.706 2.706m-0.06293-2.769 2.769 2.769" fill="none" stroke="#333" stroke-linecap="round" stroke-linejoin="round" stroke-width="1.4674"/>
 <path transform="matrix(.85372 0 0 .85372 -6.3231 3.3733)" d="m25.47294,2.9575c0-.58594.07226-1.14648.2168-1.68164 .14844-.53516.37109-1.01367.66797-1.43555 .29688-.42578.67188-.76172 1.125-1.00781s.97461-.375 1.56445-.375 1.11719.125 1.57031.375 .82813.58203 1.125,1.00781c.29687.42188.51758.90234.66211,1.44141s.2168,1.09766.2168,1.67578-.07227,1.13672-.2168,1.67578-.36133,1.02344-.66211,1.45313-.67188.76367-1.125,1.01367-.97656.36914-1.57031.36914-1.11133-.12305-1.56445-.36914-.83008-.58789-1.13086-1.01367-.51758-.91211-.66211-1.44727-.2168-1.0957-.2168-1.68164zm2.01563,0c0,.39844.04883.80078.14648,1.20703s.26367.74414.49805,1.01367 .53906.4043.91406.4043c.54688,0 .94336-.26953 1.18945-.80859s.36914-1.14844.36914-1.81641c0-.66406-.12305-1.26562-.36914-1.80469s-.64258-.81445-1.18945-.81445c-.28906,0-.53516.08203-.73828.24609s-.36523.37695-.48633.63867-.20313.54688-.25781.85547c-.05078.30469-.07617.59766-.07617.87891zm-9.57422,0c0-.58594.07227-1.14648.2168-1.68164 .14844-.53516.37109-1.01367.66797-1.43555 .29688-.42578.67188-.76172 1.125-1.00781s.97461-.375 1.56445-.375 1.11719.125 1.57031.375 .82813.58203 1.125,1.00781c.29688.42188.51758.90234.66211,1.44141s.2168,1.09766.2168,1.67578-.07226,1.13672-.2168,1.67578-.36133,1.02344-.66211,1.45313-.67188.76367-1.125,1.01367-.97656.36914-1.57031.36914-1.11133-.12305-1.56445-.36914-.83008-.58789-1.13086-1.01367-.51758-.91211-.66211-1.44727-.2168-1.0957-.2168-1.68164zm2.01563,0c0,.39844.04883.80078.14648,1.20703s.26367.74414.49805,1.01367 .53906.4043.91406.4043c.54688,0 .94336-.26953 1.18945-.80859s.36914-1.14844.36914-1.81641c0-.66406-.12305-1.26562-.36914-1.80469s-.64258-.81445-1.18945-.81445c-.28906,0-.53516.08203-.73828.24609s-.36523.37695-.48633.63867-.20313.54688-.25781.85547c-.05078.30469-.07617.59766-.07617.87891zm-4.75195,3.3457v-5.8418h-.61523c-.27734,0-.49609-.08984-.65625-.26953s-.24023-.39453-.24023-.63281c0-.24609.07813-.45898.23438-.63867s.37695-.27539.66211-.27539h1.58789c.27734,0 .50781.07031.69141.21094 .1875.14063.28125.39844.28125.77344v6.67383c0,.33984-.08984.59961-.26953.7793s-.41016.26367-.70313.26367-.5293-.08789-.70898-.26367-.26367-.43945-.26367-.7793zm-3.99609,0v-5.8418h-.61523c-.27734,0-.49609-.08984-.65625-.26953s-.24023-.39453-.24023-.63281c0-.24609.07813-.45898.23438-.63867s.37695-.27539.66211-.27539h1.58789c.27734,0 .50781.07031.69141.21094 .1875.14063.28125.39844.28125.77344v6.67383c0,.33984-.08984.59961-.26953.7793s-.41016.26367-.70313.26367-.5293-.08789-.70898-.26367-.26367-.43945-.26367-.7793zm14.29102,8.6543c0-.58594.07226-1.14649.2168-1.68164 .14844-.53516.37109-1.01367.66797-1.43555 .29688-.42578.67188-.76172 1.125-1.00781s.97461-.375 1.56445-.375 1.11719.125 1.57031.375 .82813.58203 1.125,1.00781c.29687.42188.51758.90234.66211,1.44141s.2168,1.09766.2168,1.67578-.07227,1.13672-.2168,1.67578-.36133,1.02344-.66211,1.45313-.67188.76367-1.125,1.01367-.97656.36914-1.57031.36914-1.11133-.12305-1.56445-.36914-.83008-.58789-1.13086-1.01367-.51758-.91211-.66211-1.44727-.2168-1.0957-.2168-1.68164zm2.01563,0c0,.39844.04883.80078.14648,1.20703s.26367.74414.49805,1.01367 .53906.4043.91406.4043c.54688,0 .94336-.26953 1.18945-.80859s.36914-1.14844.36914-1.81641c0-.66406-.12305-1.26563-.36914-1.80469s-.64258-.81445-1.18945-.81445c-.28906,0-.53516.08203-.73828.24609s-.36523.37695-.48633.63867-.20313.54688-.25781.85547c-.05078.30469-.07617.59766-.07617.87891zm-4.75195,3.3457v-5.8418h-.61524c-.27734,0-.49609-.08984-.65625-.26953s-.24023-.39453-.24023-.63281c0-.24609.07813-.45898.23438-.63867s.37695-.27539.66211-.27539h1.58789c.27734,0 .50781.07031.69141.21094 .1875.14063.28125.39844.28125.77344v6.67383c0,.33984-.08984.59961-.26953.7793s-.41016.26367-.70313.26367-.5293-.08789-.70899-.26367-.26367-.43945-.26367-.7793zm-8.81836-3.3457c0-.58594.07227-1.14649.2168-1.68164 .14844-.53516.37109-1.01367.66797-1.43555 .29688-.42578.67188-.76172 1.125-1.00781s.97461-.375 1.56445-.375 1.11719.125 1.57031.375 .82813.58203 1.125,1.00781c.29688.42188.51758.90234.66211,1.44141s.2168,1.09766.2168,1.67578-.07227,1.13672-.2168,1.67578-.36133,1.02344-.66211,1.45313-.67188.76367-1.125,1.01367-.97656.36914-1.57031.36914-1.11133-.12305-1.56445-.36914-.83008-.58789-1.13086-1.01367-.51758-.91211-.66211-1.44727-.2168-1.0957-.2168-1.68164zm2.01563,0c0,.39844.04883.80078.14649,1.20703s.26367.74414.49805,1.01367 .53906.4043.91406.4043c.54688,0 .94336-.26953 1.18945-.80859s.36914-1.14844.36914-1.81641c0-.66406-.12305-1.26563-.36914-1.80469s-.64258-.81445-1.18945-.81445c-.28906,0-.53516.08203-.73828.24609s-.36524.37695-.48633.63867-.20313.54688-.25781.85547c-.05078.30469-.07617.59766-.07617.87891zm-4.75195,3.3457v-5.8418h-.61523c-.27734,0-.49609-.08984-.65625-.26953s-.24023-.39453-.24023-.63281c0-.24609.07813-.45898.23438-.63867s.37695-.27539.66211-.27539h1.58789c.27734,0 .50781.07031.69141.21094 .1875.14063.28125.39844.28125.77344v6.67383c0,.33984-.08984.59961-.26953.7793s-.41016.26367-.70313.26367-.5293-.08789-.70898-.26367-.26367-.43945-.26367-.7793zm19.11328,12v-5.8418h-.61523c-.27734,0-.49609-.08984-.65625-.26953s-.24023-.39453-.24023-.63281c0-.24609.07813-.45898.23438-.63867s.37695-.27539.66211-.27539h1.58789c.27734,0 .50781.07031.69141.21094 .1875.14063.28125.39844.28125.77344v6.67383c0,.33984-.08984.59961-.26953.7793s-.41016.26367-.70313.26367-.5293-.08789-.70899-.26367-.26367-.43945-.26367-.7793zm-8.81836-3.3457c0-.58594.07227-1.14648.2168-1.68164 .14844-.53516.37109-1.01367.66797-1.43555 .29688-.42578.67188-.76172 1.125-1.00781s.97461-.375 1.56445-.375 1.11719.125 1.57031.375 .82813.58203 1.125,1.00781c.29688.42188.51758.90234.66211,1.44141s.2168,1.09766.2168,1.67578-.07226,1.13672-.2168,1.67578-.36133,1.02344-.66211,1.45313-.67188.76367-1.125,1.01367-.97656.36914-1.57031.36914-1.11133-.12305-1.56445-.36914-.83008-.58789-1.13086-1.01367-.51758-.91211-.66211-1.44727-.2168-1.0957-.2168-1.68164zm2.01563,0c0,.39844.04883.80078.14648,1.20703s.26367.74414.49805,1.01367 .53906.4043.91406.4043c.54688,0 .94336-.26953 1.18945-.80859s.36914-1.14844.36914-1.81641c0-.66406-.12305-1.26563-.36914-1.80469s-.64258-.81445-1.18945-.81445c-.28906,0-.53516.08203-.73828.24609s-.36523.37695-.48633.63867-.20313.54688-.25781.85547c-.05078.30469-.07617.59766-.07617.87891zm-4.75195,3.3457v-5.8418h-.61524c-.27734,0-.49609-.08984-.65625-.26953s-.24023-.39453-.24023-.63281c0-.24609.07813-.45898.23438-.63867s.37695-.27539.66211-.27539h1.58789c.27734,0 .50781.07031.69141.21094 .1875.14063.28125.39844.28125.77344v6.67383c0,.33984-.08984.59961-.26953.7793s-.41016.26367-.70313.26367-.5293-.08789-.70898-.26367-.26367-.43945-.26367-.7793zm-8.81836-3.3457c0-.58594.07227-1.14648.2168-1.68164 .14844-.53516.37109-1.01367.66797-1.43555 .29688-.42578.67188-.76172 1.125-1.00781s.97461-.375 1.56445-.375 1.11719.125 1.57031.375 .82813.58203 1.125,1.00781c.29688.42188.51758.90234.66211,1.44141s.2168,1.09766.2168,1.67578-.07227,1.13672-.2168,1.67578-.36133,1.02344-.66211,1.45313-.67188.76367-1.125,1.01367-.97656.36914-1.57031.36914-1.11133-.12305-1.56445-.36914-.83008-.58789-1.13086-1.01367-.51758-.91211-.66211-1.44727-.2168-1.0957-.2168-1.68164zm2.01562,0c0,.39844.04883.80078.14648,1.20703s.26367.74414.49805,1.01367 .53906.4043.91406.4043c.54688,0 .94336-.26953 1.18945-.80859s.36914-1.14844.36914-1.81641c0-.66406-.12305-1.26563-.36914-1.80469s-.64258-.81445-1.18945-.81445c-.28906,0-.53516.08203-.73828.24609s-.36523.37695-.48633.63867-.20313.54688-.25781.85547c-.05078.30469-.07617.59766-.07617.87891z" fill="#333"/>
 <path transform="matrix(.68711 0 0 .68711 18.964 36.423)" d="m30.78697,14.29204v-13.99219c0-.51563.16797-.94531.50391-1.28906s.76953-.51563 1.30078-.51563 .96094.16016 1.28906.48047c.33594.32031.50391.76172.50391,1.32422v5.22656l5.90625-6.35156c.41406-.45313.87891-.67969 1.39453-.67969 .47656,0 .89063.16406 1.24219.49219 .35938.32031.53906.74219.53906,1.26563 0,.29688-.09375.58984-.28125.87891-.1875.28125-.48828.62891-.90234,1.04297l-4.53516,4.51172 5.54297,5.84766c.32031.30469.56641.60156.73828.89063 .17969.28125.26953.59375.26953.9375 0,.54688-.17969.96484-.53906,1.25391-.35938.28125-.80469.42188-1.33594.42188-.3125,0-.59766-.08594-.85547-.25781-.25-.17188-.57031-.46094-.96094-.86719l-6.22266-6.79688v6.17578c0,.49219-.16797.90625-.50391,1.24219s-.76563.50391-1.28906.50391-.95703-.16016-1.30078-.48047-.50391-.74219-.50391-1.26563z" fill="#333"/>
 <path transform="matrix(.3455 0 0 .3455 18.964 36.423)" d="m43.693 41.98 4.5845 4.8028 7.4225-5.0212 5.8944 2.6198 1.9648 8.6045 6.331-0.05815 1.7465-8.8287 5.8944-2.3375 7.4225 4.8028 3.493-4.8028-8.4236-7.9495c-21.591 19.803-40.248-10.718-21.703-23.487l-2e-5 -4.5845-2.1831 1.0916-6.7676-4.3023-4.6749 3.8391 4.2383 7.2307-2.4014 5.8944-8.2702 1.3738-0.02552 6.267 8.5141 2.1831 2.3468 5.7306-5.4032 6.9313z" fill="#333" fill-rule="evenodd" stroke="#333" stroke-linecap="round" stroke-linejoin="round" stroke-width=".375"/>
 <path transform="matrix(.75242 0 0 .75242 21.315 24.164)" d="m-22.095 11.944c7.8889 17.305 21.249 13.233 21.376 13.233v-5.7258l7.6981 9.225-7.7617 7.7617v-5.7895s-18.514 4.3262-21.313-18.704z" fill="#7f7f7f" fill-rule="evenodd" stroke="#333" stroke-linecap="round" stroke-linejoin="round" stroke-width="2.492"/>
 <path transform="translate(-7.051 2.7993)" d="m31.502 4.782c13.02 5.9358 9.9568 15.988 9.9568 16.084h-4.3082l6.941 5.7922 5.84-5.84h-4.3561s3.2551-13.93-14.074-16.036z" fill="#7f7f7f" fill-rule="evenodd" stroke="#333" stroke-linecap="round" stroke-linejoin="round" stroke-width="1.875"/>
</svg>
